<svg width="20" height="20" viewBox="0 0 20 20" fill="none" xmlns="http://www.w3.org/2000/svg">
<circle cx="10" cy="10" r="9.5" stroke="#BFA5A3"/>
<path d="M13.2258 6.5H6.77419C6.34839 6.5 6 6.84839 6 7.27419C6 7.7 6.34839 8.04839 6.77419 8.04839H13.2258C13.6516 8.04839 14 7.7 14 7.27419C14 6.84839 13.6516 6.5 13.2258 6.5Z" fill="#BFA5A3"/>
<path d="M13.2258 9.33875H6.77419C6.34839 9.33875 6 9.68713 6 10.1129C6 10.5387 6.34839 10.8871 6.77419 10.8871H13.2258C13.6516 10.8871 14 10.5387 14 10.1129C14 9.68713 13.6516 9.33875 13.2258 9.33875Z" fill="#BFA5A3"/>
<path d="M13.2258 12.1774H6.77419C6.34839 12.1774 6 12.5258 6 12.9516C6 13.3774 6.34839 13.7258 6.77419 13.7258H13.2258C13.6516 13.7258 14 13.3774 14 12.9516C14 12.5258 13.6516 12.1774 13.2258 12.1774Z" fill="#BFA5A3"/>
</svg>
