<svg width="24" height="12" viewBox="0 0 24 12" fill="none" xmlns="http://www.w3.org/2000/svg">
<path d="M23.725 5.33639C23.7248 5.33611 23.7245 5.33578 23.7242 5.3355L18.8256 0.460497C18.4586 0.0952938 17.865 0.0966529 17.4997 0.463684C17.1345 0.830669 17.1359 1.42425 17.5028 1.7895L20.7918 5.0625H0.9375C0.419719 5.0625 0 5.48222 0 6C0 6.51778 0.419719 6.9375 0.9375 6.9375H20.7917L17.5029 10.2105C17.1359 10.5757 17.1345 11.1693 17.4998 11.5363C17.865 11.9034 18.4587 11.9047 18.8256 11.5395L23.7242 6.6645C23.7245 6.66422 23.7248 6.66389 23.7251 6.66361C24.0923 6.29714 24.0911 5.70164 23.725 5.33639Z" fill="#AF1328"/>
</svg>
