<svg width="64" height="64" viewBox="0 0 64 64" fill="none" xmlns="http://www.w3.org/2000/svg">
<circle opacity="0.1" cx="32" cy="32" r="32" fill="#AF1328"/>
<g clip-path="url(#clip0_3227_6691)">
<path d="M36.0825 30.9973C36.0825 33.2524 34.2544 35.0806 31.9993 35.0806C29.7441 35.0806 27.916 33.2524 27.916 30.9973C27.916 28.7422 29.7441 26.9141 31.9993 26.9141C34.2544 26.9141 36.0825 28.7422 36.0825 30.9973Z" fill="#AF1328"/>
<path d="M46.843 17.1565C46.0967 16.4106 45.1047 16 44.05 16H19.95C18.8953 16 17.9033 16.4106 17.1565 17.157C16.4106 17.9036 16 18.8953 16 19.95V23.9668C16 25.0215 16.4106 26.0132 17.157 26.7603C17.9036 27.5061 18.8953 27.9165 19.95 27.9165H20.1501V21.0208C20.1501 20.5032 20.5698 20.0833 21.0876 20.0833H42.9126C43.4302 20.0833 43.8501 20.5032 43.8501 21.0208V27.9165H44.05C45.1047 27.9165 46.0964 27.5059 46.8435 26.7595C47.5894 26.0132 48 25.0212 48 23.9668V19.95C48 18.8953 47.5894 17.9036 46.843 17.1565Z" fill="#AF1328"/>
<path d="M22.0254 45.053C22.0254 45.8403 22.332 46.5801 22.8879 47.1353C23.4441 47.6921 24.1838 47.9988 24.9712 47.9988H39.0298C39.8171 47.9988 40.5569 47.6921 41.1121 47.1362C41.6687 46.5801 41.9753 45.8403 41.9753 45.053V21.957H22.0254V45.053ZM32.0005 25.0364C35.2859 25.0364 37.9587 27.7092 37.9587 30.9946C37.9587 34.28 35.2859 36.9529 32.0005 36.9529C28.7151 36.9529 26.0422 34.28 26.0422 30.9946C26.0422 27.7092 28.7151 25.0364 32.0005 25.0364ZM26.9797 41.103H37.0212C37.5391 41.103 37.9587 41.5227 37.9587 42.0405C37.9587 42.5581 37.5391 42.978 37.0212 42.978H26.9797C26.4619 42.978 26.0422 42.5581 26.0422 42.0405C26.0422 41.5227 26.4619 41.103 26.9797 41.103Z" fill="#AF1328"/>
</g>
<defs>
<clipPath id="clip0_3227_6691">
<rect width="32" height="32" fill="white" transform="translate(16 16)"/>
</clipPath>
</defs>
</svg>
