<svg width="24" height="24" viewBox="0 0 24 24" fill="none" xmlns="http://www.w3.org/2000/svg">
<g clip-path="url(#clip0_1712_0)">
<path d="M15.0624 11.246C15.0624 12.9374 13.6913 14.3085 11.9999 14.3085C10.3086 14.3085 8.9375 12.9374 8.9375 11.246C8.9375 9.55469 10.3086 8.18359 11.9999 8.18359C13.6913 8.18359 15.0624 9.55469 15.0624 11.246Z" fill="white"/>
<path d="M23.1323 0.867371C22.5725 0.307983 21.8286 0 21.0375 0H2.96246C2.17145 0 1.42749 0.307983 0.867371 0.867737C0.307983 1.42767 0 2.17145 0 2.96246V5.9751C0 6.76611 0.307983 7.50989 0.867737 8.07019C1.42767 8.62958 2.17145 8.93738 2.96246 8.93738H3.11261V3.76556C3.11261 3.37738 3.42737 3.06244 3.81573 3.06244H20.1844C20.5726 3.06244 20.8876 3.37738 20.8876 3.76556V8.93738H21.0375C21.8286 8.93738 22.5723 8.62939 23.1326 8.06964C23.692 7.50989 24 6.76593 24 5.9751V2.96246C24 2.17145 23.692 1.42767 23.1323 0.867371Z" fill="white"/>
<path d="M4.51953 21.7907C4.51953 22.3812 4.74951 22.936 5.16644 23.3524C5.58356 23.7701 6.13837 24.0001 6.72888 24.0001H17.2728C17.8633 24.0001 18.4182 23.7701 18.8345 23.3531C19.252 22.936 19.482 22.3812 19.482 21.7907V4.46875H4.51953V21.7907ZM12.0009 6.77826C14.4649 6.77826 16.4695 8.7829 16.4695 11.2469C16.4695 13.711 14.4649 15.7156 12.0009 15.7156C9.5368 15.7156 7.53217 13.711 7.53217 11.2469C7.53217 8.7829 9.5368 6.77826 12.0009 6.77826ZM8.23529 18.8282H15.7664C16.1548 18.8282 16.4695 19.143 16.4695 19.5314C16.4695 19.9196 16.1548 20.2345 15.7664 20.2345H8.23529C7.84692 20.2345 7.53217 19.9196 7.53217 19.5314C7.53217 19.143 7.84692 18.8282 8.23529 18.8282Z" fill="white"/>
</g>
<defs>
<clipPath id="clip0_1712_0">
<rect width="24" height="24" fill="white"/>
</clipPath>
</defs>
</svg>
