<svg width="56" height="56" viewBox="0 0 56 56" fill="none" xmlns="http://www.w3.org/2000/svg">
<path d="M47.7703 53.077C46.0505 54.9335 43.6123 55.9996 41.0811 55.9996H14.9147C12.3835 55.9996 9.94534 54.9335 8.22542 53.077C6.50561 51.2204 5.62973 48.7079 5.82333 46.1833L8.32495 14.6626C8.48016 12.6366 10.1979 11.0469 12.2337 11.0469H43.762C45.7978 11.0469 47.5155 12.6366 47.6707 14.667L50.1713 46.1789C50.366 48.7079 49.4902 51.2204 47.7703 53.077Z" fill="#B4DEB2"/>
<path d="M47.771 53.077C46.0512 54.9335 43.613 55.9996 41.0818 55.9996H27.9844V11.0469H43.7627C45.7985 11.0469 47.5162 12.6366 47.6714 14.667L50.172 46.1789C50.3667 48.7079 49.4909 51.2204 47.771 53.077Z" fill="#86C983"/>
<path d="M38.8285 10.8254V18.3664C38.8285 19.2728 38.0948 20.0064 37.1884 20.0064C36.2831 20.0064 35.5483 19.2728 35.5483 18.3664V10.8254C35.5483 6.66509 32.1644 3.28005 28.0041 3.28005H27.9899C23.8361 3.2877 20.4598 6.66947 20.4598 10.8254V18.3664C20.4598 19.2728 19.7251 20.0064 18.8198 20.0064C17.9134 20.0064 17.1797 19.2728 17.1797 18.3664V10.8254C17.1797 4.86106 22.0276 0.00765625 27.9898 0H28.004C33.9729 0 38.8285 4.85669 38.8285 10.8254Z" fill="#B5B51F"/>
<path d="M35.3912 30.1319L27.9881 37.5351L26.9089 38.6143C26.5885 38.9347 26.1686 39.0953 25.7488 39.0953C25.3289 39.0953 24.9092 38.9347 24.5888 38.6143L20.6134 34.6388C19.9726 33.9981 19.9726 32.9605 20.6134 32.3198C21.2541 31.679 22.2928 31.679 22.9324 32.3198L25.7489 35.1352L27.9882 32.8959L33.0724 27.8118C33.712 27.1721 34.7507 27.1721 35.3914 27.8118C36.0319 28.4526 36.0319 29.4912 35.3912 30.1319Z" fill="#FFFCE5"/>
<path d="M35.3875 27.8118C36.0283 28.4525 36.0283 29.4912 35.3875 30.1319L27.9844 37.5351V32.8959L33.0686 27.8118C33.7081 27.1721 34.7468 27.1721 35.3875 27.8118Z" fill="#FFE89C"/>
<path d="M38.823 10.8254V18.3664C38.823 19.2728 38.0893 20.0064 37.1829 20.0064C36.2776 20.0064 35.5428 19.2728 35.5428 18.3664V10.8254C35.5428 6.66509 32.1589 3.28005 27.9986 3.28005H27.9844V0H27.9986C33.9674 0 38.823 4.85669 38.823 10.8254Z" fill="#98981A"/>
</svg>
