<svg width="1920" height="263" viewBox="0 0 1920 263" fill="none" xmlns="http://www.w3.org/2000/svg">
<path fill-rule="evenodd" clip-rule="evenodd" d="M1951 125.037L1871 147.923C1791 170.81 1631 216.583 1471 208.955C1311 201.326 1151 140.295 991 86.8924C831 33.4903 671 -12.283 511 2.97476C351 18.2325 191 94.5213 111 132.666L0.5 195.073L31 262.357H111C191 262.357 351 262.357 511 262.357C671 262.357 831 262.357 991 262.357C1151 262.357 1311 262.357 1471 262.357C1631 262.357 1791 262.357 1871 262.357H1951V125.037Z" fill="white" fill-opacity="0.5"/>
</svg>
