<svg width="1920" height="256" viewBox="0 0 1920 256" fill="none" xmlns="http://www.w3.org/2000/svg">
<path fill-rule="evenodd" clip-rule="evenodd" d="M1951 134.31L1871 112.067C1791 89.8252 1631 45.3407 1471 52.7548C1311 60.1689 1151 119.482 991 171.38C831 223.279 671 267.763 511 252.935C351 238.107 191 163.966 111 126.896L0.5 66.2451L31 0.856155H111C191 0.856155 351 0.856155 511 0.856155C671 0.856155 831 0.856155 991 0.856155C1151 0.856155 1311 0.856155 1471 0.856155C1631 0.856155 1791 0.856155 1871 0.856155H1951V134.31Z" fill="white" fill-opacity="0.5"/>
</svg>
