<svg width="56" height="56" viewBox="0 0 56 56" fill="none" xmlns="http://www.w3.org/2000/svg">
<circle cx="28" cy="28" r="28" fill="white"/>
<circle cx="28" cy="28" r="27.5" stroke="#BFA5A3" stroke-opacity="0.5"/>
<g clip-path="url(#clip0)">
<path d="M36.6671 30.5734L35.0781 31.7969L30.8594 35.0312H25.8437L23.7344 33.625L25.8437 30.8125H26.5937C29.3077 30.8125 31.5625 28.6046 31.5625 25.8906C31.5625 23.9501 33.1376 22.375 35.0781 22.375L35.5703 22.5859C37.6797 24.6953 38.1296 27.9718 36.6671 30.5734Z" fill="#FF7816"/>
<path d="M36.6671 30.5734L35.0781 31.7969V22.375L35.5703 22.5859C37.6797 24.6953 38.1296 27.9718 36.6671 30.5734Z" fill="#FF4B00"/>
<path d="M38.5938 34.3281C38.5938 36.2687 37.0187 37.8437 35.0781 37.8437C33.1376 37.8437 31.5625 36.2687 31.5625 34.3281C31.5625 32.3876 33.1376 30.8125 35.0781 30.8125C37.0187 30.8125 38.5938 32.3876 38.5938 34.3281Z" fill="#444444"/>
<path d="M38.5938 34.3281C38.5938 36.2687 37.0187 37.8437 35.0781 37.8437V30.8125C37.0187 30.8125 38.5938 32.3876 38.5938 34.3281Z" fill="#444444"/>
<path d="M37.1875 34.3281C37.1875 35.4952 36.2454 36.4375 35.0781 36.4375C33.9108 36.4375 32.9688 35.4952 32.9688 34.3281C32.9688 33.1608 33.9108 32.2188 35.0781 32.2188C36.2454 32.2188 37.1875 33.1608 37.1875 34.3281Z" fill="#DEECF1"/>
<path d="M37.1875 34.3281C37.1875 35.4952 36.2454 36.4375 35.0781 36.4375V32.2188C36.2454 32.2188 37.1875 33.1608 37.1875 34.3281Z" fill="#C6E2E7"/>
<path d="M28.75 20.9688H32.2656V22.375H28.75V20.9688Z" fill="#5A5A5A"/>
<path d="M23.0312 18.1562V23.7812L20.2188 25.1875L19.5156 24.9484L16 23.7812V18.1562H18.8125L19.5156 18.8594L20.2188 18.1562H23.0312Z" fill="#FED2A4"/>
<path d="M23.0312 18.1562V23.7812L20.2188 25.1875L19.5156 24.9484V18.8594L20.2188 18.1562H23.0312Z" fill="#FFBD86"/>
<path d="M24.4375 34.3281C24.4375 36.2698 22.8635 37.8437 20.9219 37.8437C18.9802 37.8437 17.4062 36.2698 17.4062 34.3281C17.4062 32.3865 18.9802 30.8125 20.9219 30.8125C22.8635 30.8125 24.4375 32.3865 24.4375 34.3281Z" fill="#5A5A5A"/>
<path d="M23.0312 34.3281C23.0312 35.493 22.0868 36.4375 20.9219 36.4375C19.757 36.4375 18.8125 35.493 18.8125 34.3281C18.8125 33.1632 19.757 32.2188 20.9219 32.2188C22.0868 32.2188 23.0312 33.1632 23.0312 34.3281Z" fill="#DEECF1"/>
<path d="M33.6719 19.5625C32.5046 19.5625 31.5625 20.5046 31.5625 21.6719C31.5625 22.839 32.5046 23.7812 33.6719 23.7812H37.1875V19.5625H33.6719Z" fill="#FF9F00"/>
<path d="M18.8125 18.1562H20.2188V19.5625H18.8125V18.1562Z" fill="#FF9F00"/>
<path d="M19.5156 18.1562H20.2188V19.5625H19.5156V18.1562Z" fill="#FF7816"/>
<path d="M25.8438 35.0312H16V30.1094C16 27.3912 18.2037 25.1875 20.9219 25.1875C23.6401 25.1875 25.8438 27.3912 25.8438 30.1094V35.0312Z" fill="#FF9F00"/>
<path d="M24.4375 26.5938H18.1094C16.9445 26.5938 16 25.6493 16 24.4844V23.7812H24.4375C25.2142 23.7812 25.8438 24.4108 25.8438 25.1875C25.8438 25.9642 25.2142 26.5938 24.4375 26.5938Z" fill="#5A5A5A"/>
<path d="M35.0781 19.5625H37.1875V23.7812H35.0781V19.5625Z" fill="#FF7816"/>
<path d="M35.0781 29.4062C32.3641 29.4062 30.1562 31.6141 30.1562 34.3281V35.0312H40V34.3281C40 31.6141 37.7921 29.4062 35.0781 29.4062Z" fill="#FF9F00"/>
<path d="M40 34.3281V35.0312H35.0781V29.4062C37.7921 29.4062 40 31.6141 40 34.3281Z" fill="#FF7816"/>
</g>
<defs>
<clipPath id="clip0">
<rect width="24" height="24" fill="white" transform="translate(16 16)"/>
</clipPath>
</defs>
</svg>
