<svg width="56" height="56" viewBox="0 0 56 56" fill="none" xmlns="http://www.w3.org/2000/svg">
<g clip-path="url(#clip0_2816_80)">
<path d="M32.9229 18.1543H9.95312V50.9683C9.95312 51.8744 10.6877 52.609 11.5938 52.609H32.9229H54.3614C55.2675 52.609 56.0021 51.8744 56.0021 50.9683V18.1543H32.9229Z" fill="#D5E8FE"/>
<path d="M56.001 50.9683V18.1543H32.9219V52.609H54.3603C55.2663 52.609 56.001 51.8744 56.001 50.9683Z" fill="#B5DBFF"/>
<path d="M54.3614 6.66992H32.9229H11.5938C10.6877 6.66992 9.95312 7.40452 9.95312 8.31062V16.5141L13.2345 19.7955H32.9229H52.7207L56.0021 16.5141V8.31062C56.0021 7.40463 55.2674 6.66992 54.3614 6.66992Z" fill="#FF7B4A"/>
<path d="M56.001 16.5141V8.31062C56.001 7.40452 55.2665 6.66992 54.3603 6.66992H32.9219V19.7955H52.7197L56.001 16.5141Z" fill="#FF435B"/>
<path d="M21.4376 13.2329C20.5307 13.2329 19.7969 12.499 19.7969 11.5922V5.02937C19.7969 4.1225 20.5307 3.38867 21.4376 3.38867C22.3444 3.38867 23.0783 4.1225 23.0783 5.02937V11.5922C23.0783 12.499 22.3444 13.2329 21.4376 13.2329Z" fill="#47568C"/>
<path d="M44.4063 13.2329C43.4995 13.2329 42.7656 12.499 42.7656 11.5922V5.02937C42.7656 4.1225 43.4995 3.38867 44.4063 3.38867C45.3132 3.38867 46.047 4.1225 46.047 5.02937V11.5922C46.047 12.499 45.3132 13.2329 44.4063 13.2329Z" fill="#29376D"/>
<path d="M32.9208 16.5137H9.95106V18.1544C9.95106 35.1366 0.676847 43.0709 0.583875 43.1478C0.0567728 43.5932 -0.137158 44.3207 0.0999778 44.968C0.335473 45.6136 0.949203 46.0462 1.63819 46.0462H32.9208H44.4057C44.7903 46.0462 45.162 45.9117 45.4568 45.6665C45.8814 45.3108 56 36.7564 56 18.1544V16.5137H32.9208Z" fill="#EDF5FF"/>
<path d="M45.4578 45.6684C45.8824 45.3127 56.001 36.7583 56.001 18.1563V16.5156H32.9219V46.0482H44.4068C44.7912 46.0481 45.163 45.9136 45.4578 45.6684Z" fill="#D5E8FE"/>
<path d="M32.9219 3.38867C32.0151 3.38867 31.2812 4.1225 31.2812 5.02937V11.5922C31.2812 12.499 32.0151 13.2329 32.9219 13.2329C33.8288 13.2329 34.5626 12.499 34.5626 11.5922V5.02937C34.5626 4.1225 33.8288 3.38867 32.9219 3.38867Z" fill="#47568C"/>
<path d="M34.5626 11.5922V5.02937C34.5626 4.1225 33.8287 3.38867 32.9219 3.38867V13.2329C33.8287 13.2329 34.5626 12.499 34.5626 11.5922Z" fill="#29376D"/>
</g>
<defs>
<clipPath id="clip0_2816_80">
<rect width="56" height="56" fill="white"/>
</clipPath>
</defs>
</svg>
