<svg width="20" height="20" viewBox="0 0 20 20" fill="none" xmlns="http://www.w3.org/2000/svg">
<g clip-path="url(#clip0_2738:2308)">
<path d="M19.7199 10.8617C19.6906 10.268 19.4699 9.69921 19.1074 9.22732C18.2899 8.16293 18.1305 7.31789 18.1305 7.31789C17.4886 5.63599 16.918 4.51533 16.4986 3.80407C16.0573 3.05717 15.2942 2.55406 14.4336 2.44344C12.7029 2.2197 7.29402 2.2197 5.56338 2.44344C4.70335 2.5547 3.94021 3.05781 3.49894 3.80407C3.07954 4.51533 2.50956 5.63599 1.86703 7.31789C1.86703 7.31789 1.70767 8.16293 0.890141 9.22732C0.52827 9.69921 0.306989 10.268 0.278267 10.8617C0.21639 12.1499 0.589542 12.433 0.923295 15.3481C0.94956 15.5775 1.14329 15.75 1.37456 15.75H18.6243C18.8556 15.75 19.0493 15.5768 19.0756 15.3481C19.1693 14.5306 19.4475 12.8724 19.4475 12.8724C19.6912 12.048 19.7443 11.3761 19.7199 10.8617Z" fill="#E95353"/>
<path d="M17.7688 7.25038C17.2625 5.98349 16.7462 4.87721 16.2325 3.99531C15.8431 3.3284 15.1562 2.8628 14.3962 2.76092C12.6618 2.5309 7.32733 2.53279 5.60539 2.76092C4.84539 2.8628 4.15847 3.32844 3.76908 3.99531C3.24845 4.88844 2.72532 6.00971 2.22656 7.25038C7.39916 7.65725 12.5955 7.65725 17.7688 7.25038Z" fill="#168DE2"/>
<path d="M17.0332 8.71528C16.8357 8.77716 16.6519 8.86405 16.4982 8.9503C16.2181 9.10656 15.9306 9.25219 15.6306 9.36595C15.1331 9.55472 15.0487 9.83659 15.0487 9.83659C15.0338 9.85597 15.0194 9.87534 15.0056 9.89532C14.6281 10.456 15.1237 11.2022 15.7931 11.1072C16.7613 10.9703 17.5588 10.6897 17.9638 10.5272C18.1957 10.4341 18.3769 10.2404 18.4363 9.9972C18.4419 9.97408 18.4469 9.95096 18.4513 9.92844C18.6001 9.12594 17.8125 8.47217 17.0332 8.71528Z" fill="white"/>
<path d="M18.0677 13.2075H16.9908C16.829 13.2075 16.7477 13.4031 16.8621 13.5182L17.939 14.5951C18.0533 14.7094 18.2496 14.6282 18.2496 14.4663V13.3894C18.2496 13.2888 18.1683 13.2075 18.0677 13.2075Z" fill="#FFE21F"/>
<path d="M19.0765 15.3468C19.0503 15.5768 18.8559 15.7499 18.6247 15.7499H16.5527V16.9525C16.5527 17.3781 16.8977 17.7237 17.324 17.7237H18.6253C19.051 17.7237 19.3966 17.3787 19.3966 16.9525V13.188C19.3109 13.7093 19.1447 14.7512 19.0765 15.3468Z" fill="#454545"/>
<path d="M19.9859 6.40847C19.9234 6.12846 19.6603 5.93848 19.3734 5.93848H18.8534C18.5202 5.93848 18.2502 6.2085 18.2502 6.54161V6.91222H17.9746L18.1327 7.28787H18.739C19.0528 7.28787 19.3634 7.22036 19.6484 7.08975C19.9052 6.97225 20.049 6.69098 19.9859 6.40847Z" fill="#ED6262"/>
<path d="M17.3753 10.445C17.794 10.445 18.1335 10.1056 18.1335 9.68685C18.1335 9.26814 17.794 8.92871 17.3753 8.92871C16.9566 8.92871 16.6172 9.26814 16.6172 9.68685C16.6172 10.1056 16.9566 10.445 17.3753 10.445Z" fill="#FFBD49"/>
<path d="M15.8499 10.8418C16.1574 10.8418 16.4067 10.5925 16.4067 10.2849C16.4067 9.97736 16.1574 9.72803 15.8499 9.72803C15.5423 9.72803 15.293 9.97736 15.293 10.2849C15.293 10.5925 15.5423 10.8418 15.8499 10.8418Z" fill="#FFDB6F"/>
<path d="M14.4077 10.2855L13.537 11.8018H6.46441L5.59375 10.2855H14.4077Z" fill="#6F6F6F"/>
<path d="M4.99372 9.89541C4.98059 9.87543 4.96621 9.85605 4.95058 9.83667C4.95058 9.83667 4.86618 9.55481 4.36867 9.36604C4.06868 9.25227 3.78177 9.10665 3.50115 8.95039C3.34678 8.86414 3.16365 8.77724 2.96614 8.71537C2.18737 8.47161 1.39925 9.12598 1.54737 9.92852C1.55176 9.95164 1.55676 9.97416 1.56175 9.99729C1.62113 10.2404 1.80237 10.4342 2.03425 10.5273C2.43926 10.6898 3.23677 10.9704 4.20556 11.1073C4.87557 11.2023 5.37122 10.456 4.99372 9.89541Z" fill="white"/>
<path d="M3.0088 13.2075H1.93188C1.83125 13.2075 1.75 13.2888 1.75 13.3894V14.4663C1.75 14.6282 1.94626 14.7094 2.06063 14.5951L3.13754 13.5182C3.25191 13.4038 3.17066 13.2075 3.0088 13.2075Z" fill="#FFE21F"/>
<path d="M17.1697 15.0868C16.0484 13.1467 14.759 13.2074 14.759 13.2074H5.23945C5.23945 13.2074 3.95068 13.1467 2.82877 15.0868H0.890625L0.914393 15.3368C0.936267 15.5718 1.13253 15.7499 1.36751 15.7499H18.6317C18.8667 15.7499 19.0629 15.5718 19.0848 15.3368L19.1086 15.0868L17.1697 15.0868Z" fill="#777777"/>
<path d="M1.3754 15.7505C1.14413 15.7505 0.949757 15.5768 0.923532 15.3474C0.855412 14.7517 0.688515 13.7092 0.603516 13.1886V16.9531C0.603516 17.3787 0.948508 17.7243 1.37479 17.7243H2.67605C3.10169 17.7243 3.44733 17.3794 3.44733 16.9531V15.7505H1.3754V15.7505Z" fill="#454545"/>
<path d="M1.74979 6.91222V6.54161C1.74979 6.20846 1.47977 5.93848 1.14726 5.93848H0.627278C0.340415 5.93848 0.0772791 6.1285 0.0147582 6.40847C-0.048367 6.69034 0.0960112 6.97225 0.352258 7.08911C0.637873 7.21975 0.947899 7.28723 1.26167 7.28723H1.86795L2.02606 6.91158H1.74979V6.91222Z" fill="#ED6262"/>
<path d="M2.62338 10.445C3.04209 10.445 3.38153 10.1056 3.38153 9.68685C3.38153 9.26814 3.04209 8.92871 2.62338 8.92871C2.20467 8.92871 1.86523 9.26814 1.86523 9.68685C1.86523 10.1056 2.20467 10.445 2.62338 10.445Z" fill="#FFBD49"/>
<path d="M4.15064 10.8418C4.4582 10.8418 4.70752 10.5925 4.70752 10.2849C4.70752 9.97736 4.4582 9.72803 4.15064 9.72803C3.84308 9.72803 3.59375 9.97736 3.59375 10.2849C3.59375 10.5925 3.84308 10.8418 4.15064 10.8418Z" fill="#FFDB6F"/>
<path d="M14.0298 13.738H5.96836C5.84211 13.738 5.74023 13.8405 5.74023 13.9662C5.74023 14.0924 5.84211 14.1943 5.96836 14.1943H14.0292C14.1554 14.1943 14.2573 14.0918 14.2573 13.9662C14.2579 13.8399 14.1554 13.738 14.0298 13.738Z" fill="#6F6F6F"/>
<path d="M14.0298 14.6488H5.96836C5.84211 14.6488 5.74023 14.7513 5.74023 14.8769C5.74023 15.0032 5.84211 15.1051 5.96836 15.1051H14.0292C14.1554 15.1051 14.2573 15.0026 14.2573 14.8769C14.2579 14.7507 14.1554 14.6488 14.0298 14.6488Z" fill="#6F6F6F"/>
<path d="M16.9224 5.31794V5.39605C16.9224 5.71042 16.6642 5.96232 16.3436 5.94919C16.048 5.93046 15.8217 5.66607 15.8217 5.36418V4.24291C15.8217 3.97853 15.6017 3.77727 15.3374 3.78416C15.3311 3.78416 15.3311 3.78416 15.3249 3.78416C15.3249 3.78416 15.3249 3.78416 15.3186 3.78416C15.0542 3.77791 14.8343 3.97917 14.8343 4.24291V5.25731C14.8343 5.57169 14.5636 5.82358 14.2492 5.80421C13.9536 5.79172 13.7274 5.52109 13.7274 5.22544V4.34354C13.7274 4.07916 13.5074 3.85917 13.2367 3.85917H13.1992C12.9473 3.85917 12.7398 4.06667 12.7398 4.31857V5.46546C12.7398 5.77983 12.4755 6.03109 12.1548 6.0186C11.8592 5.99987 11.6392 5.73548 11.6392 5.43359V3.89603C11.6392 3.65102 11.4255 3.44351 11.1736 3.46225H11.1361C10.8779 3.46225 10.6711 3.66975 10.6711 3.92165V5.49357C10.6711 5.79546 10.426 6.04672 10.1179 6.04672C9.82227 6.04672 9.57726 5.80795 9.57102 5.51235V4.19296C9.57102 3.89107 9.34478 3.62733 9.04914 3.60795C8.72852 3.59547 8.47038 3.84672 8.47038 4.1611L8.46413 5.37989C8.46413 5.69427 8.20664 5.94552 7.88537 5.93303C7.59536 5.91491 7.37537 5.65991 7.36659 5.37115V3.94102C7.36659 3.64413 7.14346 3.3785 6.84656 3.36101C6.52844 3.34728 6.26591 3.59788 6.26591 3.91291V5.41107C6.25717 5.71796 5.99967 5.96232 5.68401 5.94983C5.38836 5.9311 5.16837 5.66672 5.16837 5.36483V4.24291C5.16837 3.97853 4.94213 3.77727 4.67775 3.78416C4.6715 3.78416 4.6715 3.78416 4.6715 3.78416C4.66526 3.78416 4.66526 3.78416 4.66526 3.78416C4.39463 3.77791 4.17464 3.97917 4.17464 4.24291V5.25731C4.17464 5.57169 3.91026 5.82358 3.59588 5.80421C3.32211 5.79357 3.11835 5.56484 3.08339 5.29981C2.79274 5.90169 2.50462 6.55357 2.22461 7.24984C7.39721 7.65736 12.5942 7.65736 17.7668 7.24984C17.488 6.55172 17.2055 5.90794 16.9224 5.31794Z" fill="#3AA2EB"/>
</g>
<defs>
<clipPath id="clip0_2738:2308">
<rect width="20" height="20" fill="white"/>
</clipPath>
</defs>
</svg>
