<svg width="24" height="24" viewBox="0 0 24 24" fill="none" xmlns="http://www.w3.org/2000/svg">
<g clip-path="url(#clip0)">
<path d="M7.78125 15.5158H20.4846C20.7991 15.5158 21.0751 15.3078 21.1602 15.0057L23.9729 5.16174C24.0333 4.94952 23.9919 4.72156 23.8588 4.54523C23.7255 4.36945 23.5182 4.26562 23.2971 4.26562H6.15802L5.6554 2.00391C5.58398 1.68182 5.29834 1.45312 4.96875 1.45312H0.703125C0.314575 1.45312 0 1.7677 0 2.15625C0 2.54498 0.314575 2.85938 0.703125 2.85938H4.40442L6.94354 14.2852C6.19647 14.61 5.67188 15.3536 5.67188 16.2189C5.67188 17.382 6.61816 18.3283 7.78125 18.3283H20.4846C20.8733 18.3283 21.1877 18.0139 21.1877 17.6252C21.1877 17.2366 20.8733 16.9221 20.4846 16.9221H7.78125C7.39398 16.9221 7.07812 16.6069 7.07812 16.2189C7.07812 15.8309 7.39398 15.5158 7.78125 15.5158Z" fill="#1D1615"/>
<path d="M7.07812 20.4375C7.07812 21.6008 8.02441 22.5469 9.18768 22.5469C10.3508 22.5469 11.2971 21.6008 11.2971 20.4375C11.2971 19.2744 10.3508 18.3281 9.18768 18.3281C8.02441 18.3281 7.07812 19.2744 7.07812 20.4375Z" fill="#1D1615"/>
<path d="M16.9688 20.4375C16.9688 21.6008 17.915 22.5469 19.0781 22.5469C20.2414 22.5469 21.1875 21.6008 21.1875 20.4375C21.1875 19.2744 20.2414 18.3281 19.0781 18.3281C17.915 18.3281 16.9688 19.2744 16.9688 20.4375Z" fill="#1D1615"/>
</g>
<defs>
<clipPath id="clip0">
<rect width="24" height="24" fill="white"/>
</clipPath>
</defs>
</svg>
