<svg width="150" height="150" viewBox="0 0 150 150" fill="none" xmlns="http://www.w3.org/2000/svg">
<g clip-path="url(#clip0)">
<path d="M48.6328 96.9738H128.028C129.995 96.9738 131.719 95.6738 132.251 93.7855L149.831 32.2609C150.208 30.9345 149.95 29.5097 149.118 28.4077C148.285 27.309 146.989 26.6602 145.607 26.6602H38.4876L35.3462 12.5244C34.8999 10.5114 33.1146 9.08203 31.0547 9.08203H4.39453C1.9661 9.08203 0 11.0481 0 13.4766C0 15.9061 1.9661 17.8711 4.39453 17.8711H27.5276L43.3971 89.2822C38.728 91.3124 35.4492 95.9599 35.4492 101.368C35.4492 108.638 41.3635 114.552 48.6328 114.552H128.028C130.458 114.552 132.423 112.587 132.423 110.157C132.423 107.729 130.458 105.763 128.028 105.763H48.6328C46.2124 105.763 44.2383 103.793 44.2383 101.368C44.2383 98.9433 46.2124 96.9738 48.6328 96.9738Z" fill="#BFA5A3"/>
<path d="M44.2383 127.734C44.2383 135.005 50.1526 140.918 57.423 140.918C64.6923 140.918 70.6066 135.005 70.6066 127.734C70.6066 120.465 64.6923 114.551 57.423 114.551C50.1526 114.551 44.2383 120.465 44.2383 127.734Z" fill="#BFA5A3"/>
<path d="M106.055 127.734C106.055 135.005 111.969 140.918 119.238 140.918C126.509 140.918 132.422 135.005 132.422 127.734C132.422 120.465 126.509 114.551 119.238 114.551C111.969 114.551 106.055 120.465 106.055 127.734Z" fill="#BFA5A3"/>
</g>
<circle cx="88.9422" cy="62.0194" r="21.6346" fill="white"/>
<g clip-path="url(#clip1)">
<path d="M89.9982 61.6786L89.6447 62.0321L89.9982 62.3857L95.9887 68.3763L95.9888 68.3764C96.1833 68.5708 96.1833 68.8841 95.9888 69.0785L95.9887 69.0786C95.8917 69.1756 95.7652 69.2241 95.6376 69.2241C95.5099 69.2241 95.3835 69.1756 95.2864 69.0786L89.2958 63.0879L88.9422 62.7344L88.5887 63.0879L82.5982 69.0786C82.5012 69.1756 82.3748 69.2241 82.2471 69.2241C82.1193 69.2241 81.9928 69.1755 81.8961 69.0787L81.8959 69.0785C81.7014 68.8841 81.7014 68.5708 81.8959 68.3764L81.8959 68.3763L87.8864 62.3857L88.24 62.0321L87.8864 61.6786L81.8959 55.6879L81.8959 55.6878C81.7014 55.4934 81.7014 55.1801 81.8959 54.9857L81.8959 54.9856C82.0903 54.7913 82.4035 54.7912 82.5982 54.9856C82.5982 54.9857 82.5983 54.9857 82.5983 54.9857L88.5887 60.9763L88.9422 61.3299L89.2958 60.9763L95.2864 54.9856L94.9329 54.6321L95.2864 54.9856C95.4808 54.7912 95.7943 54.7912 95.9887 54.9856L95.9888 54.9857C96.1833 55.1801 96.1833 55.4934 95.9888 55.6878L95.9887 55.6879L89.9982 61.6786Z" fill="#BFA5A3" stroke="#BFA5A3"/>
</g>
<defs>
<clipPath id="clip0">
<rect width="150" height="150" fill="white"/>
</clipPath>
<clipPath id="clip1">
<rect width="15.3846" height="15.3846" fill="white" transform="translate(81.25 54.3271)"/>
</clipPath>
</defs>
</svg>
