<svg width="24" height="24" viewBox="0 0 24 24" fill="none" xmlns="http://www.w3.org/2000/svg">
<path d="M13.2202 0H23.7965V22.7797H13.2202V0Z" fill="#E3584B"/>
<path d="M13.2202 7.32227H23.7965V8.13583H13.2202V7.32227Z" fill="#CC4F43"/>
<path d="M14.8477 2.44092H15.6612V6.50871H14.8477V2.44092Z" fill="#D6D9DB"/>
<path d="M14.8477 8.94922H15.6612V14.6441H14.8477V8.94922Z" fill="#D6D9DB"/>
<path d="M13.627 22.7798H14.4405V24.0001H13.627V22.7798Z" fill="#0A4A7A"/>
<path d="M22.5762 22.7798H23.3897V24.0001H22.5762V22.7798Z" fill="#0A4A7A"/>
<path d="M0.203613 8.54248H11.5934V22.7798H0.203613V8.54248Z" fill="#4398D1"/>
<path d="M0.203613 11.3896H11.5934V12.2032H0.203613V11.3896Z" fill="#2D81BA"/>
<path d="M1.42383 9.7627H2.23739V10.5763H1.42383V9.7627Z" fill="#2D81BA"/>
<path d="M3.05127 9.7627H3.86483V10.5763H3.05127V9.7627Z" fill="#2D81BA"/>
<path d="M4.67822 9.7627H5.49178V10.5763H4.67822V9.7627Z" fill="#2D81BA"/>
<path d="M7.93262 9.7627H10.3733V10.5763H7.93262V9.7627Z" fill="#2D81BA"/>
<path d="M0.203613 0H11.5934V6.91525H0.203613V0Z" fill="#FFA217"/>
<path d="M1.83057 1.62695H6.71192V5.28797H1.83057V1.62695Z" fill="#87CED9"/>
<path d="M0.610352 22.7798H1.42391V24.0001H0.610352V22.7798Z" fill="#0A4A7A"/>
<path d="M10.373 22.7798H11.1866V24.0001H10.373V22.7798Z" fill="#0A4A7A"/>
<path d="M10.7797 17.4917C10.7797 19.9629 8.77641 21.9662 6.30514 21.9662C3.83388 21.9662 1.83057 19.9629 1.83057 17.4917C1.83057 15.0204 3.83388 13.0171 6.30514 13.0171C8.77641 13.0171 10.7797 15.0204 10.7797 17.4917Z" fill="#3E8DC2"/>
<path d="M9.96616 17.0849C9.96616 19.3315 8.14499 21.1527 5.89836 21.1527C3.65174 21.1527 1.83057 19.3315 1.83057 17.0849C1.83057 14.8383 3.65174 13.0171 5.89836 13.0171C8.14499 13.0171 9.96616 14.8383 9.96616 17.0849Z" fill="#D6D9DB"/>
<path d="M8.7457 17.0848C8.7457 18.6575 7.47093 19.9322 5.89824 19.9322C4.32554 19.9322 3.05078 18.6575 3.05078 17.0848C3.05078 15.5121 4.32554 14.2373 5.89824 14.2373C7.47093 14.2373 8.7457 15.5121 8.7457 17.0848Z" fill="#71C4D1"/>
<path d="M7.93205 17.0847C7.93205 18.2079 7.02137 19.1186 5.89816 19.1186C4.77494 19.1186 3.86426 18.2079 3.86426 17.0847C3.86426 15.9615 4.77494 15.0508 5.89816 15.0508C7.02137 15.0508 7.93205 15.9615 7.93205 17.0847Z" fill="#87CED9"/>
<path d="M8.77457 14.2085L7.11865 15.8644V18.3051L8.77457 19.961C10.3632 18.3726 10.3632 15.7969 8.77457 14.2085Z" fill="#D6D9DB"/>
<path d="M1.83057 1.62695H6.71192V2.44051H1.83057V1.62695Z" fill="#71C4D1"/>
<path d="M9.55908 1.22021H10.3726V2.03377H9.55908V1.22021Z" fill="#EB8B23"/>
<path d="M9.55908 2.84766H10.3726V3.66122H9.55908V2.84766Z" fill="#EB8B23"/>
<path d="M9.96613 4.67773C9.62906 4.67773 9.35596 4.95084 9.35596 5.2879C9.35596 5.62497 9.62906 5.89807 9.96613 5.89807C10.3032 5.89807 10.5763 5.62497 10.5763 5.2879C10.5763 4.95084 10.3032 4.67773 9.96613 4.67773Z" fill="#EB8B23"/>
<path d="M7.93213 0H8.74569V6.91525H7.93213V0Z" fill="#EB8B23"/>
<path d="M15.6612 2.44092V6.50871H14.8477V7.32227H16.4748V2.44092H15.6612Z" fill="#CF4E42"/>
<path d="M15.6612 8.94922V14.6441H14.8477V15.4577H16.4748V8.94922H15.6612Z" fill="#CF4E42"/>
</svg>
