<svg width="56" height="56" viewBox="0 0 56 56" fill="none" xmlns="http://www.w3.org/2000/svg">
<g clip-path="url(#clip0_3127_6762)">
<path d="M55.5077 46.222L45.9374 36.6515L50.5966 32.025C50.9904 31.6313 51.1546 31.0405 51.0232 30.4827C50.8921 29.925 50.4983 29.4983 49.9403 29.3015L22.1155 20.0155C21.5249 19.8186 20.8686 19.9827 20.4421 20.4421C19.9828 20.8686 19.8186 21.525 20.0155 22.1155L29.3014 49.9405C29.4983 50.4985 29.9249 50.8922 30.4827 51.0235C31.0406 51.1546 31.6312 50.9907 32.025 50.5969L36.6513 45.9375L46.2216 55.5078C46.8779 56.1641 47.928 56.1641 48.5514 55.5078L55.5077 48.5516C56.1639 47.9281 56.1639 46.8783 55.5077 46.222Z" fill="#DEECF1"/>
<path d="M21.3281 13.125C20.4213 13.125 19.6875 12.3912 19.6875 11.4844V1.64062C19.6875 0.733797 20.4213 0 21.3281 0C22.235 0 22.9688 0.733797 22.9688 1.64062V11.4844C22.9688 12.3912 22.235 13.125 21.3281 13.125Z" fill="#FFDA2D"/>
<path d="M15.521 15.5193C14.8976 16.1755 13.8476 16.1755 13.2242 15.5193L6.23516 8.563C5.61172 7.93956 5.61172 6.88956 6.23516 6.2332C6.8913 5.60977 7.9413 5.60977 8.56474 6.2332L15.521 13.2223C16.1774 13.8458 16.1774 14.8958 15.521 15.5193Z" fill="#FFDA2D"/>
<path d="M6.24625 36.4104C5.60542 35.7696 5.60542 34.7313 6.24625 34.0904L13.2076 27.1291C13.8485 26.4882 14.8868 26.4882 15.5276 27.1291C16.1684 27.7699 16.1684 28.8082 15.5276 29.449L8.5662 36.4104C7.92537 37.0512 6.88718 37.0512 6.24625 36.4104Z" fill="#FDBF00"/>
<path d="M27.1271 15.5276C26.4863 14.8868 26.4863 13.8485 27.1271 13.2076L34.0885 6.24625C34.7293 5.60542 35.7676 5.60542 36.4085 6.24625C37.0493 6.88707 37.0493 7.92537 36.4085 8.5662L29.4471 15.5276C28.8062 16.1684 27.768 16.1684 27.1271 15.5276Z" fill="#FFDA2D"/>
<path d="M11.4844 22.9688H1.64062C0.733797 22.9688 0 22.235 0 21.3281C0 20.4213 0.733797 19.6875 1.64062 19.6875H11.4844C12.3912 19.6875 13.125 20.4213 13.125 21.3281C13.125 22.235 12.3912 22.9688 11.4844 22.9688Z" fill="#FDBF00"/>
<path d="M6.2332 6.23438L15.519 15.5204C14.8956 16.1767 13.8456 16.1767 13.2223 15.5204L6.2332 8.56417C5.60977 7.94062 5.60977 6.89062 6.2332 6.23438Z" fill="#FDBF00"/>
<path d="M52.0297 52.0328L48.5515 55.5109C47.9281 56.1672 46.8781 56.1672 46.2217 55.5109L36.6514 45.9406L32.025 50.5999C31.6312 50.9936 31.0406 51.1576 30.4827 51.0265C29.925 50.8953 29.4983 50.5016 29.3014 49.9435L20.0155 22.1188C19.8186 21.5281 19.9829 20.8719 20.442 20.4453L52.0297 52.0328Z" fill="#C5D3DD"/>
</g>
<defs>
<clipPath id="clip0_3127_6762">
<rect width="56" height="56" fill="white"/>
</clipPath>
</defs>
</svg>
