<svg width="40" height="40" viewBox="0 0 40 40" fill="none" xmlns="http://www.w3.org/2000/svg">
<path d="M35.5177 22.3927L32.5 19.375H25V33.125C25 34.5057 26.1193 35.625 27.5 35.625V36.875H36.25V24.1605C36.25 23.4975 35.9866 22.8616 35.5177 22.3927Z" fill="#F0915A"/>
<path d="M22.5 35H3.75C3.05961 35 2.5 34.4404 2.5 33.75V11.25C2.5 10.5596 3.05961 10 3.75 10H22.5C23.1904 10 23.75 10.5596 23.75 11.25V33.75C23.75 34.4404 23.1904 35 22.5 35Z" fill="#E64178"/>
<path d="M18.75 35H3.75C3.05961 35 2.5 34.4404 2.5 33.75V11.25C2.5 10.5596 3.05961 10 3.75 10H18.75C19.4404 10 20 10.5596 20 11.25V33.75C20 34.4404 19.4404 35 18.75 35Z" fill="#FF6E91"/>
<path d="M16.25 16.25H6.25C5.55961 16.25 5 15.6904 5 15V13.75C5 13.0596 5.55961 12.5 6.25 12.5H16.25C16.9404 12.5 17.5 13.0596 17.5 13.75V15C17.5 15.6904 16.9404 16.25 16.25 16.25Z" fill="#E64178"/>
<path d="M32.5 12.5H23.75C23.0596 12.5 22.5 13.0596 22.5 13.75V31.25C22.5 31.9404 23.0596 32.5 23.75 32.5H32.5C33.1904 32.5 33.75 31.9404 33.75 31.25V13.75C33.75 13.0596 33.1904 12.5 32.5 12.5Z" fill="#78AF41"/>
<path d="M30 13.75H26.25C25.9048 13.75 25.625 14.0298 25.625 14.375C25.625 15.0654 25.0654 15.625 24.375 15.625C24.0298 15.625 23.75 15.9048 23.75 16.25V28.75C23.75 29.0952 24.0298 29.375 24.375 29.375C25.0654 29.375 25.625 29.9346 25.625 30.625C25.625 30.9702 25.9048 31.25 26.25 31.25H30C30.3452 31.25 30.625 30.9702 30.625 30.625C30.625 29.9346 31.1846 29.375 31.875 29.375C32.2202 29.375 32.5 29.0952 32.5 28.75V16.25C32.5 15.9048 32.2202 15.625 31.875 15.625C31.1846 15.625 30.625 15.0654 30.625 14.375C30.625 14.0298 30.3452 13.75 30 13.75Z" fill="#466932"/>
<path d="M28.125 25.4165C29.8509 25.4165 31.25 24.0174 31.25 22.2915C31.25 20.5656 29.8509 19.1665 28.125 19.1665C26.3991 19.1665 25 20.5656 25 22.2915C25 24.0174 26.3991 25.4165 28.125 25.4165Z" fill="#78AF41"/>
<path d="M7.5 15C6.80961 15 6.25 14.4404 6.25 13.75V12.5H8.75V13.75C8.75 14.4404 8.19039 15 7.5 15Z" fill="#F0915A"/>
<path d="M10 15C9.30961 15 8.75 14.4404 8.75 13.75V12.5H11.25V13.75C11.25 14.4404 10.6904 15 10 15Z" fill="#F0915A"/>
<path d="M12.5 15C11.8096 15 11.25 14.4404 11.25 13.75V12.5H13.75V13.75C13.75 14.4404 13.1904 15 12.5 15Z" fill="#F0915A"/>
<path d="M15 15C14.3096 15 13.75 14.4404 13.75 13.75V12.5H16.25V13.75C16.25 14.4404 15.6904 15 15 15Z" fill="#F0915A"/>
<path d="M7.5 3.125V5C6.80969 5 6.25 5.55969 6.25 6.25V12.5H16.25V3.125H7.5Z" fill="#FAB991"/>
<path d="M16.25 3.125H11.875C11.875 4.16055 12.7145 5 13.75 5H16.25V3.125Z" fill="#F0915A"/>
<path d="M18.75 10H16.25V5C17.6307 5 18.75 6.1193 18.75 7.5V10Z" fill="#F0915A"/>
<path d="M16.25 3.125H7.5C6.80961 3.125 6.25 2.56539 6.25 1.875V1.25H17.5V1.875C17.5 2.56539 16.9404 3.125 16.25 3.125Z" fill="#555A6E"/>
<path d="M16.25 3.125H11.875V1.25H17.5V1.875C17.5 2.56539 16.9404 3.125 16.25 3.125Z" fill="#463C4B"/>
<path d="M36.25 36.875H27.5C26.8096 36.875 26.25 37.4346 26.25 38.125V38.75H37.5V38.125C37.5 37.4346 36.9404 36.875 36.25 36.875Z" fill="#555A6E"/>
<path d="M36.25 36.875H31.875V38.75H37.5V38.125C37.5 37.4346 36.9404 36.875 36.25 36.875Z" fill="#463C4B"/>
<path d="M32.7579 24.0089C32.2697 23.5208 31.4783 23.5208 30.9901 24.0089L30.9334 24.0656C29.9571 25.042 29.9571 26.6249 30.9334 27.6012L31.874 28.5417V31.2501C31.874 33.6663 33.8327 35.6251 36.249 35.6251V27.5001L32.7579 24.0089Z" fill="#FAB991"/>
<path d="M32.9165 24.1667L32.7587 24.3246C32.2705 24.8127 32.2705 25.6042 32.7587 26.0923L32.8912 26.2248C33.1352 26.4689 33.531 26.4689 33.7751 26.2248L34.3748 25.6251L32.9165 24.1667Z" fill="#F0915A"/>
</svg>
