<svg width="17" height="20" viewBox="0 0 17 20" fill="none" xmlns="http://www.w3.org/2000/svg">
<path d="M8 20.0002C6.89543 20.0002 6 19.1048 6 18.0002H10C10 19.1048 9.10457 20.0002 8 20.0002ZM16 17.0002H0V15.0002L2 14.0002V8.50023C1.94732 7.08935 2.26594 5.68935 2.924 4.44023C3.57904 3.28174 4.6987 2.45911 6 2.18023V0.000227844H9.646C8.34639 1.45266 8.12949 3.57663 9.10869 5.26177C10.0879 6.94692 12.0406 7.81016 13.946 7.40023C13.981 7.75723 13.998 8.12723 13.998 8.50023V14.0002L15.998 15.0002V17.0002H16ZM13 6.00023C11.4097 5.99776 10.0977 4.75478 10.0093 3.16695C9.92091 1.57912 11.0869 0.198215 12.6671 0.0192818C14.2473 -0.159651 15.6926 0.925571 15.9615 2.49296C16.2304 4.06034 15.2295 5.56523 13.68 5.92323C13.457 5.97446 13.2288 6.00029 13 6.00023Z" fill="white"/>
</svg>
