<svg width="56" height="56" viewBox="0 0 56 56" fill="none" xmlns="http://www.w3.org/2000/svg">
<path d="M44.4062 42.875C40.787 42.875 37.8438 39.9317 37.8438 36.3125C37.8438 32.6933 40.787 29.6406 44.4062 29.6406C48.0255 29.6406 50.9688 32.6933 50.9688 36.3125C50.9688 39.9317 48.0255 42.875 44.4062 42.875Z" fill="#F6A96C"/>
<path d="M44.4061 42.875C41.9084 42.875 39.6141 43.6932 37.7296 45.0471L35.3203 50.4894L39.4843 56H55.9999V54.3594C55.9999 48.0169 50.7486 42.875 44.4061 42.875Z" fill="#32DDF9"/>
<path d="M8.3125 13.8594L3.23041 16.5156L4.19513 10.6893L0 6.70477L5.81653 5.88446L8.3125 0L10.8696 5.88446L16.5156 6.70477L12.4299 10.6893L13.3946 16.5156L8.3125 13.8594Z" fill="#FFDA2D"/>
<path d="M32.1016 10.6747L33.0859 16.5156L28 13.8577L22.9141 16.5156L23.8984 10.6747L19.7969 6.70477L25.5062 5.88446L28 0L30.5596 5.88446L36.2031 6.70477L32.1016 10.6747Z" fill="#FFDA2D"/>
<path d="M47.6875 13.8594L42.6054 16.5156L43.5701 10.6893L39.4844 6.70477L45.1915 5.88446L47.6875 0L50.2446 5.88446L56 6.70477L51.8049 10.6893L52.7696 16.5156L47.6875 13.8594Z" fill="#FDBF00"/>
<path d="M11.5938 42.875C7.97455 42.875 5.03125 39.9317 5.03125 36.3125C5.03125 32.6933 7.97455 29.6406 11.5938 29.6406C15.213 29.6406 18.1562 32.6933 18.1562 36.3125C18.1562 39.9317 15.213 42.875 11.5938 42.875Z" fill="#FFBD86"/>
<path d="M11.5938 42.875C5.25128 42.875 0 48.0169 0 54.3594V56H16.5156L20.5856 51.0781L18.2703 45.0475C16.3857 43.6932 14.0914 42.875 11.5938 42.875Z" fill="#84ECF7"/>
<path d="M33.0859 16.5156L28 13.8577V0L30.5596 5.88446L36.2031 6.70477L32.1016 10.6747L33.0859 16.5156Z" fill="#FDBF00"/>
<path d="M28 26.3594C24.3906 26.3594 21.4375 29.3125 21.4375 32.9219C21.4375 36.5312 24.3906 39.5938 28 39.5938C31.6094 39.5938 34.5625 36.5312 34.5625 32.9219C34.5625 29.3125 31.6094 26.3594 28 26.3594Z" fill="#FED2A4"/>
<path d="M39.4844 51.0781V56H16.5156V51.0781C16.5156 48.847 17.1719 46.8125 18.2549 45.0407C20.2891 41.7919 23.8984 39.5938 28 39.5938C32.1016 39.5938 35.7109 41.7919 37.7451 45.0407C38.8281 46.8125 39.4844 48.847 39.4844 51.0781Z" fill="#FF637B"/>
<path d="M28 39.5938V26.3594C31.6094 26.3594 34.5625 29.3125 34.5625 32.9219C34.5625 36.5312 31.6094 39.5938 28 39.5938Z" fill="#F6A96C"/>
<path d="M39.4844 51.0781V56H28V39.5938C32.1016 39.5938 35.7109 41.7919 37.7451 45.0407C38.8281 46.8125 39.4844 48.847 39.4844 51.0781Z" fill="#E63950"/>
</svg>
