<svg width="40" height="40" viewBox="0 0 40 40" fill="none" xmlns="http://www.w3.org/2000/svg">
<g clip-path="url(#clip0)">
<path d="M37.3399 20.5181C37.179 20.1888 37.179 19.8112 37.3399 19.4819L38.8318 16.43C39.6624 14.7307 39.0043 12.7053 37.3335 11.8189L34.3327 10.2267C34.009 10.055 33.787 9.74934 33.7237 9.38848L33.1368 6.04249C32.81 4.17953 31.0867 2.92766 29.2143 3.19258L25.8508 3.66836C25.4878 3.71961 25.1288 3.60289 24.8654 3.34813L22.424 0.986269C21.0645 -0.32888 18.9348 -0.328958 17.5755 0.986269L15.1339 3.34836C14.8705 3.60321 14.5115 3.71969 14.1485 3.6686L10.785 3.19282C8.91201 2.92774 7.18936 4.17977 6.86257 6.04272L6.27569 9.38856C6.21234 9.7495 5.99038 10.055 5.66671 10.2268L2.66595 11.819C0.995179 12.7054 0.337058 14.731 1.16768 16.4302L2.65947 19.4821C2.8204 19.8114 2.8204 20.189 2.65947 20.5183L1.1676 23.5701C0.336979 25.2694 0.995101 27.2948 2.66587 28.1813L5.66664 29.7734C5.99038 29.9452 6.21234 30.2508 6.27569 30.6116L6.86257 33.9576C7.16007 35.6536 8.61427 36.8429 10.2856 36.8428C10.4502 36.8428 10.6172 36.8312 10.7851 36.8075L14.1486 36.3317C14.5114 36.2802 14.8706 36.3972 15.134 36.6519L17.5755 39.0138C18.2553 39.6714 19.1273 40.0002 19.9997 40.0001C20.8718 40 21.7444 39.6713 22.4239 39.0138L24.8654 36.6519C25.1289 36.3972 25.4879 36.2808 25.8508 36.3317L29.2143 36.8075C31.0876 37.0725 32.81 35.8205 33.1368 33.9576L33.7237 30.6117C33.7871 30.2508 34.009 29.9452 34.3327 29.7734L37.3335 28.1813C39.0043 27.2949 39.6624 25.2693 38.8318 23.57L37.3399 20.5181ZM15.3856 9.61841C17.7177 9.61841 19.6151 11.5158 19.6151 13.848C19.6151 16.1802 17.7177 18.0776 15.3856 18.0776C13.0534 18.0776 11.156 16.1802 11.156 13.848C11.156 11.5158 13.0534 9.61841 15.3856 9.61841ZM13.2025 28.4285C12.9772 28.6537 12.682 28.7663 12.3868 28.7663C12.0917 28.7663 11.7964 28.6538 11.5712 28.4285C11.1207 27.978 11.1207 27.2476 11.5712 26.7971L26.7968 11.5715C27.2472 11.1211 27.9777 11.1211 28.4281 11.5715C28.8786 12.022 28.8786 12.7524 28.4281 13.2028L13.2025 28.4285ZM24.6136 30.3817C22.2815 30.3817 20.3841 28.4843 20.3841 26.1521C20.3841 23.82 22.2815 21.9226 24.6136 21.9226C26.9458 21.9226 28.8432 23.82 28.8432 26.1521C28.8432 28.4843 26.9458 30.3817 24.6136 30.3817Z" fill="#009D19"/>
<path d="M24.614 24.2295C23.5539 24.2295 22.6914 25.0919 22.6914 26.152C22.6914 27.2121 23.5538 28.0745 24.614 28.0745C25.674 28.0745 26.5365 27.2121 26.5365 26.152C26.5365 25.0919 25.674 24.2295 24.614 24.2295Z" fill="#009D19"/>
<path d="M15.3868 11.9254C14.3267 11.9254 13.4643 12.7878 13.4643 13.8479C13.4643 14.908 14.3267 15.7705 15.3868 15.7705C16.4469 15.7705 17.3094 14.9081 17.3094 13.8479C17.3093 12.7879 16.4469 11.9254 15.3868 11.9254Z" fill="#009D19"/>
</g>
<defs>
<clipPath id="clip0">
<rect width="40" height="40" fill="white"/>
</clipPath>
</defs>
</svg>
