<svg width="20" height="20" viewBox="0 0 20 20" fill="none" xmlns="http://www.w3.org/2000/svg">
<g clip-path="url(#clip0_2738:2240)">
<path d="M17.0327 7.74127C17.0327 7.74127 20.0001 10.8117 20.0001 15.5179C20.0001 15.5179 19.5409 15.6857 18.7152 15.8797C18.5333 15.9219 18.3341 15.9662 18.118 16.0096C17.8749 16.0587 17.6105 16.1078 17.3264 16.1541C17.1348 16.1855 16.9341 16.2156 16.7248 16.2442C15.8 16.3694 14.7079 16.4608 13.4854 16.4608C11.9397 16.4608 10.6021 16.3151 9.54855 16.138C7.92199 15.8652 6.9707 15.5179 6.9707 15.5179C6.9707 10.8117 9.93813 7.74127 9.93813 7.74127V5.82174L8.33812 4.50787L6.9707 3.38514L9.58195 1.04428C9.90188 0.757365 10.2966 0.600802 10.6979 0.573849C10.885 0.561388 11.0729 0.577052 11.256 0.620919C11.5518 0.69174 11.833 0.836232 12.0721 1.0535L12.3505 1.30701C12.9936 1.89291 13.9771 1.89291 14.6206 1.30701L14.8991 1.0535C15.1381 0.836193 15.4194 0.69174 15.7152 0.620919C16.291 0.482912 16.92 0.623732 17.3888 1.04428L20.0001 3.38514L17.7924 5.19803L17.0327 5.82178V7.74127Z" fill="#80B4FB"/>
<path d="M10.8536 4.42558V7.92773C10.8536 7.92773 9.64231 11.6074 9.64231 13.407C9.64231 14.1233 9.59965 15.1555 9.54856 16.1382C7.92199 15.8653 6.9707 15.5181 6.9707 15.5181C6.9707 10.8118 9.93813 7.74144 9.93813 7.74144V3.9491H10.3771C10.6403 3.94906 10.8536 4.16238 10.8536 4.42558Z" fill="#61A2F9"/>
<path d="M10.6979 0.573975C9.78843 1.42104 8.7341 3.20335 8.33812 4.508L6.9707 3.38526L9.58194 1.0444C9.9019 0.75749 10.2967 0.600967 10.6979 0.573975Z" fill="#61A2F9"/>
<path d="M15.715 0.621094C15.6188 1.07383 14.8647 4.40219 13.4852 4.88547C12.1058 4.40219 11.352 1.07379 11.2559 0.621094C11.5516 0.691914 11.8329 0.836367 12.072 1.05367L12.3504 1.30719C12.9935 1.89309 13.977 1.89309 14.6205 1.30719L14.8989 1.05367C15.1379 0.836367 15.4192 0.691914 15.715 0.621094Z" fill="#61A2F9"/>
<path d="M17.3258 16.1543C17.1342 16.1857 16.9334 16.2158 16.7242 16.2444C16.6968 15.0026 16.5689 13.7647 16.3431 12.5631C16.3125 12.3993 16.4203 12.2416 16.5841 12.211C16.7479 12.1804 16.9056 12.2879 16.9367 12.4521C17.1636 13.6613 17.2944 14.9052 17.3258 16.1543Z" fill="#61A2F9"/>
<path d="M18.7157 15.8799C18.5339 15.9221 18.3346 15.9664 18.1185 16.0098C18.0622 15.0601 17.9459 14.1124 17.7729 13.1913C17.7419 13.0275 17.8498 12.8698 18.0139 12.8388C18.1777 12.8082 18.3355 12.9161 18.366 13.0799C18.5379 13.9958 18.6554 14.9362 18.7157 15.8799Z" fill="#61A2F9"/>
<path d="M17.793 5.1981L17.0332 5.82185V4.62153C17.0332 4.43099 17.2837 4.36079 17.3827 4.5236L17.793 5.1981Z" fill="#61A2F9"/>
<path d="M13.4859 8.3514C12.2833 8.3514 11.0808 8.24722 9.88672 8.03878C9.72251 8.01015 9.61262 7.85378 9.64126 7.68956C9.66993 7.52538 9.82633 7.41542 9.99047 7.44413C12.3098 7.84894 14.6618 7.84898 16.9812 7.44413C17.1452 7.41546 17.3018 7.52534 17.3304 7.68956C17.3591 7.85378 17.2492 8.01011 17.085 8.03878C15.8909 8.24722 14.6884 8.3514 13.4859 8.3514Z" fill="#FFD064"/>
<path d="M1.41975 12.7926C1.27322 12.7926 1.14471 12.6858 1.12182 12.5365C0.936975 11.3307 2.04733 10.4839 3.22287 9.58726C3.7219 9.20667 4.25018 8.8037 4.71041 8.35093C4.33916 8.13886 3.99033 7.92159 3.6801 7.69726C2.68822 6.97999 2.20608 6.2623 2.20608 5.50308C2.20608 4.3037 2.87248 3.79714 3.26975 3.60198C4.01088 3.23784 4.98307 3.35933 5.68904 3.90429C6.43369 4.47913 6.74053 5.40019 6.53076 6.43128C6.3935 7.10605 6.08029 7.68155 5.67424 8.18999C6.08971 8.40859 6.52248 8.62378 6.95217 8.83745C9.1374 9.92409 11.2015 10.9505 11.3505 12.4611C11.3669 12.627 11.2456 12.7748 11.0797 12.7911C10.9136 12.8073 10.7661 12.6862 10.7497 12.5204C10.6335 11.3422 8.62541 10.3437 6.68338 9.37792C6.20776 9.14144 5.72487 8.90128 5.26237 8.6548C4.74893 9.18241 4.15158 9.638 3.58889 10.0672C2.51518 10.8861 1.58787 11.5934 1.71842 12.445C1.74369 12.6098 1.63061 12.7638 1.46584 12.7891C1.45041 12.7915 1.43494 12.7926 1.41975 12.7926ZM4.19541 3.99878C3.9617 3.99878 3.73463 4.04612 3.53592 4.14374C3.0608 4.37718 2.80967 4.84726 2.80967 5.50308C2.80967 6.3889 3.82713 7.16495 5.13155 7.89597C5.51998 7.42945 5.81756 6.90909 5.93924 6.31097C6.16119 5.21984 5.64666 4.63413 5.32018 4.38214C4.99502 4.13112 4.586 3.99878 4.19541 3.99878Z" fill="#407093"/>
<path d="M11.0497 12.2897C7.83971 12.122 4.62971 12.122 1.41971 12.2897C0.767402 12.3237 0.23166 12.8185 0.148887 13.4664C-0.0496289 15.0202 -0.0496289 16.574 0.148887 18.1278C0.23166 18.7757 0.767363 19.2705 1.41971 19.3046C4.62971 19.4722 7.83971 19.4722 11.0497 19.3046C11.702 19.2705 12.2378 18.7758 12.3205 18.1278C12.519 16.574 12.519 15.0202 12.3205 13.4664C12.2378 12.8185 11.7021 12.3237 11.0497 12.2897Z" fill="#DB5C6E"/>
<path d="M2.00513 19.3332C1.80997 19.3244 1.61478 19.3147 1.41962 19.3047C0.767314 19.2705 0.231689 18.7759 0.148799 18.1276C-0.0495996 16.5739 -0.0495996 15.0201 0.148799 13.4664C0.231689 12.8185 0.767314 12.3236 1.41962 12.2898C1.61478 12.2797 1.80997 12.2701 2.00513 12.2612C1.59106 12.4661 1.29005 12.8677 1.22849 13.3502C1.02001 14.9816 1.02001 16.613 1.22849 18.2439C1.29005 18.7264 1.59106 19.128 2.00513 19.3332Z" fill="#D64553"/>
<path d="M12.3198 15.5256C12.2371 16.1735 11.7014 16.6681 11.0491 16.7021C7.83918 16.8701 4.62933 16.8701 1.41902 16.7021C0.766675 16.6681 0.230972 16.1735 0.148277 15.5256C0.104761 15.1845 0.0709724 14.8434 0.0460114 14.5023C-0.0140276 15.3484 -0.0153557 16.1944 0.0423005 17.0404C0.285191 17.4086 0.693746 17.655 1.15871 17.6792C4.54257 17.8563 7.92597 17.8563 11.3094 17.6792C11.7746 17.655 12.1832 17.4083 12.4261 17.04C12.4837 16.1935 12.4824 15.347 12.4222 14.5005C12.3976 14.8422 12.3638 15.1839 12.3198 15.5256Z" fill="#D64553"/>
<path d="M7.85996 17.759C6.88984 17.8121 5.91973 17.8121 4.94957 17.759C4.525 17.7357 4.18652 17.3997 4.15234 16.9759C4.10547 16.3942 4.10547 15.8125 4.15234 15.2307C4.18648 14.8069 4.52496 14.4709 4.94953 14.4477C5.91965 14.3946 6.8898 14.3946 7.85992 14.4477C8.28449 14.4709 8.62297 14.8069 8.65711 15.2307C8.70398 15.8125 8.70398 16.3942 8.65711 16.9759C8.62301 17.3997 8.28453 17.7357 7.85996 17.759Z" fill="#FFD064"/>
<path d="M6.40456 16.7263C6.00757 16.7263 5.60585 16.7169 5.20753 16.6982C5.18343 16.3025 5.18343 15.9037 5.20753 15.5081C5.60585 15.4894 6.00761 15.48 6.40456 15.48C6.80152 15.48 7.20324 15.4894 7.60156 15.5081C7.62566 15.9038 7.62566 16.3026 7.60156 16.6982C7.20324 16.7169 6.80152 16.7263 6.40456 16.7263Z" fill="#DB5C6E"/>
<path d="M6.40556 17.0282C6.0047 17.0282 5.59721 17.0187 5.19439 16.9998C5.04041 16.9926 4.91662 16.8705 4.90725 16.7166C4.88248 16.3096 4.88248 15.8968 4.90725 15.4898C4.91662 15.3359 5.04041 15.2138 5.19439 15.2066C5.59752 15.1878 6.00502 15.1782 6.40556 15.1782C6.80611 15.1782 7.21353 15.1878 7.61665 15.2066C7.77064 15.2138 7.89443 15.3359 7.9038 15.4898C7.92857 15.8969 7.92857 16.3096 7.9038 16.7166C7.89443 16.8705 7.77064 16.9926 7.61665 16.9998C7.21384 17.0187 6.80634 17.0282 6.40556 17.0282ZM5.49713 16.4082C6.10369 16.4299 6.70724 16.4299 7.31388 16.4082C7.32037 16.2051 7.32037 16.0013 7.31388 15.7983C6.70693 15.7765 6.10408 15.7765 5.49713 15.7983C5.49064 16.0013 5.49064 16.2051 5.49713 16.4082Z" fill="#FFC250"/>
</g>
<defs>
<clipPath id="clip0_2738:2240">
<rect width="20" height="20" fill="white"/>
</clipPath>
</defs>
</svg>
