<svg width="20" height="20" viewBox="0 0 20 20" fill="none" xmlns="http://www.w3.org/2000/svg">
<path d="M11.0176 0H19.8311V18.9831H11.0176V0Z" fill="#E3584B"/>
<path d="M11.0176 6.10168H19.8311V6.77965H11.0176V6.10168Z" fill="#CC4F43"/>
<path d="M12.373 2.03394H13.051V5.42377H12.373V2.03394Z" fill="#D6D9DB"/>
<path d="M12.373 7.45764H13.051V12.2034H12.373V7.45764Z" fill="#D6D9DB"/>
<path d="M11.3555 18.983H12.0334V20H11.3555V18.983Z" fill="#0A4A7A"/>
<path d="M18.8145 18.983H19.4924V20H18.8145V18.983Z" fill="#0A4A7A"/>
<path d="M0.169922 7.11865H9.66145V18.9831H0.169922V7.11865Z" fill="#4398D1"/>
<path d="M0.169922 9.49158H9.66145V10.1695H0.169922V9.49158Z" fill="#2D81BA"/>
<path d="M1.1875 8.13562H1.86547V8.81359H1.1875V8.13562Z" fill="#2D81BA"/>
<path d="M2.54297 8.13562H3.22093V8.81359H2.54297V8.13562Z" fill="#2D81BA"/>
<path d="M3.89844 8.13562H4.5764V8.81359H3.89844V8.13562Z" fill="#2D81BA"/>
<path d="M6.61133 8.13562H8.64523V8.81359H6.61133V8.13562Z" fill="#2D81BA"/>
<path d="M0.169922 0H9.66145V5.76271H0.169922V0Z" fill="#FFA217"/>
<path d="M1.52539 1.35596H5.59319V4.4068H1.52539V1.35596Z" fill="#87CED9"/>
<path d="M0.507812 18.983H1.18578V20H0.507812V18.983Z" fill="#0A4A7A"/>
<path d="M8.64453 18.983H9.3225V20H8.64453V18.983Z" fill="#0A4A7A"/>
<path d="M8.98302 14.5762C8.98302 16.6356 7.31359 18.305 5.2542 18.305C3.19482 18.305 1.52539 16.6356 1.52539 14.5762C1.52539 12.5168 3.19482 10.8474 5.2542 10.8474C7.31359 10.8474 8.98302 12.5168 8.98302 14.5762Z" fill="#3E8DC2"/>
<path d="M8.30505 14.2372C8.30505 16.1094 6.78741 17.6271 4.91522 17.6271C3.04304 17.6271 1.52539 16.1094 1.52539 14.2372C1.52539 12.3651 3.04304 10.8474 4.91522 10.8474C6.78741 10.8474 8.30505 12.3651 8.30505 14.2372Z" fill="#D6D9DB"/>
<path d="M7.28873 14.2373C7.28873 15.5478 6.22643 16.6101 4.91585 16.6101C3.60527 16.6101 2.54297 15.5478 2.54297 14.2373C2.54297 12.9267 3.60527 11.8644 4.91585 11.8644C6.22643 11.8644 7.28873 12.9267 7.28873 14.2373Z" fill="#71C4D1"/>
<path d="M6.61053 14.2373C6.61053 15.1733 5.85163 15.9322 4.91562 15.9322C3.97961 15.9322 3.2207 15.1733 3.2207 14.2373C3.2207 13.3013 3.97961 12.5424 4.91562 12.5424C5.85163 12.5424 6.61053 13.3013 6.61053 14.2373Z" fill="#87CED9"/>
<path d="M7.31157 11.8405L5.93164 13.2204V15.2543L7.31157 16.6342C8.63539 15.3106 8.63539 13.1641 7.31157 11.8405Z" fill="#D6D9DB"/>
<path d="M1.52539 1.35596H5.59319V2.03392H1.52539V1.35596Z" fill="#71C4D1"/>
<path d="M7.9668 1.01697H8.64476V1.69493H7.9668V1.01697Z" fill="#EB8B23"/>
<path d="M7.9668 2.37292H8.64476V3.05089H7.9668V2.37292Z" fill="#EB8B23"/>
<path d="M8.30535 3.89832C8.02446 3.89832 7.79688 4.1259 7.79688 4.40679C7.79688 4.68768 8.02446 4.91526 8.30535 4.91526C8.58624 4.91526 8.81382 4.68768 8.81382 4.40679C8.81382 4.1259 8.58624 3.89832 8.30535 3.89832Z" fill="#EB8B23"/>
<path d="M6.60938 0H7.28734V5.76271H6.60938V0Z" fill="#EB8B23"/>
<path d="M13.051 2.03394V5.42377H12.373V6.10173H13.729V2.03394H13.051Z" fill="#CF4E42"/>
<path d="M13.051 7.45764V12.2034H12.373V12.8814H13.729V7.45764H13.051Z" fill="#CF4E42"/>
</svg>
