<svg width="64" height="64" viewBox="0 0 64 64" fill="none" xmlns="http://www.w3.org/2000/svg">
<circle cx="32" cy="32" r="32" fill="#C2C2C2" fill-opacity="0.4"/>
<g clip-path="url(#clip0)">
<path d="M32 18.6666C34.0695 18.6692 36.1101 19.1523 37.9611 20.0778C39.8121 21.0033 41.4229 22.3459 42.6667 24H41.3333V26.6666H45.3333C45.6132 26.6666 45.886 26.5786 46.113 26.415C46.34 26.2514 46.5098 26.0205 46.5983 25.755L47.9317 21.755L45.4017 20.9116L44.8725 22.5C42.8724 19.7895 40.0678 17.7794 36.8583 16.7563C33.6489 15.7332 30.1984 15.7492 26.9985 16.802C23.7987 17.8549 21.0128 19.8908 19.0379 22.6198C17.0631 25.3487 15.9999 28.6314 16 32H18.6667C18.6707 28.465 20.0767 25.0759 22.5763 22.5763C25.076 20.0767 28.465 18.6706 32 18.6666Z" fill="white"/>
<path d="M45.3334 32C45.3334 34.7984 44.4529 37.5259 42.8166 39.7961C41.1803 42.0663 38.8712 43.7642 36.2164 44.6491C33.5616 45.5341 30.6956 45.5612 28.0245 44.7268C25.3533 43.8924 23.0124 42.2387 21.3334 40H22.6667V37.3333H18.6667C18.3868 37.3333 18.1141 37.4214 17.887 37.585C17.66 37.7486 17.4902 37.9795 17.4017 38.245L16.0684 42.245L18.5984 43.0883L19.1275 41.5C21.1276 44.2105 23.9323 46.2206 27.1417 47.2437C30.3512 48.2668 33.8017 48.2508 37.0015 47.198C40.2013 46.1451 42.9872 44.1091 44.9621 41.3802C46.937 38.6512 48.0001 35.3686 48 32H45.3334Z" fill="white"/>
<path d="M22.6665 31.9998C22.6665 33.8458 23.2139 35.6503 24.2395 37.1852C25.265 38.72 26.7227 39.9163 28.4281 40.6227C30.1336 41.3291 32.0102 41.514 33.8207 41.1538C35.6312 40.7937 37.2942 39.9048 38.5995 38.5995C39.9048 37.2942 40.7937 35.6312 41.1538 33.8207C41.514 32.0102 41.3291 30.1336 40.6227 28.4281C39.9163 26.7227 38.72 25.265 37.1852 24.2395C35.6503 23.2139 33.8458 22.6665 31.9998 22.6665C29.5253 22.6693 27.153 23.6535 25.4032 25.4032C23.6535 27.153 22.6693 29.5253 22.6665 31.9998ZM35.9998 26.6665V29.3332H31.3332C31.1564 29.3332 30.9868 29.4034 30.8618 29.5284C30.7367 29.6535 30.6665 29.823 30.6665 29.9998C30.6665 30.1766 30.7367 30.3462 30.8618 30.4712C30.9868 30.5963 31.1564 30.6665 31.3332 30.6665H32.6665C33.4931 30.6657 34.2906 30.972 34.9041 31.5261C35.5175 32.0801 35.9032 32.8424 35.9863 33.6648C36.0694 34.4873 35.8439 35.3113 35.3536 35.9768C34.8634 36.6424 34.1433 37.102 33.3332 37.2665V38.6665H30.6665V37.3332H27.9998V34.6665H32.6665C32.8433 34.6665 33.0129 34.5963 33.1379 34.4712C33.2629 34.3462 33.3332 34.1766 33.3332 33.9998C33.3332 33.823 33.2629 33.6535 33.1379 33.5284C33.0129 33.4034 32.8433 33.3332 32.6665 33.3332H31.3332C30.5065 33.334 29.7091 33.0276 29.0956 32.4736C28.4821 31.9195 28.0964 31.1573 28.0134 30.3348C27.9303 29.5124 28.1558 28.6884 28.646 28.0229C29.1363 27.3573 29.8564 26.8977 30.6665 26.7332V25.3332H33.3332V26.6665H35.9998Z" fill="white"/>
</g>
<defs>
<clipPath id="clip0">
<rect width="32" height="32" fill="white" transform="translate(16 16)"/>
</clipPath>
</defs>
</svg>
