<svg width="72" height="72" viewBox="0 0 72 72" fill="none" xmlns="http://www.w3.org/2000/svg">
<rect width="72" height="72" rx="36" fill="#F4F5F7"/>
<path d="M47 30V26C47 25.7348 46.8946 25.4804 46.7071 25.2929C46.5196 25.1054 46.2652 25 46 25H26C25.7348 25 25.4804 25.1054 25.2929 25.2929C25.1054 25.4804 25 25.7348 25 26V30H47Z" fill="#2EC5CE"/>
<path d="M25 32V46C25 46.2652 25.1054 46.5196 25.2929 46.7071C25.4804 46.8946 25.7348 47 26 47H31V32H25Z" fill="#D6B1FF"/>
<path d="M33 47H46C46.2652 47 46.5196 46.8946 46.7071 46.7071C46.8946 46.5196 47 46.2652 47 46V32H33V47Z" fill="#8C30F5"/>
</svg>
