<svg width="72" height="72" viewBox="0 0 72 72" fill="none" xmlns="http://www.w3.org/2000/svg">
<rect width="72" height="72" rx="36" fill="#F4F5F7"/>
<path d="M29 25H26C25.7348 25 25.4804 25.1054 25.2929 25.2929C25.1054 25.4804 25 25.7348 25 26V46C25 46.2652 25.1054 46.5196 25.2929 46.7071C25.4804 46.8946 25.7348 47 26 47H29V25Z" fill="#D6B1FF"/>
<path d="M31 47H41V25H31V47ZM36 43C35.7348 43 35.4804 42.8946 35.2929 42.7071C35.1054 42.5196 35 42.2652 35 42C35 41.7348 35.1054 41.4804 35.2929 41.2929C35.4804 41.1054 35.7348 41 36 41C36.2652 41 36.5196 41.1054 36.7071 41.2929C36.8946 41.4804 37 41.7348 37 42C37 42.2652 36.8946 42.5196 36.7071 42.7071C36.5196 42.8946 36.2652 43 36 43ZM36 29C36.2652 29 36.5196 29.1054 36.7071 29.2929C36.8946 29.4804 37 29.7348 37 30C37 30.2652 36.8946 30.5196 36.7071 30.7071C36.5196 30.8946 36.2652 31 36 31C35.7348 31 35.4804 30.8946 35.2929 30.7071C35.1054 30.5196 35 30.2652 35 30C35 29.7348 35.1054 29.4804 35.2929 29.2929C35.4804 29.1054 35.7348 29 36 29ZM36 35C36.2652 35 36.5196 35.1054 36.7071 35.2929C36.8946 35.4804 37 35.7348 37 36C37 36.2652 36.8946 36.5196 36.7071 36.7071C36.5196 36.8946 36.2652 37 36 37C35.7348 37 35.4804 36.8946 35.2929 36.7071C35.1054 36.5196 35 36.2652 35 36C35 35.7348 35.1054 35.4804 35.2929 35.2929C35.4804 35.1054 35.7348 35 36 35Z" fill="#8C30F5"/>
<path d="M46 25H43V47H46C46.2652 47 46.5196 46.8946 46.7071 46.7071C46.8946 46.5196 47 46.2652 47 46V26C47 25.7348 46.8946 25.4804 46.7071 25.2929C46.5196 25.1054 46.2652 25 46 25Z" fill="#2EC5CE"/>
</svg>
