<svg width="41" height="21" viewBox="0 0 41 21" fill="none" xmlns="http://www.w3.org/2000/svg">
<path d="M36.0653 0.03125V8.34344H36.0122C34.9441 7.13325 33.6095 6.71271 32.0611 6.71271C28.8892 6.71271 26.4999 8.83816 25.6612 11.6483C24.7047 8.55192 22.2381 6.65468 18.5804 6.65468C15.61 6.65468 13.2644 7.96896 12.0403 10.1106V7.44881H5.90043V4.55883H12.6007V0.03125H0.427246V20.3424H5.90043V11.8044H11.3557C11.1931 12.4316 11.1063 13.1031 11.1063 13.8117C11.1063 18.0486 14.3898 21.0214 18.5804 21.0214C22.1042 21.0214 24.4265 19.3907 25.6548 16.4175H20.9645C20.33 17.3107 19.8488 17.576 18.5804 17.576C17.1096 17.576 15.8415 16.3111 15.8415 14.8116H25.392C25.8062 18.1769 28.4656 21.0791 32.1151 21.0791C33.6894 21.0791 35.1307 20.3158 36.0122 19.0269H36.0653V20.3418H40.89V0.03125H36.0653ZM15.9938 11.8651C16.2982 10.5751 17.3132 9.73189 18.5804 9.73189C19.9753 9.73189 20.9387 10.5491 21.1921 11.8651C21.2989 11.8651 15.9938 11.8651 15.9938 11.8651ZM33.1374 17.2497C31.3589 17.2497 30.2538 15.6162 30.2538 13.9107C30.2538 12.0877 31.2151 10.3346 33.1374 10.3346C35.1307 10.3346 35.9248 12.0877 35.9248 13.9107C35.9245 15.6396 35.0831 17.2497 33.1374 17.2497Z" fill="#652C8F"/>
</svg>
