<svg width="71" height="21" viewBox="0 0 71 21" fill="none" xmlns="http://www.w3.org/2000/svg">
<g clip-path="url(#clip0_915_203)">
<path d="M52.3242 20.3428L58.1445 13.8965L52.3242 7.44922H58.4653L61.348 10.5809L64.1239 7.44922H70.0507L64.258 13.8698L70.1302 20.3428H63.9639L61.1073 17.1855L58.2777 20.3428H52.3242Z" fill="#FF6600"/>
<path d="M52.3238 4.55824H45.7318V7.44851H52.3238V11.8044H45.7318V15.8026H52.3238V20.3421H40.8867V0.03125H52.3238V4.55824Z" fill="#FF6600"/>
<path d="M36.0638 0.03125V8.34344H36.0107C34.9426 7.13325 33.6081 6.7127 32.0596 6.7127C28.8877 6.7127 26.4984 8.83816 25.6597 11.6483C24.7033 8.55192 22.2366 6.65468 18.5789 6.65468C15.6085 6.65468 13.2629 7.96896 12.0388 10.1106V7.44881H5.89897V4.55883H12.5993V0.03125H0.425781V20.3424H5.89897V11.8044H11.3542C11.1916 12.4316 11.1048 13.1031 11.1048 13.8117C11.1048 18.0486 14.3884 21.0214 18.5789 21.0214C22.1028 21.0214 24.425 19.3907 25.6533 16.4175H20.963C20.3285 17.3107 19.8473 17.576 18.5789 17.576C17.1081 17.576 15.84 16.3111 15.84 14.8116H25.3906C25.8048 18.1769 28.4641 21.0791 32.1136 21.0791C33.6879 21.0791 35.1292 20.3158 36.0107 19.0269H36.0638V20.3418H40.8886V0.03125H36.0638ZM15.9924 11.8651C16.2967 10.5751 17.3117 9.73189 18.5789 9.73189C19.9738 9.73189 20.9372 10.5491 21.1906 11.8651C21.2974 11.8651 15.9924 11.8651 15.9924 11.8651ZM33.1359 17.2497C31.3574 17.2497 30.2523 15.6162 30.2523 13.9107C30.2523 12.0877 31.2136 10.3346 33.1359 10.3346C35.1292 10.3346 35.9233 12.0877 35.9233 13.9107C35.923 15.6396 35.0816 17.2497 33.1359 17.2497Z" fill="#652C8F"/>
</g>
<defs>
<clipPath id="clip0_915_203">
<rect width="69.7917" height="20.9375" fill="white" transform="translate(0.425781 0.03125)"/>
</clipPath>
</defs>
</svg>
