<svg width="24" height="24" viewBox="0 0 24 24" fill="#af1328" xmlns="http://www.w3.org/2000/svg">
<g clip-path="url(#clip0)">
<path d="M22.0961 3.4021C20.8537 2.05463 19.149 1.3125 17.2956 1.3125C15.9102 1.3125 14.6415 1.75049 13.5245 2.6142C12.9609 3.05017 12.4503 3.58356 12 4.20612C11.5499 3.58374 11.0391 3.05017 10.4753 2.6142C9.35852 1.75049 8.08978 1.3125 6.70441 1.3125C4.85101 1.3125 3.14612 2.05463 1.90375 3.4021C0.676208 4.73383 0 6.55316 0 8.52521C0 10.5549 0.756409 12.4129 2.38037 14.3725C3.83313 16.1254 5.92108 17.9048 8.33899 19.9653C9.16461 20.6689 10.1005 21.4666 11.0722 22.3162C11.3289 22.541 11.6583 22.6648 12 22.6648C12.3415 22.6648 12.6711 22.541 12.9274 22.3165C13.8992 21.4667 14.8356 20.6688 15.6616 19.9647C18.0791 17.9046 20.1671 16.1254 21.6198 14.3723C23.2438 12.4129 24 10.5549 24 8.52502C24 6.55316 23.3238 4.73383 22.0961 3.4021Z" fill="#af1328"/>
</g>
<defs>
<clipPath id="clip0">
<rect width="24" height="24" fill="white"/>
</clipPath>
</defs>
</svg>
