<svg width="17" height="16" viewBox="0 0 17 16" fill="none" xmlns="http://www.w3.org/2000/svg">
<g clip-path="url(#clip0_1900:6236)">
<path d="M13.2222 11.483H3.30859V4.46875L5.13519 1.76519L8.29901 0.46875L11.4628 1.77759L13.2811 4.46875L13.2222 11.483Z" fill="#F9F2F2"/>
<path d="M11.4626 1.77759L8.29883 0.46875V11.483H13.222L13.2809 4.46875L11.4626 1.77759Z" fill="#DBEBF7"/>
<path d="M8.29886 5.65686C9.29342 5.65686 10.0997 4.8605 10.0997 3.87814C10.0997 2.89579 9.29342 2.09943 8.29886 2.09943C7.3043 2.09943 6.49805 2.89579 6.49805 3.87814C6.49805 4.8605 7.3043 5.65686 8.29886 5.65686Z" fill="#447390"/>
<path d="M8.29883 2.09845V5.65595C9.29179 5.65595 10.0996 4.85802 10.0996 3.8772C10.0996 2.89642 9.29179 2.09845 8.29883 2.09845Z" fill="#2A485C"/>
<path d="M8.62685 4.65236C9.06147 4.47443 9.26775 3.98216 9.08759 3.55286C8.90744 3.12356 8.40906 2.9198 7.97445 3.09774C7.53983 3.27567 7.33355 3.76794 7.5137 4.19724C7.69386 4.62654 8.19223 4.8303 8.62685 4.65236Z" fill="#DBEBF7"/>
<path d="M8.29883 3.03595V4.71842C8.76919 4.71842 9.15053 4.3418 9.15053 3.87717C9.15053 3.41261 8.76919 3.03595 8.29883 3.03595Z" fill="#CCD5ED"/>
<path d="M10.9262 11.483H5.67188V7.36554C5.67188 6.93407 6.026 6.58429 6.46283 6.58429H10.1353C10.5721 6.58429 10.9262 6.93407 10.9262 7.36554V11.483Z" fill="#654D54"/>
<path d="M10.135 6.58429H8.29883V11.483H10.926V7.36554C10.926 6.93407 10.5719 6.58429 10.135 6.58429Z" fill="#523E45"/>
<path d="M7.82227 6.58429H8.77502V11.483H7.82227V6.58429Z" fill="#523E45"/>
<path d="M8.29883 6.58429H8.7752V11.483H8.29883V6.58429Z" fill="#413038"/>
<path d="M14.2032 6.30083C14.0499 6.30086 13.8995 6.22761 13.808 6.09224L11.1481 2.15536L8.29872 0.976583L5.45062 2.14368L2.79124 6.07983C2.64571 6.29518 2.35103 6.35324 2.13307 6.20955C1.91505 6.06583 1.85627 5.77477 2.00174 5.55946L4.74104 1.50499C4.79315 1.42786 4.86725 1.36774 4.95393 1.33221L8.11775 0.0357702C8.23472 -0.012136 8.36618 -0.0119173 8.48295 0.0363952L11.6468 1.34524C11.7328 1.38086 11.8064 1.44074 11.8582 1.5174L14.5975 5.57186C14.743 5.78721 14.6842 6.07827 14.4662 6.22196C14.3852 6.2753 14.2937 6.30083 14.2032 6.30083Z" fill="#E6A960"/>
<path d="M14.5967 5.57187L11.8574 1.5174C11.8056 1.44072 11.732 1.38084 11.646 1.34525L8.48217 0.0364048C8.42355 0.0121548 8.36119 6.10352e-05 8.29883 6.10352e-05V0.976967L11.1473 2.15537L13.8072 6.09225C13.8987 6.22765 14.0491 6.30087 14.2024 6.30084C14.2929 6.30084 14.3845 6.27531 14.4654 6.22197C14.6834 6.07825 14.7422 5.78719 14.5967 5.57187Z" fill="#DD6F48"/>
<path d="M0.199219 8.17218V16H8.62254V11.409C6.30378 9.53871 3.3886 8.35449 0.199219 8.17218Z" fill="#88BC9D"/>
<path d="M8.62254 14.1254C8.5038 13.999 8.38231 13.8745 8.25769 13.7522C6.07918 11.6147 3.24443 10.3552 0.199219 10.1544V16H8.62254V14.1254Z" fill="#5F9F8B"/>
<path d="M6.83182 15.1511C5.03445 13.3876 2.70528 12.3358 0.199219 12.1387V16H7.60765C7.36628 15.7057 7.10793 15.422 6.83182 15.1511Z" fill="#4F8373"/>
<path d="M0.199219 14.1248V16H4.78894C3.47713 14.9376 1.89117 14.2897 0.199219 14.1248Z" fill="#2A485C"/>
<path d="M16.3979 16.0001V8.23749C10.9336 8.40521 6.22437 11.5118 3.85742 16.0001H16.3979Z" fill="#9DBC29"/>
<path d="M16.3981 16V10.2167C13.2022 10.3298 10.2144 11.6045 7.94119 13.8349C7.26451 14.4988 6.67427 15.2249 6.17578 16H16.3981Z" fill="#4AA221"/>
<path d="M16.3976 16V12.1973C13.7405 12.3094 11.2588 13.3772 9.36649 15.2339C9.1162 15.4795 8.87999 15.7351 8.6582 16H16.3976Z" fill="#007845"/>
<path d="M11.5137 16.0001H16.3975V14.178C14.6016 14.2716 12.9085 14.9056 11.5137 16.0001Z" fill="#9DBC29"/>
</g>
<defs>
<clipPath id="clip0_1900:6236">
<rect width="16.1988" height="16" fill="white" transform="translate(0.199219)"/>
</clipPath>
</defs>
</svg>
