<svg width="24" height="24" viewBox="0 0 24 24" fill="none" xmlns="http://www.w3.org/2000/svg">
<g clip-path="url(#clip0)">
<path d="M23.6994 11.7186C24.1344 11.2401 24.0924 10.5067 23.6056 10.081L12.8796 0.695747C12.3928 0.269999 11.6122 0.278918 11.1356 0.715853L0.373269 10.5814C-0.103331 11.0183 -0.126723 11.7507 0.321478 12.2166L0.591306 12.4976C1.03896 12.9635 1.76254 13.019 2.20644 12.6213L3.01076 11.901V22.4463C3.01076 23.0933 3.53501 23.6171 4.18153 23.6171H8.37674C9.02326 23.6171 9.54751 23.0933 9.54751 22.4463V15.0689H14.8985V22.4463C14.8892 23.0928 15.3518 23.6166 15.9983 23.6166H20.4442C21.0907 23.6166 21.615 23.0928 21.615 22.4458V12.0495C21.615 12.0495 21.8372 12.2441 22.1112 12.485C22.3848 12.7254 22.9594 12.5327 23.3945 12.0537L23.6994 11.7186Z" fill="#BFA5A3"/>
</g>
<defs>
<clipPath id="clip0">
<rect width="24" height="24" fill="white"/>
</clipPath>
</defs>
</svg>
