<svg width="56" height="56" viewBox="0 0 56 56" fill="none" xmlns="http://www.w3.org/2000/svg">
<g clip-path="url(#clip0_3087_6549)">
<path d="M15.1875 48.4102H24.679V52.2068H15.1875V48.4102Z" fill="#F98500"/>
<path d="M1.89844 48.4102H11.39V52.2068H1.89844V48.4102Z" fill="#F98500"/>
<path d="M32.2715 48.4102H41.763V52.2068H32.2715V48.4102Z" fill="#F98500"/>
<path d="M45.5586 44.6133H55.0501V48.4099H45.5586V44.6133Z" fill="#F98500"/>
<path d="M15.1875 40.8164H24.679V44.613H15.1875V40.8164Z" fill="#F98500"/>
<path d="M1.89844 40.8164H11.39V44.613H1.89844V40.8164Z" fill="#F98500"/>
<path d="M13.2891 33.2227H22.7806V37.0193H13.2891V33.2227Z" fill="#F98500"/>
<path d="M30.373 40.8164H39.8646V44.613H30.373V40.8164Z" fill="#F98500"/>
<path d="M45.5586 37.0195H55.0501V40.8161H45.5586V37.0195Z" fill="#F98500"/>
<path d="M45.5586 29.4258H55.0501V33.2224H45.5586V29.4258Z" fill="#F98500"/>
<path d="M45.5586 21.832H55.0501V25.6286H45.5586V21.832Z" fill="#F98500"/>
<path d="M30.373 33.2227H39.8646V37.0193H30.373V33.2227Z" fill="#F98500"/>
<path d="M17.084 44.6094H26.5755V48.406H17.084V44.6094Z" fill="#FFB531"/>
<path d="M15.1855 37.0156H24.6771V40.8122H15.1855V37.0156Z" fill="#FFB531"/>
<path d="M45.5586 48.4062H55.0501V52.2029H45.5586V48.4062Z" fill="#FFB531"/>
<path d="M0 44.6094H9.49153V48.406H0V44.6094Z" fill="#FFB531"/>
<path d="M30.373 44.6094H39.8646V48.406H30.373V44.6094Z" fill="#FFB531"/>
<path d="M43.6602 40.8125H53.1517V44.6091H43.6602V40.8125Z" fill="#FFB531"/>
<path d="M28.4746 37.0156H37.9661V40.8122H28.4746V37.0156Z" fill="#FFB531"/>
<path d="M45.5586 33.2188H55.0501V37.0154H45.5586V33.2188Z" fill="#FFB531"/>
<path d="M43.6602 25.6289H53.1517V29.4255H43.6602V25.6289Z" fill="#FFB531"/>
<path d="M45.5586 18.0352H55.0501V21.8318H45.5586V18.0352Z" fill="#FFB531"/>
<path d="M28.4746 29.4219H37.9661V33.2185H28.4746V29.4219Z" fill="#FFB531"/>
<path d="M55.5835 0.163123C55.3226 -0.0134523 54.9907 -0.0491382 54.6978 0.0681155L49.9521 1.96642L50.6584 3.72986L52.7379 2.8975L47.3563 11.6433L44.4022 7.95007C44.2192 7.71 43.9286 7.57652 43.6269 7.59321C43.3265 7.60387 43.0494 7.75634 42.8788 8.00429L33.0365 22.3213L27.1942 17.3132C27.0005 17.1468 26.7474 17.0657 26.493 17.0884C26.2381 17.1112 26.0036 17.2354 25.8418 17.4328L18.0169 26.9957L13.0593 21.2136C12.8586 20.9791 12.5565 20.8572 12.2497 20.8864C11.9424 20.9152 11.6685 21.0918 11.5151 21.3596L3.92188 34.6478L5.56992 35.5895L12.4985 23.4716L17.3175 29.0914C17.5034 29.3 17.7689 29.4209 18.0484 29.4237C18.3293 29.4205 18.5943 29.293 18.7723 29.0752L26.6997 19.3862L32.6064 24.449C32.8108 24.6242 33.08 24.7044 33.347 24.6696C33.6144 24.6349 33.854 24.4879 34.0065 24.2659L43.7191 10.1339L46.7167 13.8813C46.9118 14.1196 47.2089 14.2512 47.5166 14.2354C47.8248 14.2164 48.1047 14.0487 48.2665 13.7854L54.1018 4.30223V6.64406H56.0001V0.94914C56.0001 0.633992 55.844 0.339699 55.5835 0.163123Z" fill="#7EB457"/>
<path d="M0 52.2031H55.0508V55.9997H0V52.2031Z" fill="#B0564C"/>
</g>
<defs>
<clipPath id="clip0_3087_6549">
<rect width="56" height="56" fill="white"/>
</clipPath>
</defs>
</svg>
