<svg width="48" height="48" viewBox="0 0 48 48" fill="none" xmlns="http://www.w3.org/2000/svg">
<rect x="1" y="1" width="46" height="46" rx="23" stroke="#A78B8B" stroke-width="2"/>
<g clip-path="url(#clip0)">
<path d="M35.9763 19.0561C35.9201 17.7809 35.7139 16.9042 35.4185 16.1445C35.1137 15.3381 34.6449 14.6162 34.0306 14.016C33.4305 13.4065 32.7038 12.9329 31.9067 12.6329C31.1427 12.3375 30.2706 12.1313 28.9954 12.0751C27.7106 12.0141 27.3028 12 24.0443 12C20.7859 12 20.378 12.0141 19.098 12.0703C17.8228 12.1266 16.9461 12.333 16.1867 12.6282C15.3801 12.9329 14.6582 13.4018 14.058 14.016C13.4485 14.6162 12.9751 15.3429 12.6749 16.1399C12.3795 16.9042 12.1733 17.7761 12.1171 19.0513C12.0561 20.336 12.042 20.7439 12.042 24.0023C12.042 27.2608 12.0561 27.6686 12.1123 28.9486C12.1685 30.2238 12.3749 31.1005 12.6703 31.8602C12.9751 32.6666 13.4485 33.3885 14.058 33.9887C14.6582 34.5982 15.3849 35.0718 16.1819 35.3718C16.9461 35.6672 17.8181 35.8734 19.0935 35.9296C20.3733 35.986 20.7813 35.9999 24.0397 35.9999C27.2982 35.9999 27.706 35.986 28.986 35.9296C30.2612 35.8734 31.1379 35.6672 31.8974 35.3718C33.5103 34.7482 34.7855 33.4729 35.4091 31.8602C35.7044 31.096 35.9108 30.2238 35.967 28.9486C36.0232 27.6686 36.0373 27.2608 36.0373 24.0023C36.0373 20.7439 36.0325 20.336 35.9763 19.0561ZM33.8151 28.8549C33.7634 30.027 33.5666 30.6599 33.4025 31.0819C32.9992 32.1274 32.1694 32.9572 31.1238 33.3605C30.7019 33.5246 30.0643 33.7215 28.8968 33.7729C27.631 33.8293 27.2513 33.8433 24.0491 33.8433C20.8469 33.8433 20.4624 33.8293 19.2012 33.7729C18.0291 33.7215 17.3961 33.5246 16.9742 33.3605C16.4539 33.1682 15.9803 32.8634 15.5958 32.4649C15.1973 32.0758 14.8926 31.6069 14.7003 31.0866C14.5362 30.6647 14.3393 30.027 14.2879 28.8596C14.2314 27.5937 14.2175 27.2139 14.2175 24.0117C14.2175 20.8095 14.2314 20.425 14.2879 19.1639C14.3393 17.9918 14.5362 17.3589 14.7003 16.9369C14.8926 16.4165 15.1973 15.943 15.6006 15.5584C15.9896 15.1599 16.4584 14.8552 16.9789 14.6631C17.4009 14.499 18.0386 14.3021 19.2059 14.2504C20.4718 14.1942 20.8516 14.1801 24.0537 14.1801C27.2606 14.1801 27.6403 14.1942 28.9016 14.2504C30.0737 14.3021 30.7066 14.499 31.1286 14.6631C31.6489 14.8552 32.1225 15.1599 32.5069 15.5584C32.9054 15.9476 33.2102 16.4165 33.4025 16.9369C33.5666 17.3589 33.7634 17.9964 33.8151 19.1639C33.8713 20.4298 33.8854 20.8095 33.8854 24.0117C33.8854 27.2139 33.8713 27.589 33.8151 28.8549Z" fill="#A78B8B"/>
<path d="M24.0447 17.8369C20.641 17.8369 17.8794 20.5983 17.8794 24.0022C17.8794 27.406 20.641 30.1674 24.0447 30.1674C27.4485 30.1674 30.2099 27.406 30.2099 24.0022C30.2099 20.5983 27.4485 17.8369 24.0447 17.8369ZM24.0447 28.0014C21.8365 28.0014 20.0454 26.2105 20.0454 24.0022C20.0454 21.7939 21.8365 20.0029 24.0447 20.0029C26.253 20.0029 28.0439 21.7939 28.0439 24.0022C28.0439 26.2105 26.253 28.0014 24.0447 28.0014Z" fill="#A78B8B"/>
<path d="M31.893 17.5936C31.893 18.3884 31.2485 19.0329 30.4535 19.0329C29.6586 19.0329 29.0142 18.3884 29.0142 17.5936C29.0142 16.7986 29.6586 16.1543 30.4535 16.1543C31.2485 16.1543 31.893 16.7986 31.893 17.5936Z" fill="#A78B8B"/>
</g>
<defs>
<clipPath id="clip0">
<rect width="24" height="24" fill="white" transform="translate(12 12)"/>
</clipPath>
</defs>
</svg>
