<svg width="44" height="56" viewBox="0 0 44 56" fill="none" xmlns="http://www.w3.org/2000/svg">
<path d="M34.4036 8.36672V52.2316C34.4036 52.5882 34.3544 52.9327 34.2614 53.2597C33.8141 54.8413 32.3594 56.0007 30.6345 56.0007H4.40859C2.32719 56.0007 0.640625 54.313 0.640625 52.2316V8.36672C0.640625 6.28531 2.32719 4.59766 4.40859 4.59766H30.6345C32.7159 4.59766 34.4036 6.28531 34.4036 8.36672Z" fill="#A1412B"/>
<path d="M8.51953 43.1719V49.8278C8.51953 51.7232 10.0552 53.2589 11.9506 53.2589H34.2631C34.3561 52.9318 34.4053 52.5873 34.4053 52.2307V43.1719H8.51953Z" fill="#7F392C"/>
<path d="M30.6351 4.59766H4.40914C2.32763 4.59766 0.640625 6.28466 0.640625 8.36617V52.2313C0.640625 54.3129 2.32763 55.9999 4.40914 55.9999H30.6352C32.7167 55.9999 34.4037 54.3129 34.4037 52.2313V8.36617C34.4036 6.28466 32.7167 4.59766 30.6351 4.59766ZM30.4007 51.997H4.64353V8.60056H30.4007V51.997Z" fill="#DB765A"/>
<path d="M34.4046 43.1719V52.2303C34.4046 52.5869 34.3554 52.9314 34.2624 53.2584H11.9499C10.878 53.2584 9.91992 52.7673 9.29102 51.9963H30.4015V43.1719H34.4046Z" fill="#B55434"/>
<path d="M4.40914 4.59766C2.32784 4.59766 0.640625 6.28487 0.640625 8.36617V32.3356C0.640625 33.4409 1.53673 34.337 2.64208 34.337C3.74742 34.337 4.64353 33.4409 4.64353 32.3356V8.60056H9.21518C10.3205 8.60056 11.2166 7.70445 11.2166 6.59911C11.2166 5.49377 10.3205 4.59766 9.21518 4.59766H4.40914Z" fill="#F2886B"/>
<path d="M4.64353 24.4084V15.3686C4.64353 14.2633 3.74742 13.3672 2.64208 13.3672C1.53673 13.3672 0.640625 14.2633 0.640625 15.3686V24.4084C0.640625 25.5137 1.53673 26.4098 2.64208 26.4098C3.74742 26.4098 4.64353 25.5137 4.64353 24.4084Z" fill="#F79A7C"/>
<path d="M25.6112 26.9844V49.3003H11.9487C10.0537 49.3003 8.51758 47.7641 8.51758 45.8692V28.1281C8.51758 27.4965 9.02967 26.9844 9.66131 26.9844H25.6112Z" fill="#D8D4C9"/>
<path d="M25.6117 26.9844V49.3013H11.9497C10.6503 49.3013 9.51938 48.5794 8.9375 47.5141C11.8316 43.6564 13.5455 38.8636 13.5455 33.6705C13.5455 31.3452 13.202 29.1008 12.5622 26.9844H25.6117Z" fill="#B5B1A4"/>
<path d="M15.4075 45.8693V1.14373C15.4075 0.512094 15.9196 0 16.5513 0H42.2163C42.848 0 43.3601 0.512094 43.3601 1.14373V45.8693C43.3601 47.7642 41.8239 49.3003 39.929 49.3003H11.9766C13.8715 49.3003 15.4075 47.7642 15.4075 45.8693Z" fill="#F1EEE0"/>
<path d="M17.308 27.581C16.2588 27.581 15.4082 26.7303 15.4082 25.6811V6.4975C15.4082 5.44827 16.2588 4.59766 17.308 4.59766C18.3573 4.59766 19.2079 5.44827 19.2079 6.4975V25.681C19.208 26.7303 18.3574 27.581 17.308 27.581Z" fill="#F9F8F2"/>
<path d="M43.3612 1.14406V45.8697C43.3612 47.7641 41.8255 49.3008 39.9301 49.3008H29.0254C35.8909 37.625 39.8284 24.022 39.8284 9.49813C39.8284 6.28359 39.6359 3.11391 39.2607 0H42.2182C42.8493 0 43.3612 0.511875 43.3612 1.14406Z" fill="#E8E4D8"/>
<path d="M15.4082 37.7109H43.3601V40.0811H15.4082V37.7109Z" fill="#FFC751"/>
<path d="M29.8655 37.7109H19.6304C18.9759 37.7109 18.4453 38.2415 18.4453 38.896C18.4453 39.5505 18.9759 40.0811 19.6304 40.0811H29.8655C30.52 40.0811 31.0506 39.5505 31.0506 38.896C31.0506 38.2415 30.52 37.7109 29.8655 37.7109Z" fill="#FFE059"/>
<path d="M43.3601 1.14406V8.86922H15.4082V1.14406C15.4082 0.511875 15.9201 0 16.5523 0H42.2171C42.8482 0 43.3601 0.511875 43.3601 1.14406Z" fill="#FFC751"/>
<path d="M43.3602 1.14406V8.86922H39.8252C39.8012 5.87016 39.6109 2.91047 39.2598 0H42.2173C42.8484 0 43.3602 0.511875 43.3602 1.14406Z" fill="#FFAF40"/>
</svg>
