<svg width="56" height="56" viewBox="0 0 56 56" fill="none" xmlns="http://www.w3.org/2000/svg">
<circle cx="28" cy="28" r="28" fill="white"/>
<circle cx="28" cy="28" r="27.5" stroke="#BFA5A3" stroke-opacity="0.5"/>
<g clip-path="url(#clip0)">
<path d="M35.847 30.1562H20.1061L16 40H40L35.847 30.1562Z" fill="#9ED0FF"/>
<path d="M40 40H28V30.1562H35.847L40 40Z" fill="#73BCFF"/>
<path d="M34.9186 31.5625H21.0345L18.1094 38.5938H37.8438L34.9186 31.5625Z" fill="#3AAAFF"/>
<path d="M37.8438 38.5938H28V31.5625H34.9186L37.8438 38.5938Z" fill="#0095FF"/>
<path d="M28 16C24.5126 16 21.6719 18.8874 21.6719 22.375C21.6719 23.5703 22.0093 24.7843 22.6422 25.7969L28 34.2906L33.3578 25.7969C33.9907 24.7843 34.3281 23.5703 34.3281 22.375C34.3281 18.8874 31.4874 16 28 16V16ZM28 25.9375C26.0594 25.9375 24.4844 24.3156 24.4844 22.375C24.4844 20.4344 26.0594 18.8125 28 18.8125C29.9406 18.8125 31.5156 20.4344 31.5156 22.375C31.5156 24.3156 29.9406 25.9375 28 25.9375Z" fill="#FF9F00"/>
<path d="M24.3143 30.772L25.7095 30.9463L24.655 39.384L23.2598 39.2097L24.3143 30.772Z" fill="#9ED0FF"/>
<path d="M31.3414 39.3864L30.2598 30.9489L31.6552 30.7705L32.7366 39.208L31.3414 39.3864Z" fill="#73BCFF"/>
<path d="M19.1641 34.375H36.7891V35.7812H19.1641V34.375Z" fill="#9ED0FF"/>
<path d="M34.3281 22.375C34.3281 23.5703 33.9907 24.7843 33.3578 25.7969L28 34.2906V25.9375C29.9406 25.9375 31.5156 24.3156 31.5156 22.375C31.5156 20.4344 29.9406 18.8125 28 18.8125V16C31.4874 16 34.3281 18.8874 34.3281 22.375Z" fill="#FF7816"/>
<path d="M28 34.375H36.7891V35.7812H28V34.375Z" fill="#73BCFF"/>
</g>
<defs>
<clipPath id="clip0">
<rect width="24" height="24" fill="white" transform="translate(16 16)"/>
</clipPath>
</defs>
</svg>
