<svg width="32" height="32" viewBox="0 0 32 32" fill="none" xmlns="http://www.w3.org/2000/svg">
<path d="M16 0.25C9.24531 0.25 3.75 5.74531 3.75 12.5C3.75 15.7812 5.73794 19.995 9.65856 25.0236C11.4548 27.3216 13.4 29.499 15.4816 31.542C15.6212 31.6755 15.8069 31.75 16 31.75C16.1931 31.75 16.3788 31.6755 16.5184 31.542C18.6 29.499 20.5452 27.3216 22.3414 25.0236C26.2621 19.995 28.25 15.7812 28.25 12.5C28.25 5.74531 22.7547 0.25 16 0.25ZM16 21.25C11.175 21.25 7.25 17.325 7.25 12.5C7.25 7.675 11.175 3.75 16 3.75C20.825 3.75 24.75 7.675 24.75 12.5C24.75 17.325 20.825 21.25 16 21.25Z" fill="#574240"/>
<path d="M22.0045 11.4455L16.5045 6.44553C16.3665 6.32003 16.1866 6.25049 16 6.25049C15.8135 6.25049 15.6336 6.32003 15.4955 6.44553L9.99554 11.4455C9.8674 11.5621 9.78352 11.7193 9.75812 11.8906C9.73271 12.062 9.76735 12.2368 9.85616 12.3855C9.92623 12.4987 10.0244 12.5918 10.1412 12.6558C10.258 12.7197 10.3893 12.7524 10.5224 12.7505H11.25V17.5005C11.25 17.6994 11.3291 17.8902 11.4697 18.0308C11.6104 18.1715 11.8011 18.2505 12 18.2505H13.75C13.9489 18.2505 14.1397 18.1715 14.2804 18.0308C14.421 17.8902 14.5 17.6994 14.5 17.5005V14.7505C14.5 14.5516 14.5791 14.3608 14.7197 14.2201C14.8604 14.0795 15.0511 14.0005 15.25 14.0005H16.75C16.9489 14.0005 17.1397 14.0795 17.2804 14.2201C17.421 14.3608 17.5 14.5516 17.5 14.7505V17.5005C17.5 17.6994 17.579 17.8902 17.7197 18.0308C17.8604 18.1715 18.0511 18.2505 18.25 18.2505H20C20.1989 18.2505 20.3897 18.1715 20.5304 18.0308C20.671 17.8902 20.75 17.6994 20.75 17.5005V12.7505H21.4777C21.6108 12.7524 21.7421 12.7197 21.8589 12.6558C21.9756 12.5918 22.0738 12.4987 22.1439 12.3855C22.2327 12.2368 22.2674 12.062 22.2419 11.8906C22.2165 11.7193 22.1327 11.5621 22.0045 11.4455Z" fill="#574240"/>
</svg>
