<svg width="56" height="56" viewBox="0 0 56 56" fill="none" xmlns="http://www.w3.org/2000/svg">
<path d="M21.4375 18.5508C20.8799 18.5508 20.2891 18.5508 19.6982 18.6161H19.5999C8.83759 19.6334 0 29.8493 0 41.235C0 54.4587 12.2829 56.0006 21.4375 56.0006C30.5267 56.0006 41.125 54.6227 42.6016 43.7617C44.1435 31.0302 34.0374 18.5508 21.4375 18.5508Z" fill="#FF637B"/>
<path d="M42.6016 43.7617C41.125 54.6227 30.5267 56.0006 21.4375 56.0006V18.5508C34.0374 18.5508 44.1435 31.0302 42.6016 43.7617Z" fill="#E63950"/>
<path d="M32.8233 5.44696L29.5421 15.4001H13.3332L10.0519 5.44696C9.85456 4.95477 9.95326 4.39679 10.2485 3.9704C10.5766 3.54401 11.0688 3.28125 11.5939 3.28125H16.811C17.4672 1.37787 19.3048 0 21.4376 0C23.5704 0 25.3751 1.37787 26.0643 3.28125H31.2814C31.8065 3.28125 32.2987 3.54401 32.6268 3.9704C32.922 4.39679 33.0207 4.95477 32.8233 5.44696Z" fill="#FF637B"/>
<path d="M32.8232 5.44696L29.5419 15.4001H21.4375V0C23.5703 0 25.375 1.37787 26.0641 3.28125H31.2812C31.8063 3.28125 32.2985 3.54401 32.6266 3.9704C32.9219 4.39679 33.0206 4.95477 32.8232 5.44696Z" fill="#E63950"/>
<path d="M26.3262 41.7266C26.3262 43.8594 24.9812 45.6312 23.0778 46.3203V47.7969C23.0778 48.7159 22.3562 49.4375 21.4372 49.4375C20.5182 49.4375 19.7966 48.7159 19.7966 47.7969V46.3532C17.8932 45.6641 16.4824 43.8594 16.4824 41.7266C16.4824 40.808 17.2369 40.0859 18.123 40.0859C19.0421 40.0859 19.7637 40.808 19.7637 41.7266C19.7637 42.6127 20.5182 43.3672 21.4043 43.3672H21.4372C22.3562 43.3343 23.0449 42.6127 23.0449 41.7266C23.0449 40.808 22.3562 40.1188 21.4372 40.0859H21.4043C18.7139 40.0859 16.4824 37.8544 16.4824 35.1641C16.4824 32.9984 17.8936 31.1937 19.7966 30.5374V28.1094C19.7966 27.1904 20.5182 26.4688 21.4372 26.4688C22.3562 26.4688 23.0778 27.1904 23.0778 28.1094V30.5374C24.9812 31.2266 26.3262 33.0312 26.3262 35.1641C26.3262 36.0502 25.6046 36.8047 24.6855 36.8047C23.7994 36.8047 23.0449 36.0502 23.0449 35.1641C23.0449 34.2455 22.3562 33.5563 21.4372 33.5234H21.4043C20.5182 33.5234 19.7637 34.2455 19.7637 35.1641C19.7637 36.0502 20.5182 36.8047 21.4043 36.8047H21.4372C24.1609 36.8376 26.3262 39.0033 26.3262 41.7266Z" fill="#FFDA2D"/>
<path d="M56 33.0312C56 34.8359 54.5234 36.3125 52.7188 36.3125L44.4062 39.5938L36.2031 36.3125C34.3984 36.3125 32.9219 34.8359 32.9219 33.0312C32.9219 31.2266 34.3984 29.75 36.2031 29.75H52.7188C54.5234 29.75 56 31.2266 56 33.0312Z" fill="#FFDA2D"/>
<path d="M56 33.0312C56 34.8359 54.5234 36.3125 52.7188 36.3125L44.4062 39.5938V29.75H52.7188C54.5234 29.75 56 31.2266 56 33.0312Z" fill="#FDBF00"/>
<path d="M56 39.5938C56 41.3984 54.5234 42.875 52.7188 42.875L44.4062 46.1562L36.2031 42.875C34.3984 42.875 32.9219 41.3984 32.9219 39.5938C32.9219 37.7891 34.3984 36.3125 36.2031 36.3125H52.7188C54.5234 36.3125 56 37.7891 56 39.5938Z" fill="#FDBF00"/>
<path d="M56 39.5938C56 41.3984 54.5234 42.875 52.7188 42.875L44.4062 46.1562V36.3125H52.7188C54.5234 36.3125 56 37.7891 56 39.5938Z" fill="#FF9100"/>
<path d="M56 46.1562C56 47.9609 54.5234 49.4375 52.7188 49.4375L44.4062 52.7188L36.2031 49.4375C34.3984 49.4375 32.9219 47.9609 32.9219 46.1562C32.9219 44.3516 34.3984 42.875 36.2031 42.875H52.7188C54.5234 42.875 56 44.3516 56 46.1562Z" fill="#FFDA2D"/>
<path d="M56 46.1562C56 47.9609 54.5234 49.4375 52.7188 49.4375L44.4062 52.7188V42.875H52.7188C54.5234 42.875 56 44.3516 56 46.1562Z" fill="#FDBF00"/>
<path d="M56 52.7188C56 54.5234 54.5234 56 52.7188 56H36.2031C34.3984 56 32.9219 54.5234 32.9219 52.7188C32.9219 50.9141 34.3984 49.4375 36.2031 49.4375H52.7188C54.5234 49.4375 56 50.9141 56 52.7188Z" fill="#FDBF00"/>
<path d="M56 52.7188C56 54.5234 54.5234 56 52.7188 56H44.4062V49.4375H52.7188C54.5234 49.4375 56 50.9141 56 52.7188Z" fill="#FF9100"/>
<path d="M32.9219 16.5156C32.9219 18.3203 31.4453 19.7969 29.6406 19.7969H13.2344C11.4297 19.7969 9.95312 18.3203 9.95312 16.5156C9.95312 14.7109 11.4297 13.2344 13.2344 13.2344H29.6406C31.4453 13.2344 32.9219 14.7109 32.9219 16.5156Z" fill="#FFDA2D"/>
<path d="M26.3265 41.7266C26.3265 43.8594 24.9815 45.6312 23.0781 46.3203V47.7969C23.0781 48.7159 22.3565 49.4375 21.4375 49.4375V43.3672C22.3565 43.3343 23.0452 42.6127 23.0452 41.7266C23.0452 40.808 22.3565 40.1188 21.4375 40.0859V36.8047C24.1612 36.8376 26.3265 39.0033 26.3265 41.7266Z" fill="#FDBF00"/>
<path d="M26.3265 35.1641C26.3265 36.0502 25.6049 36.8047 24.6859 36.8047C23.7997 36.8047 23.0452 36.0502 23.0452 35.1641C23.0452 34.2455 22.3565 33.5563 21.4375 33.5234V26.4688C22.3565 26.4688 23.0781 27.1904 23.0781 28.1094V30.5374C24.9815 31.2266 26.3265 33.0312 26.3265 35.1641Z" fill="#FDBF00"/>
<path d="M32.9219 16.5156C32.9219 18.3203 31.4453 19.7969 29.6406 19.7969H21.4375V13.2344H29.6406C31.4453 13.2344 32.9219 14.7109 32.9219 16.5156Z" fill="#FDBF00"/>
</svg>
