<svg width="366" height="366" viewBox="0 0 366 366" fill="none" xmlns="http://www.w3.org/2000/svg">
<path d="M54.2475 277.633C64.2027 301.926 80.4348 306.982 91.8472 301.926C113.918 292.147 171.252 281.22 230.135 306.903C308.123 340.919 324.716 289.598 299.827 237.685C274.937 185.773 266.501 133.275 295.194 104.352C323.887 75.4283 286.339 30.1817 219.658 77.2802C176.566 107.717 144.942 100.94 127.96 92.3353C111.954 84.226 94.1547 75.7481 77.4781 82.3676C57.2428 90.4 49.2695 107.815 80.0565 146.719C123.684 201.85 31.9316 223.18 54.2475 277.633Z" fill="#DEE9FF"/>
<path d="M94.7812 159.293H249.715V278.446C249.715 278.689 249.618 278.921 249.447 279.093C249.275 279.264 249.042 279.361 248.8 279.361H95.6963C95.4536 279.361 95.2208 279.264 95.0492 279.093C94.8776 278.921 94.7812 278.689 94.7812 278.446V159.293Z" fill="#A2BDFF"/>
<path d="M210.847 112.598H138.806L94.7812 159.291H249.715L210.847 112.598Z" fill="#418DF9"/>
<path d="M109.457 93.9219L138.807 112.599L94.782 159.292L61.4297 133.945L109.457 93.9219Z" fill="#699CFF"/>
<path d="M240.198 93.9219L210.848 112.599L249.715 159.292L288.225 133.945L240.198 93.9219Z" fill="#699CFF"/>
<path d="M157.734 94.8767C158.562 94.484 159.206 93.7864 159.532 92.9297C159.858 92.0729 159.84 91.1234 159.482 90.2795L146.279 59.1461C146.092 58.7051 145.818 58.3065 145.473 57.9742C145.128 57.6419 144.719 57.3829 144.272 57.2126C143.824 57.0423 143.346 56.9643 142.868 56.9833C142.389 57.0023 141.919 57.1178 141.486 57.3231L138.943 58.5292C138.51 58.7344 138.123 59.0251 137.805 59.3836C137.488 59.7422 137.246 60.1612 137.095 60.6156C136.943 61.07 136.885 61.5504 136.924 62.0278C136.963 62.5052 137.098 62.9698 137.321 63.3937L153.068 93.3208C153.494 94.132 154.218 94.7469 155.088 95.0368C155.957 95.3268 156.905 95.2694 157.734 94.8767Z" fill="#418DF9"/>
<path d="M174.287 91.86C174.887 91.8173 175.446 91.5446 175.849 91.099C176.253 90.6533 176.468 90.0691 176.45 89.4684L175.798 67.3041C175.789 66.9902 175.716 66.6813 175.585 66.3962C175.453 66.111 175.265 65.8554 175.032 65.6447C174.799 65.4341 174.526 65.2727 174.229 65.1703C173.932 65.0679 173.618 65.0266 173.304 65.0488L171.463 65.18C171.15 65.2023 170.844 65.2877 170.565 65.4311C170.285 65.5744 170.038 65.7727 169.837 66.0141C169.636 66.2555 169.487 66.535 169.397 66.8359C169.307 67.1367 169.278 67.4525 169.313 67.7646L171.807 89.7978C171.875 90.3951 172.17 90.9432 172.633 91.3276C173.095 91.7119 173.688 91.9027 174.287 91.86V91.86Z" fill="#418DF9"/>
<path d="M187.067 100.052C188.716 101.005 191.031 100.131 192.314 98.0688L215.11 61.4591C216.471 59.2721 216.149 56.6065 214.4 55.5954L211.962 54.1863C210.214 53.175 207.742 54.2251 206.526 56.4963L186.168 94.5149C185.022 96.6562 185.418 99.0987 187.067 100.052Z" fill="#418DF9"/>
</svg>
