<svg width="17" height="16" viewBox="0 0 17 16" fill="none" xmlns="http://www.w3.org/2000/svg">
<g clip-path="url(#clip0_1900:6306)">
<path d="M14.526 4.37011L8.31209 2.25909L2.07227 4.37158L8.28616 6.4826L14.526 4.37011Z" fill="#73D0F4"/>
<path d="M16.398 6.7905C16.3981 6.59682 16.2737 6.42446 16.0882 6.36148L13.7853 5.57912L16.0878 4.79963C16.2732 4.73683 16.3978 4.56462 16.3979 4.37095C16.398 4.17731 16.2736 4.00495 16.0882 3.94196L8.46103 1.35084C8.36445 1.31805 8.25945 1.3179 8.16286 1.35069L0.509364 3.94189C0.323881 4.00468 0.199295 4.1769 0.199219 4.37057C0.199066 4.5642 0.323537 4.73657 0.508944 4.79955L2.81185 5.58191L0.509403 6.36136C0.323882 6.42416 0.199295 6.59637 0.199219 6.79001C0.199066 6.98368 0.323537 7.15604 0.508944 7.21903L2.81185 8.00139L0.509364 8.78084C0.32392 8.84363 0.199295 9.01581 0.199219 9.20944C0.199066 9.40312 0.323537 9.57548 0.508944 9.63846L2.81185 10.4208L0.509403 11.2003C0.323882 11.2631 0.199295 11.4353 0.199219 11.629C0.199066 11.8226 0.323537 11.995 0.508944 12.0579L8.13605 14.6491C8.18447 14.6655 8.23489 14.6737 8.28538 14.6737C8.33564 14.6737 8.38595 14.6655 8.43422 14.6492L16.0878 12.0581C16.2732 11.9953 16.3978 11.8231 16.398 11.6294C16.3981 11.4358 16.2737 11.2634 16.0882 11.2005L13.7853 10.4181L16.0878 9.63861C16.2732 9.57582 16.3978 9.40361 16.3979 9.20994C16.398 9.0163 16.2736 8.84394 16.0882 8.78095L13.7853 7.99859L16.0877 7.2191C16.2732 7.15634 16.3978 6.98413 16.398 6.7905ZM2.07168 4.37151L8.31151 2.25902L14.5254 4.37004L8.28557 6.48253L2.07168 4.37151ZM14.5254 11.6285L8.28557 13.741L2.07176 11.6299L4.22507 10.9009L8.13601 12.2296C8.18443 12.246 8.23485 12.2542 8.28534 12.2542C8.33561 12.2542 8.38591 12.2461 8.43418 12.2297L12.3716 10.8967L14.5254 11.6285ZM14.5254 9.20899L8.28557 11.3215L2.07168 9.21046L4.22507 8.48145L8.13601 9.81011C8.18443 9.82654 8.23485 9.83474 8.28534 9.83474C8.33561 9.83474 8.38591 9.82658 8.43418 9.81026L12.3715 8.47729L14.5254 9.20899ZM8.28557 8.90201L2.07176 6.79099L4.22507 6.06198L8.13601 7.39063C8.18443 7.40703 8.23485 7.41527 8.28534 7.41527C8.33561 7.41527 8.38591 7.40711 8.43418 7.39079L12.3716 6.05778L14.5254 6.78952L8.28557 8.90201Z" fill="#3D6889"/>
</g>
<defs>
<clipPath id="clip0_1900:6306">
<rect width="16.1988" height="16" fill="white" transform="translate(0.199219)"/>
</clipPath>
</defs>
</svg>
