<svg width="64" height="64" viewBox="0 0 64 64" fill="none" xmlns="http://www.w3.org/2000/svg">
<circle cx="32" cy="32" r="32" fill="#FEF6F7"/>
<g clip-path="url(#clip0)">
<path d="M45.8178 42.1819H40.7269C37.5189 42.1819 34.9088 39.5718 34.9088 36.3638C34.9088 33.1558 37.5189 30.5457 40.7269 30.5457H45.8178C46.2197 30.5457 46.545 30.2204 46.545 29.8185V27.6367C46.545 26.1116 45.3621 24.8713 43.8675 24.7511L39.6908 17.4557C39.3037 16.781 38.6787 16.2988 37.9308 16.0985C37.1865 15.8996 36.4081 16.0041 35.7419 16.3918L21.4238 24.7276H18.9091C17.3047 24.7276 16 26.0322 16 27.6367V45.0909C16 46.6953 17.3046 48 18.9091 48H43.636C45.2403 48 46.545 46.6954 46.545 45.0909V42.9091C46.545 42.5072 46.2197 42.1819 45.8178 42.1819ZM40.5927 21.9597L42.1774 24.7276H35.8386L40.5927 21.9597ZM24.3146 24.7276L36.4741 17.6489C36.803 17.4564 37.1872 17.4053 37.5544 17.5033C37.9258 17.6027 38.2355 17.8428 38.428 18.1787L38.4295 18.1814L27.1858 24.7276H24.3146Z" fill="#AF1328"/>
<path d="M45.8177 32H40.7268C38.3206 32 36.3633 33.9573 36.3633 36.3636C36.3633 38.7698 38.3206 40.7271 40.7268 40.7271H45.8177C47.0208 40.7271 47.9995 39.7485 47.9995 38.5454V34.1818C47.9995 32.9787 47.0208 32 45.8177 32ZM40.7268 37.8181C39.925 37.8181 39.2723 37.1654 39.2723 36.3636C39.2723 35.5618 39.925 34.9091 40.7268 34.9091C41.5287 34.9091 42.1813 35.5618 42.1813 36.3636C42.1814 37.1654 41.5287 37.8181 40.7268 37.8181Z" fill="#AF1328"/>
</g>
<defs>
<clipPath id="clip0">
<rect width="32" height="32" fill="white" transform="translate(16 16)"/>
</clipPath>
</defs>
</svg>
