<svg width="40" height="40" viewBox="0 0 40 40" fill="none" xmlns="http://www.w3.org/2000/svg">
<g clip-path="url(#clip0)">
<path d="M33.2986 29.5011V9.09302L0.542969 10.4977V30.9058C0.542891 31.3735 0.774297 31.841 1.23711 32.1083L14.213 39.5999C15.1359 40.1328 16.2728 40.1328 17.1956 39.5999L32.6044 30.7037C33.0673 30.4364 33.2986 29.9688 33.2986 29.5011Z" fill="url(#paint0_linear)"/>
<path d="M1.23719 9.29586L16.6459 0.399609C17.5687 -0.133203 18.7057 -0.133203 19.6285 0.399609L32.6044 7.89125C33.5299 8.42562 33.5299 9.76156 32.6044 10.2959L17.1957 19.1921C16.2728 19.7249 15.1359 19.7249 14.213 19.1921L1.23719 11.7005C0.311563 11.1662 0.311563 9.83023 1.23719 9.29586Z" fill="url(#paint1_linear)"/>
<path d="M6.23438 6.41124L22.7841 15.9662L27.1741 13.4316L10.6244 3.87671L6.23438 6.41124Z" fill="#DEA861"/>
<path d="M8.85797 4.89478L25.4077 14.4498L24.5477 14.9463L7.99805 5.39126L8.85797 4.89478Z" fill="#CC8241"/>
<path d="M22.7832 15.9662V19.5917L27.1733 17.0571V13.4316L22.7832 15.9662Z" fill="#CC8241"/>
<path d="M37.5466 13.6409L35.0873 12.221C33.9032 11.4004 32.2766 11.449 30.4943 12.5854C27.2611 14.6467 24.6503 19.6848 24.5463 24.0579C24.501 25.9603 24.9233 27.4575 25.6674 28.4464L25.6663 28.4481L29.6467 33.5377C29.7185 33.6293 29.8001 33.6979 29.8889 33.7455L32.356 35.1699L37.5466 13.6409Z" fill="url(#paint2_linear)"/>
<path d="M39.4577 18.5293C39.4577 13.8061 36.506 11.7061 32.9279 13.9873C29.6947 16.0486 27.0839 21.0868 26.9799 25.4599C26.9346 27.3622 27.3569 28.8594 28.101 29.8484L28.0999 29.85L32.0803 34.9396C32.6388 35.6536 33.7953 34.9859 34.3537 33.6271L38.3342 23.9413L38.3331 23.9409C39.0411 22.1828 39.4577 20.3011 39.4577 18.5293Z" fill="url(#paint3_linear)"/>
<path d="M37.7733 17.381L35.9374 16.3241L35.9373 16.3244C35.2127 15.9403 34.2817 15.9951 33.2661 16.5814C30.9553 17.9156 29.082 21.4949 29.082 24.576C29.082 26.2699 29.649 27.459 30.5429 27.9661L30.5423 27.9675L32.2197 28.9359L37.7733 17.381Z" fill="url(#paint4_linear)"/>
<path d="M38.3412 24.5914C39.7318 21.3277 39.3623 18.0441 37.5159 17.2574C35.6695 16.4707 33.0453 18.4786 31.6547 21.7424C30.264 25.0061 30.6336 28.2896 32.48 29.0764C34.3264 29.8631 36.9506 27.8551 38.3412 24.5914Z" fill="#F2EFFA"/>
</g>
<defs>
<linearGradient id="paint0_linear" x1="13.0863" y1="24.5463" x2="17.5859" y2="24.5463" gradientUnits="userSpaceOnUse">
<stop stop-color="#CC8241"/>
<stop offset="1" stop-color="#DEA861"/>
</linearGradient>
<linearGradient id="paint1_linear" x1="7.80164" y1="4.53094" x2="24.6523" y2="14.2597" gradientUnits="userSpaceOnUse">
<stop stop-color="#DEA861"/>
<stop offset="1" stop-color="#EBCBA0"/>
</linearGradient>
<linearGradient id="paint2_linear" x1="30.4113" y1="24.4596" x2="34.7584" y2="16.93" gradientUnits="userSpaceOnUse">
<stop stop-color="#AB2C37"/>
<stop offset="1" stop-color="#FF7A85"/>
</linearGradient>
<linearGradient id="paint3_linear" x1="26.9766" y1="28.0191" x2="42.268" y2="28.0191" gradientUnits="userSpaceOnUse">
<stop stop-color="#FF4757"/>
<stop offset="1" stop-color="#FF7A85"/>
</linearGradient>
<linearGradient id="paint4_linear" x1="33.0272" y1="21.3654" x2="34.7468" y2="18.3869" gradientUnits="userSpaceOnUse">
<stop stop-color="#C5BAEB"/>
<stop offset="1" stop-color="#D7D1EB"/>
</linearGradient>
<clipPath id="clip0">
<rect width="40" height="40" fill="white"/>
</clipPath>
</defs>
</svg>
