<svg width="80" height="64" viewBox="0 0 80 64" fill="none" xmlns="http://www.w3.org/2000/svg">
<path d="M74.9206 0.890625H5.07945C2.27436 0.890625 0 3.16484 0 5.96993V58.0336C0 60.8385 2.27436 63.1127 5.07945 63.1127H74.9206C77.7258 63.1127 80.0002 60.8385 80.0002 58.0334V5.96993C80.0002 3.16484 77.7259 0.890625 74.9206 0.890625ZM74.9206 5.96993V42.9108L64.9104 33.8099C63.4058 32.4423 61.0921 32.4969 59.6546 33.9357L49.5236 44.0651L29.548 20.2048C28.0381 18.4016 25.2723 18.3839 23.7397 20.1654L5.07945 41.8519V5.96993H74.9206ZM53.3335 19.3033C53.3335 15.4455 56.4596 12.3191 60.3174 12.3191C64.1753 12.3191 67.3015 15.4455 67.3015 19.3033C67.3015 23.1611 64.1755 26.2873 60.3174 26.2873C56.4597 26.2874 53.3335 23.1611 53.3335 19.3033Z" fill="#BFA5A3"/>
</svg>
