<svg width="56" height="56" viewBox="0 0 56 56" fill="none" xmlns="http://www.w3.org/2000/svg">
<g clip-path="url(#clip0_1708_6024)">
<path d="M33.7422 39.5938H12.5167L8.3125 42.875H5.03125C4.12519 42.875 3.39062 43.6096 3.39062 44.5156V47.7969C3.39062 48.7029 4.12519 49.4375 5.03125 49.4375H8.3125L12.4141 52.7188H34.6651L37.8438 49.4375V42.875L33.7422 39.5938Z" fill="#FED843"/>
<path d="M24.7188 52.7188H34.6651L37.8438 49.4375V42.875L33.7422 39.5938H24.7188" fill="#FABE2C"/>
<path d="M24.7188 49.4375H8.3125C7.40644 49.4375 6.67188 50.1721 6.67188 51.0781V54.3594C6.67188 55.2654 7.40644 56 8.3125 56H37.8438V49.4375H24.7188Z" fill="#FABE2C"/>
<path d="M24.7188 49.4375H37.8438V56H24.7188V49.4375Z" fill="#FF9100"/>
<path d="M34.2549 33.0312H12.9268L8.3125 36.3125C7.40644 36.3125 6.67188 37.0471 6.67188 37.9531V41.2344C6.67188 42.1404 7.40644 42.875 8.3125 42.875H37.8438V36.3125L34.2549 33.0312Z" fill="#FABE2C"/>
<path d="M37.8438 36.3125L34.2549 33.0312H24.7188V42.875H37.8438V36.3125Z" fill="#FABE2C"/>
<path d="M33.6397 26.4688H16.5152L11.5938 29.75H5.03125C4.12519 29.75 3.39062 30.4846 3.39062 31.3906V34.6719C3.39062 35.5779 4.12519 36.3125 5.03125 36.3125H37.8438V29.75L33.6397 26.4688Z" fill="#FED843"/>
<path d="M37.8438 29.75L33.6397 26.4688H24.7188V36.3125H37.8438V29.75Z" fill="#FABE2C"/>
<path d="M37.8438 23.1875H11.5938C10.6877 23.1875 9.95312 23.9221 9.95312 24.8281V28.1094C9.95312 29.0154 10.6877 29.75 11.5938 29.75H37.8438C38.7498 29.75 39.4844 29.0154 39.4844 28.1094V24.8281C39.4844 23.9221 38.7498 23.1875 37.8438 23.1875Z" fill="#FABE2C"/>
<path d="M39.4844 28.1094V24.8281C39.4844 23.9221 38.7498 23.1875 37.8438 23.1875H24.7188V29.75H37.8438C38.7498 29.75 39.4844 29.0154 39.4844 28.1094Z" fill="#FF9100"/>
<path d="M37.8438 56C45.9986 56 52.6094 49.3892 52.6094 41.2344C52.6094 33.0795 45.9986 26.4688 37.8438 26.4688C29.6889 26.4688 23.0781 33.0795 23.0781 41.2344C23.0781 49.3892 29.6889 56 37.8438 56Z" fill="#FED843"/>
<path d="M52.6094 41.2344C52.6094 33.0795 45.9986 26.4688 37.8438 26.4688V56C45.9986 56 52.6094 49.3893 52.6094 41.2344Z" fill="#FABE2C"/>
<path d="M41.0067 40.4575C40.1309 39.9901 39.1204 39.8027 38.1431 39.6213C37.4112 39.4855 36.6542 39.3451 36.2261 39.1167C36.0078 39.0001 36.0078 38.9699 36.0078 38.7734C36.0078 38.6572 36.197 38.445 36.5588 38.2641C37.4546 37.8163 38.7179 37.8529 39.3751 38.3459C40.1002 38.8896 41.1283 38.7426 41.672 38.0178C42.2157 37.2929 42.0688 36.2646 41.3439 35.7209C40.8043 35.3162 40.1676 35.027 39.4845 34.855V34.4531C39.4845 33.5471 38.75 32.8125 37.8439 32.8125C36.9378 32.8125 36.2033 33.5471 36.2033 34.4531V34.9041C35.8211 35.0101 35.4477 35.151 35.0915 35.3292C33.5885 36.0806 32.7266 37.336 32.7266 38.7734C32.7266 40.2092 33.4025 41.3289 34.6812 42.0114C35.5569 42.4787 36.5674 42.6662 37.5446 42.8475C38.2767 42.9834 39.0336 43.1237 39.4617 43.3522C39.68 43.4687 39.68 43.499 39.68 43.6953C39.68 43.8077 39.4858 44.0242 39.1261 44.2041C38.2311 44.6517 36.9689 44.6152 36.3126 44.123C35.5878 43.5793 34.5595 43.7264 34.0158 44.4511C33.4721 45.176 33.6191 46.2044 34.3439 46.748C34.8834 47.1527 35.5203 47.4416 36.2033 47.6136V48.0156C36.2033 48.9217 36.9378 49.6562 37.8439 49.6562C38.75 49.6562 39.4845 48.9217 39.4845 48.0156V47.5623C39.8657 47.4564 40.2382 47.3166 40.5936 47.1389C42.0983 46.3865 42.9612 45.1314 42.9612 43.6952C42.9612 42.2597 42.2853 41.14 41.0067 40.4575Z" fill="#FABE2C"/>
<path d="M39.375 38.3459C40.1 38.8896 41.1282 38.7426 41.6719 38.0178C42.2156 37.2929 42.0687 36.2646 41.3437 35.7209C40.8042 35.3162 40.1674 35.027 39.4844 34.855V34.4531C39.4844 33.5471 38.7498 32.8125 37.8438 32.8125V37.9532C38.4308 37.9332 39.001 38.0653 39.375 38.3459Z" fill="#FF9100"/>
<path d="M39.4844 48.0168V47.5635C39.8655 47.4576 40.2381 47.3178 40.5934 47.1401C42.0981 46.3877 42.9611 45.1326 42.9611 43.6964C42.9611 42.2606 42.2851 41.141 41.0065 40.4585C40.1308 39.9911 39.1203 39.8036 38.143 39.6223C38.0434 39.6038 37.9434 39.5852 37.8438 39.5664V42.9045C38.4764 43.0243 39.0917 43.1559 39.4615 43.3533C39.6798 43.4698 39.6798 43.5001 39.6798 43.6964C39.6798 43.8088 39.4857 44.0253 39.126 44.2052C38.7407 44.3978 38.2875 44.5003 37.8438 44.5157V49.6575C38.7498 49.6575 39.4844 48.923 39.4844 48.0168Z" fill="#FF9100"/>
<path d="M32.4415 7.0432L25.879 0.480703C25.5586 0.160234 25.1388 0 24.7191 0C24.2993 0 23.8795 0.160234 23.5591 0.480703L16.9966 7.0432C16.5272 7.51264 16.3862 8.21756 16.6409 8.83127C16.894 9.44486 17.4933 9.84375 18.1566 9.84375H19.7972V14.9844C19.7972 15.8912 20.531 16.625 21.4378 16.625H28.0003C28.9071 16.625 29.6409 15.8912 29.6409 14.9844V9.84375H31.2815C31.9448 9.84375 32.5441 9.44486 32.7972 8.83116C33.052 8.21756 32.9109 7.51264 32.4415 7.0432Z" fill="#91EB90"/>
<path d="M29.6406 14.9844V9.84375H31.2813C31.9445 9.84375 32.5438 9.44486 32.7969 8.83116C33.0516 8.21756 32.9106 7.51253 32.4412 7.04309L25.8787 0.480594C25.5583 0.160234 25.1385 0 24.7188 0V16.625H28C28.9068 16.625 29.6406 15.8912 29.6406 14.9844Z" fill="#00CBB1"/>
</g>
<defs>
<clipPath id="clip0_1708_6024">
<rect width="56" height="56" fill="white"/>
</clipPath>
</defs>
</svg>
