<svg width="56" height="56" viewBox="0 0 56 56" fill="none" xmlns="http://www.w3.org/2000/svg">
<path d="M45.9058 17.9347V42.3286H5.25V17.9347L25.5784 5.73828L45.9058 17.9347Z" fill="#FFA001"/>
<path d="M45.9055 17.9347V42.3286H25.5781V5.73828L45.9055 17.9347Z" fill="#F87F02"/>
<path d="M0 17.9352L5.2465 5.73828H25.5747L20.3282 17.9352H0Z" fill="#FFDA2D"/>
<path d="M51.1527 17.9352L45.9062 5.73828H25.5781L30.8246 17.9352H51.1527Z" fill="#FCBE00"/>
<path d="M11.7812 32.1074H15.0625V35.3887H11.7812V32.1074Z" fill="#FFDA2D"/>
<path d="M56.0002 38.2643C56.0002 44.8913 50.6277 50.2638 44.0006 50.2638C37.3725 50.2638 32 44.8913 32 38.2643C32 31.6362 37.3725 26.2637 44.0006 26.2637C50.6277 26.2637 56.0002 31.6361 56.0002 38.2643Z" fill="#83E470"/>
<path d="M55.9995 38.2643C55.9995 44.8913 50.627 50.2638 44 50.2638V26.2637C50.627 26.2637 55.9995 31.6361 55.9995 38.2643Z" fill="#01B763"/>
<path d="M50.2783 36.3198L43.9991 42.599L42.9108 43.6873L37.7188 38.4952L40.0397 36.1754L42.9108 39.0465L43.9991 37.9583L47.9573 34L50.2783 36.3198Z" fill="#F3FDFF"/>
<path d="M50.2792 36.3198L44 42.599V37.9583L47.9583 34L50.2792 36.3198Z" fill="#D7F3F7"/>
</svg>
