<svg width="56" height="56" viewBox="0 0 56 56" fill="none" xmlns="http://www.w3.org/2000/svg">
<rect x="0.5" y="0.5" width="55" height="55" rx="4.5" fill="white" stroke="#574240"/>
<g clip-path="url(#clip0)">
<path d="M39.6593 13.4447C38.9233 13.4447 38.326 14.042 38.326 14.778V15.8893C35.462 13.392 31.8093 12 27.9167 12C19.14 12 12 19.166 12 27.9733C12 28.7093 12.5973 29.3067 13.3333 29.3067C14.0693 29.3067 14.6667 28.7093 14.6667 27.9733C14.6667 20.636 20.6107 14.6667 27.9167 14.6667C31.1213 14.6667 34.132 15.8013 36.5053 17.8393H35.2833C34.5473 17.8393 33.95 18.4367 33.95 19.1727C33.95 19.9087 34.5473 20.506 35.2833 20.506H39.6593C40.3953 20.506 40.9927 19.9087 40.9927 19.1727V14.778C40.9927 14.042 40.3953 13.4447 39.6593 13.4447Z" fill="black"/>
<path d="M42.6671 26.6929C41.9311 26.6929 41.3338 27.2902 41.3338 28.0262C41.3338 35.3635 35.3898 41.3329 28.0838 41.3329C24.9164 41.3329 21.9378 40.2262 19.5778 38.2329H20.8584C21.5944 38.2329 22.1918 37.6355 22.1918 36.8995C22.1918 36.1635 21.5944 35.5662 20.8584 35.5662H16.4818C16.4698 35.5662 16.4591 35.5695 16.4478 35.5695C16.3971 35.5709 16.3471 35.5775 16.2964 35.5849C16.2591 35.5902 16.2218 35.5935 16.1851 35.6022C16.1411 35.6122 16.0978 35.6282 16.0544 35.6429C16.0144 35.6569 15.9738 35.6689 15.9351 35.6862C15.8984 35.7029 15.8638 35.7242 15.8284 35.7442C15.7864 35.7682 15.7451 35.7915 15.7058 35.8195C15.6958 35.8269 15.6844 35.8309 15.6744 35.8389C15.6518 35.8562 15.6344 35.8775 15.6131 35.8962C15.5778 35.9269 15.5424 35.9575 15.5104 35.9922C15.4804 36.0242 15.4544 36.0575 15.4284 36.0915C15.4024 36.1255 15.3771 36.1595 15.3538 36.1955C15.3304 36.2329 15.3104 36.2715 15.2911 36.3102C15.2718 36.3482 15.2538 36.3869 15.2384 36.4269C15.2231 36.4682 15.2111 36.5095 15.1998 36.5522C15.1891 36.5929 15.1778 36.6335 15.1711 36.6755C15.1631 36.7229 15.1598 36.7702 15.1564 36.8182C15.1544 36.8455 15.1484 36.8722 15.1484 36.9002V41.2949C15.1484 42.0309 15.7458 42.6282 16.4818 42.6282C17.2178 42.6282 17.8151 42.0309 17.8151 41.2949V40.2349C20.6571 42.6542 24.2551 43.9995 28.0838 43.9995C36.8604 43.9995 44.0004 36.8335 44.0004 28.0262C44.0004 27.2902 43.4031 26.6929 42.6671 26.6929Z" fill="black"/>
</g>
<path d="M32.1332 24.385L27.9632 34H26.2382L30.4532 24.565H24.9032V23.11H32.1332V24.385Z" fill="black"/>
<defs>
<clipPath id="clip0">
<rect width="32" height="32" fill="white" transform="translate(12 12)"/>
</clipPath>
</defs>
</svg>
