<svg width="20" height="12" viewBox="0 0 20 12" fill="none" xmlns="http://www.w3.org/2000/svg">
<path d="M19.92 0.585273C19.8186 0.35461 19.6245 0.17131 19.3802 0.075519C19.26 0.0271481 19.1309 0.00149149 19.0003 0H14.0017C13.7366 0 13.4823 0.0994558 13.2948 0.276488C13.1074 0.45352 13.002 0.693627 13.002 0.943988C13.002 1.19435 13.1074 1.43446 13.2948 1.61149C13.4823 1.78852 13.7366 1.88798 14.0017 1.88798H16.591L11.0026 7.16487L7.71356 4.04971C7.62063 3.96123 7.51006 3.891 7.38823 3.84308C7.26641 3.79515 7.13574 3.77048 7.00377 3.77048C6.87179 3.77048 6.74113 3.79515 6.6193 3.84308C6.49748 3.891 6.38691 3.96123 6.29397 4.04971L0.295713 9.71364C0.202011 9.8014 0.127639 9.9058 0.0768846 10.0208C0.0261307 10.1359 0 10.2593 0 10.3839C0 10.5085 0.0261307 10.6319 0.0768846 10.7469C0.127639 10.8619 0.202011 10.9663 0.295713 11.0541C0.388649 11.1426 0.499218 11.2128 0.621042 11.2607C0.742866 11.3087 0.873533 11.3333 1.00551 11.3333C1.13748 11.3333 1.26815 11.3087 1.38997 11.2607C1.5118 11.2128 1.62237 11.1426 1.7153 11.0541L7.00377 6.05097L10.2928 9.16613C10.3858 9.25461 10.4963 9.32483 10.6181 9.37276C10.74 9.42068 10.8706 9.44536 11.0026 9.44536C11.1346 9.44536 11.2653 9.42068 11.3871 9.37276C11.5089 9.32483 11.6195 9.25461 11.7124 9.16613L18.0006 3.219V5.66393C18.0006 5.91429 18.1059 6.1544 18.2934 6.33143C18.4809 6.50846 18.7352 6.60792 19.0003 6.60792C19.2654 6.60792 19.5197 6.50846 19.7072 6.33143C19.8947 6.1544 20 5.91429 20 5.66393V0.943988C19.9984 0.820631 19.9713 0.698761 19.92 0.585273Z" fill="#009D19"/>
</svg>
