<svg width="53" height="50" viewBox="0 0 53 50" fill="none" xmlns="http://www.w3.org/2000/svg">
<path d="M45.1126 0.974177L31.6376 2.98668C30.154 3.20797 28.7808 3.89996 27.7202 4.96068L1.50956 31.1678C1.18454 31.4928 0.926717 31.8787 0.750814 32.3033C0.574911 32.728 0.484375 33.1831 0.484375 33.6427C0.484375 34.1024 0.574911 34.5575 0.750814 34.9822C0.926717 35.4068 1.18454 35.7927 1.50956 36.1177L13.8838 48.4919C14.2088 48.817 14.5947 49.0748 15.0193 49.2507C15.444 49.4266 15.8991 49.5171 16.3588 49.5171C16.8184 49.5171 17.2735 49.4266 17.6982 49.2507C18.1228 49.0748 18.5087 48.817 18.8337 48.4919L45.0557 22.2699C46.1084 21.2172 46.798 19.8563 47.0244 18.3849L48.0744 11.5722L49.0903 4.96855C49.1739 4.42633 49.1288 3.87206 48.9587 3.35047C48.7886 2.82888 48.4983 2.35458 48.1112 1.96584C47.724 1.5771 47.251 1.28481 46.7301 1.11255C46.2092 0.94029 45.6551 0.892892 45.1126 0.974177ZM44.2017 9.5133C43.7595 9.96185 43.1718 10.2379 42.5443 10.2916C41.9167 10.3454 41.2906 10.1734 40.7786 9.80657C40.2666 9.43977 39.9023 8.90225 39.7514 8.29077C39.6004 7.67929 39.6727 7.034 39.9552 6.47106C40.2376 5.90813 40.7118 5.4645 41.2923 5.22005C41.8727 4.9756 42.5214 4.94637 43.1215 5.13762C43.7216 5.32888 44.2337 5.72805 44.5657 6.2633C44.8976 6.79855 45.0277 7.43472 44.9323 8.0573C44.8493 8.60784 44.5935 9.11773 44.2017 9.5133Z" fill="#ED1C24"/>
<path d="M47.223 1.32422L46.32 7.19984L45.27 14.0126C45.0436 15.484 44.354 16.8449 43.3013 17.8976L17.081 44.117C16.756 44.442 16.3702 44.6998 15.9455 44.8757C15.5209 45.0516 15.0657 45.1422 14.6061 45.1422C14.1464 45.1422 13.6913 45.0516 13.2667 44.8757C12.842 44.6998 12.4562 44.442 12.1312 44.117L0.646775 32.6335C0.460551 33.2376 0.442216 33.8811 0.593735 34.4949C0.745254 35.1086 1.06092 35.6696 1.5069 36.1177L13.8812 48.492C14.2062 48.817 14.592 49.0748 15.0167 49.2507C15.4413 49.4266 15.8964 49.5172 16.3561 49.5172C16.8157 49.5172 17.2709 49.4266 17.6955 49.2507C18.1202 49.0748 18.506 48.817 18.831 48.492L45.053 22.27C46.1057 21.2173 46.7953 19.8564 47.0218 18.385L48.0718 11.5722L49.0877 4.96859C49.1987 4.2423 49.0784 3.49947 48.7437 2.84537C48.409 2.19127 47.877 1.65908 47.223 1.32422Z" fill="#CF1820"/>
<path d="M18.2128 34.2619C17.969 34.0181 17.6796 33.8247 17.3611 33.6928C17.0426 33.5608 16.7012 33.4929 16.3564 33.4929C16.0117 33.4929 15.6703 33.5608 15.3518 33.6928C15.0333 33.8247 14.7439 34.0181 14.5001 34.2619L13.2629 35.4991C13.1816 35.5805 13.0851 35.645 12.9789 35.6891C12.8727 35.7331 12.7588 35.7558 12.6438 35.7558C12.5288 35.7558 12.415 35.7331 12.3087 35.6891C12.2025 35.645 12.106 35.5805 12.0248 35.4991L10.7875 34.2619C10.7061 34.1806 10.6416 34.0841 10.5976 33.9779C10.5535 33.8717 10.5309 33.7578 10.5309 33.6428C10.5309 33.5278 10.5535 33.414 10.5976 33.3078C10.6416 33.2015 10.7061 33.105 10.7875 33.0238L13.262 30.5493C13.4214 30.3843 13.5096 30.1632 13.5076 29.9338C13.5056 29.7044 13.4136 29.4849 13.2513 29.3227C13.0891 29.1605 12.8697 29.0684 12.6402 29.0664C12.4108 29.0644 12.1898 29.1526 12.0248 29.312L9.55025 31.7874C9.30645 32.0312 9.11306 32.3206 8.98111 32.6391C8.84916 32.9576 8.78125 33.299 8.78125 33.6437C8.78125 33.9885 8.84916 34.3298 8.98111 34.6484C9.11306 34.9669 9.30645 35.2563 9.55025 35.5L10.7875 36.7373C11.0313 36.9811 11.3207 37.1745 11.6392 37.3064C11.9577 37.4384 12.2991 37.5063 12.6438 37.5063C12.9886 37.5063 13.33 37.4384 13.6485 37.3064C13.967 37.1745 14.2564 36.9811 14.5001 36.7373L15.7374 35.5C15.8186 35.4187 15.9151 35.3541 16.0214 35.3101C16.1276 35.2661 16.2415 35.2434 16.3564 35.2434C16.4714 35.2434 16.5853 35.2661 16.6915 35.3101C16.7977 35.3541 16.8942 35.4187 16.9755 35.5L18.2128 36.7364C18.2941 36.8177 18.3586 36.9142 18.4027 37.0204C18.4467 37.1266 18.4694 37.2405 18.4694 37.3555C18.4694 37.4704 18.4467 37.5843 18.4027 37.6905C18.3586 37.7968 18.2941 37.8933 18.2128 37.9745L15.7383 40.4499C15.6547 40.5306 15.588 40.6272 15.5422 40.7339C15.4963 40.8407 15.4722 40.9555 15.4712 41.0717C15.4701 41.1878 15.4923 41.3031 15.5363 41.4106C15.5803 41.5181 15.6453 41.6158 15.7274 41.698C15.8096 41.7801 15.9073 41.8451 16.0148 41.8891C16.1223 41.9331 16.2375 41.9552 16.3537 41.9542C16.4699 41.9532 16.5847 41.9291 16.6915 41.8832C16.7982 41.8374 16.8948 41.7707 16.9755 41.6871L19.4509 39.2126C19.6947 38.9689 19.8881 38.6795 20.02 38.361C20.152 38.0425 20.2199 37.7011 20.2199 37.3563C20.2199 37.0116 20.152 36.6702 20.02 36.3517C19.8881 36.0332 19.6947 35.7438 19.4509 35.5L18.2128 34.2619Z" fill="#F1F2F2"/>
<path d="M28.2029 28.9256L18.9218 23.357C18.7545 23.2567 18.5586 23.2152 18.365 23.239C18.1714 23.2627 17.9914 23.3505 17.8534 23.4883L16.6152 24.7264C16.4774 24.8644 16.3897 25.0445 16.3659 25.238C16.3421 25.4316 16.3837 25.6276 16.484 25.7948L22.0525 35.0759C22.1117 35.1745 22.1897 35.2604 22.2821 35.3288C22.3744 35.3972 22.4794 35.4467 22.5909 35.4745C22.7024 35.5023 22.8183 35.5079 22.932 35.491C23.0457 35.474 23.1549 35.4348 23.2534 35.3756C23.352 35.3165 23.4379 35.2384 23.5063 35.1461C23.5747 35.0537 23.6242 34.9487 23.652 34.8372C23.6798 34.7257 23.6854 34.6098 23.6685 34.4961C23.6515 34.3824 23.6123 34.2732 23.5531 34.1747L22.0481 31.6669L24.7939 28.9212L27.3016 30.4262C27.4002 30.4854 27.5094 30.5245 27.6231 30.5415C27.7368 30.5585 27.8527 30.5529 27.9642 30.5251C28.0757 30.4972 28.1806 30.4477 28.273 30.3793C28.3654 30.3109 28.4434 30.225 28.5026 30.1265C28.5618 30.028 28.6009 29.9187 28.6179 29.8051C28.6349 29.6914 28.6293 29.5755 28.6015 29.464C28.5736 29.3524 28.5241 29.2475 28.4557 29.1551C28.3873 29.0627 28.3014 28.9847 28.2029 28.9256ZM21.1198 30.1208L18.3355 25.4833L18.6068 25.212L23.2443 27.9963L21.1198 30.1208Z" fill="#F1F2F2"/>
<path d="M33.576 22.6136L30.482 25.7076L23.6763 18.9019C23.5955 18.8183 23.499 18.7517 23.3922 18.7058C23.2855 18.6599 23.1707 18.6358 23.0545 18.6348C22.9383 18.6338 22.8231 18.6559 22.7155 18.6999C22.608 18.7439 22.5103 18.8089 22.4282 18.891C22.346 18.9732 22.281 19.0709 22.237 19.1784C22.193 19.286 22.1709 19.4012 22.1719 19.5174C22.1729 19.6336 22.1971 19.7484 22.2429 19.8551C22.2888 19.9619 22.3554 20.0584 22.439 20.1391L29.8634 27.5635C30.0275 27.7276 30.25 27.8197 30.482 27.8197C30.714 27.8197 30.9365 27.7276 31.1006 27.5635L34.8132 23.8509C34.9726 23.6859 35.0608 23.4648 35.0588 23.2354C35.0568 23.006 34.9648 22.7865 34.8026 22.6243C34.6404 22.4621 34.4209 22.37 34.1915 22.3681C33.962 22.3661 33.741 22.4543 33.576 22.6136Z" fill="#F1F2F2"/>
<path d="M39.3996 16.7872L36.9242 19.2626L34.4497 16.7872L35.6869 15.55C35.8463 15.3849 35.9345 15.1639 35.9325 14.9345C35.9305 14.7051 35.8385 14.4856 35.6763 14.3234C35.514 14.1611 35.2946 14.0691 35.0652 14.0671C34.8357 14.0651 34.6147 14.1533 34.4497 14.3127L33.2124 15.55L30.7371 13.0755L33.2124 10.6001C33.296 10.5194 33.3627 10.4228 33.4085 10.3161C33.4544 10.2093 33.4785 10.0945 33.4795 9.97831C33.4805 9.86212 33.4584 9.74691 33.4144 9.63937C33.3704 9.53184 33.3054 9.43414 33.2233 9.35199C33.1411 9.26983 33.0434 9.20486 32.9359 9.16086C32.8284 9.11687 32.7131 9.09473 32.597 9.09574C32.4808 9.09675 32.366 9.12088 32.2592 9.16674C32.1525 9.2126 32.0559 9.27926 31.9752 9.36283L28.8812 12.4568C28.7172 12.6209 28.625 12.8434 28.625 13.0755C28.625 13.3075 28.7172 13.53 28.8812 13.6941L36.3056 21.1185C36.4696 21.2825 36.6922 21.3746 36.9242 21.3746C37.1562 21.3746 37.3787 21.2825 37.5428 21.1185L40.6368 18.0245C40.7204 17.9437 40.787 17.8472 40.8329 17.7404C40.8788 17.6337 40.9029 17.5189 40.9039 17.4027C40.9049 17.2865 40.8828 17.1713 40.8388 17.0637C40.7948 16.9562 40.7298 16.8585 40.6477 16.7764C40.5655 16.6942 40.4678 16.6292 40.3603 16.5852C40.2527 16.5412 40.1375 16.5191 40.0213 16.5201C39.9052 16.5211 39.7903 16.5453 39.6836 16.5911C39.5768 16.637 39.4803 16.7036 39.3996 16.7872Z" fill="#F1F2F2"/>
<path d="M48.2751 10.2449L49.0871 4.9686C49.1983 4.24249 49.0782 3.4998 48.7439 2.84573C48.4095 2.19165 47.8779 1.65935 47.2242 1.32422L46.3212 7.19985L46.2109 7.9156C47.0117 8.58431 47.7075 9.36949 48.2751 10.2449Z" fill="#CF1820"/>
<path d="M48.8334 11.1375C48.6584 10.8234 48.4686 10.532 48.2796 10.2476C47.713 9.37052 47.0177 8.58356 46.2172 7.91312C45.223 7.03771 43.9538 6.53778 42.6297 6.5C42.3976 6.5 42.1751 6.59219 42.011 6.75628C41.8469 6.92038 41.7547 7.14294 41.7547 7.375C41.7547 7.60706 41.8469 7.82962 42.011 7.99372C42.1751 8.15781 42.3976 8.25 42.6297 8.25C43.2664 8.29808 43.886 8.4795 44.4481 8.78249C45.0102 9.08548 45.5023 9.50327 45.8926 10.0088C46.4379 10.6188 46.9144 11.2869 47.3136 12.0011C47.5017 12.3301 47.6749 12.6897 47.8482 13.0511C49.5422 16.5503 50.5047 21.4056 50.5047 26.625C50.5047 36.5851 46.8979 45 42.6297 45C39.4018 45 36.3603 39.9932 35.2342 32.8244C35.2228 32.7517 35.1931 32.4989 35.1519 32.1769L33.6172 33.7125C34.9971 41.6505 38.4979 46.75 42.6297 46.75C48.0267 46.75 52.2547 37.9125 52.2547 26.625C52.2547 20.5744 51.0069 14.9271 48.8334 11.1375Z" fill="#FFCD00"/>
</svg>
