<svg width="17" height="16" viewBox="0 0 17 16" fill="none" xmlns="http://www.w3.org/2000/svg">
<g clip-path="url(#clip0_1900:6272)">
<path d="M5.78497 11.1724C8.8699 11.1724 11.3707 8.70229 11.3707 5.65522C11.3707 2.60814 8.8699 0.138 5.78497 0.138C2.70005 0.138 0.199219 2.60814 0.199219 5.65522C0.199219 8.70229 2.70005 11.1724 5.78497 11.1724Z" fill="#F15A24"/>
<path d="M5.84473 10.3685C5.8572 10.511 5.97782 10.6205 6.12263 10.6207C6.13073 10.6211 6.13882 10.6211 6.14692 10.6207C6.30053 10.6075 6.41431 10.4739 6.40108 10.3222C6.29373 9.05539 5.76615 7.85901 4.90018 6.9186L5.78441 6.04523L6.7041 6.95364C6.81505 7.05946 6.99187 7.05643 7.09902 6.94684C7.20354 6.83995 7.20354 6.67047 7.09902 6.56357L6.17932 5.65516L7.06662 4.77875C7.40058 5.07868 7.76819 5.33985 8.16226 5.55723C8.29716 5.63126 8.46728 5.5833 8.54224 5.45006C8.61719 5.31682 8.56863 5.14878 8.43373 5.07475C8.08476 4.88254 7.75883 4.6521 7.46209 4.38786L9.92206 1.95862C9.79694 1.82197 9.66529 1.69197 9.52714 1.56856L7.06662 3.99999C6.2755 3.13341 5.80082 2.03021 5.71822 0.866215L5.66795 0.173804C5.66596 0.16377 5.66327 0.153908 5.65985 0.144287C5.47608 0.148149 5.29426 0.160011 5.11496 0.181252C5.113 0.191735 5.1116 0.202321 5.11077 0.212976L5.16104 0.905387C5.25324 2.20142 5.78528 3.42882 6.67115 4.38923L5.78441 5.26509L2.04195 1.56801C1.90343 1.69159 1.77171 1.8218 1.64676 1.95862L5.3895 5.65516L4.50499 6.52881C3.53174 5.65416 2.28829 5.1293 0.975633 5.03916L0.274621 4.98978C0.263833 4.99047 0.253116 4.99185 0.242503 4.99392C0.220998 5.17075 0.208988 5.35006 0.205078 5.53157C0.214888 5.53488 0.224838 5.53764 0.234962 5.53985L0.935974 5.58923C2.11415 5.67061 3.23095 6.13885 4.10868 6.91943L1.64676 9.3517C1.77188 9.48814 1.90353 9.61818 2.04167 9.74176L4.50499 7.31033C5.2774 8.15805 5.74793 9.23204 5.84473 10.3685Z" fill="black"/>
<path d="M6.46848 10.3448C5.85178 7.67094 7.54636 5.00953 10.2535 4.4004C12.9606 3.79126 15.655 5.46505 16.2717 8.13893C16.8884 10.8128 15.1938 13.4742 12.4867 14.0833C12.3029 14.1247 12.117 14.1558 11.9297 14.1765" fill="#E6E6E6"/>
<path d="M16.3629 8.67446C16.2733 7.89025 15.9947 7.1387 15.5505 6.48274C15.4171 6.28888 15.2701 6.10454 15.1106 5.93102H14.7224C14.5977 5.93112 14.4882 6.01285 14.454 6.13129L13.9286 7.94673L13.0746 8.37735L11.6502 7.43943V6.3506L13.207 5.27474C13.3036 5.20792 13.3473 5.08837 13.3162 4.97599L13.2198 4.62785C12.0403 4.16896 10.729 4.16572 9.54718 4.61875L9.43044 4.96054C9.39078 5.07657 9.43333 5.2045 9.53489 5.27474L11.0916 6.3506V7.4386L9.66252 8.37956L8.51354 7.92549L7.99965 6.65653C7.97409 6.59377 7.92623 6.54236 7.86503 6.51198L7.35701 6.26205C6.76146 7.04115 6.41389 7.97756 6.35855 8.95225C6.35297 9.0488 6.34375 9.14535 6.34375 9.24245C6.34375 9.34783 6.34794 9.45238 6.35436 9.55611L6.77748 9.76521C6.88501 9.81821 7.01484 9.79735 7.09978 9.71335L8.36607 8.46287L9.46451 8.8968L9.98538 10.6973C10.02 10.8154 10.1294 10.8966 10.2538 10.8965H12.3725L12.9869 11.5034L12.239 12.9809C12.19 13.0776 12.2028 13.1937 12.2716 13.2777L12.8512 13.9862C14.069 13.6193 15.0984 12.8057 15.7278 11.7125L15.5323 11.3249C15.4848 11.231 15.3873 11.1718 15.281 11.1724H13.4416L12.8017 10.5404L13.2765 8.89487L14.144 8.45708L15.6834 9.47087C15.7666 9.52563 15.8731 9.53225 15.9627 9.48825L16.3948 9.27473C16.3948 9.26342 16.3964 9.25266 16.3964 9.24135C16.3961 9.0519 16.385 8.86266 16.3629 8.67446Z" fill="#1A1A1A"/>
<path d="M1.29573 13.7782L2.19419 14.4436C3.43685 15.3644 4.94846 15.8621 6.50193 15.8621H7.30125C8.85472 15.8621 10.3663 15.3644 11.609 14.4436L12.5075 13.7782C12.7543 13.5954 12.8043 13.2496 12.6192 13.0058C12.5985 12.9786 12.5753 12.9533 12.5499 12.9302L11.7534 12.2088C10.4291 11.0099 8.69797 10.3449 6.90159 10.3448C5.10521 10.3449 3.37408 11.0099 2.0498 12.2088L1.25327 12.9302C1.02593 13.1362 1.01068 13.4852 1.2192 13.7097C1.24252 13.7349 1.26811 13.7578 1.29573 13.7782Z" fill="#FF902A"/>
<path d="M9.41582 13.3793H3.83007C3.67583 13.3793 3.55078 13.2558 3.55078 13.1034C3.55078 12.9511 3.67583 12.8276 3.83007 12.8276H9.41582C9.57006 12.8276 9.69511 12.9511 9.69511 13.1034C9.69511 13.2558 9.57006 13.3793 9.41582 13.3793Z" fill="#42210B"/>
<path d="M4.38866 13.931C4.23443 13.931 4.10938 13.8075 4.10938 13.6552V12.5517C4.10938 12.3994 4.23443 12.2759 4.38866 12.2759C4.5429 12.2759 4.66795 12.3994 4.66795 12.5517V13.6552C4.66795 13.8075 4.5429 13.931 4.38866 13.931Z" fill="#42210B"/>
<path d="M5.50585 13.931C5.35161 13.931 5.22656 13.8075 5.22656 13.6552V12.5517C5.22656 12.3994 5.35161 12.2759 5.50585 12.2759C5.66009 12.2759 5.78514 12.3994 5.78514 12.5517V13.6552C5.78514 13.8075 5.66009 13.931 5.50585 13.931Z" fill="#42210B"/>
<path d="M6.62304 13.931C6.4688 13.931 6.34375 13.8075 6.34375 13.6552V12.5517C6.34375 12.3994 6.4688 12.2759 6.62304 12.2759C6.77727 12.2759 6.90233 12.3994 6.90233 12.5517V13.6552C6.90233 13.8075 6.77727 13.931 6.62304 13.931Z" fill="#42210B"/>
<path d="M7.74023 13.931C7.58599 13.931 7.46094 13.8075 7.46094 13.6552V12.5517C7.46094 12.3994 7.58599 12.2759 7.74023 12.2759C7.89446 12.2759 8.01951 12.3994 8.01951 12.5517V13.6552C8.01951 13.8075 7.89446 13.931 7.74023 13.931Z" fill="#42210B"/>
<path d="M8.85742 13.931C8.70318 13.931 8.57812 13.8075 8.57812 13.6552V12.5517C8.57812 12.3994 8.70318 12.2759 8.85742 12.2759C9.01166 12.2759 9.13671 12.3994 9.13671 12.5517V13.6552C9.13671 13.8075 9.01166 13.931 8.85742 13.931Z" fill="#42210B"/>
</g>
<defs>
<clipPath id="clip0_1900:6272">
<rect width="16.1988" height="16" fill="white" transform="translate(0.199219)"/>
</clipPath>
</defs>
</svg>
