<svg width="20" height="20" viewBox="0 0 20 20" fill="none" xmlns="http://www.w3.org/2000/svg">
<g clip-path="url(#clip0_2738:2210)">
<path d="M2.24612 17.663C2.23295 15.1132 8.13971 15.5245 11.8748 15.1142C15.4555 14.7209 18.1419 16.2385 17.6169 17.768C17.0427 19.4406 12.062 19.6013 8.82932 19.6013C5.59666 19.6013 2.25744 19.8577 2.24612 17.663Z" fill="#B7BCCE"/>
<path d="M15.7427 3.32051C16.1577 5.26703 13.128 6.25035 9.90262 6.25035C6.67723 6.25035 4.0625 5.87617 4.0625 4.25805C4.0625 2.63992 6.67723 0.390625 9.90262 0.390625C13.128 0.390625 15.2847 1.17195 15.7427 3.32051Z" fill="#868EAF"/>
<path d="M3.19333 12.3717C2.78431 10.6417 6.74392 11.2924 9.9731 11.2924C13.2023 11.2924 15.82 11.6663 15.82 13.2834C15.82 14.9004 10.7976 15.3915 7.56841 15.3915C6.19966 15.3915 3.69853 14.5084 3.19333 12.3717Z" fill="#868EAF"/>
<path d="M1.40625 8.77005C1.40625 6.25037 5.24559 6.25037 9.98168 6.25037C14.7178 6.25037 18.3225 6.68009 18.5571 7.96376C19.0351 10.5788 14.7178 11.2897 9.98168 11.2897C5.24559 11.2897 1.40625 10.7362 1.40625 8.77005Z" fill="#B7BCCE"/>
<path d="M18.9413 7.89348C18.7945 7.09027 17.8679 6.56516 16.0251 6.24094C15.4548 6.14059 14.7904 6.05996 14.0363 5.99906C14.7946 5.71258 15.3607 5.3434 15.7223 4.8966C16.1136 4.41297 16.2528 3.8398 16.1247 3.23906C15.8784 2.08363 15.1719 1.22785 14.0248 0.695508C13.0164 0.2275 11.668 0 9.90258 0C6.54695 0 3.67184 2.34133 3.67184 4.25805C3.67184 5.03113 4.12395 5.61797 5.01715 6.00855C4.59668 6.05238 4.20223 6.10898 3.84023 6.18246C2.95125 6.36289 2.29469 6.63383 1.83309 7.01074C1.29066 7.45367 1.01562 8.04559 1.01562 8.77004C1.01562 9.8307 1.87059 10.6055 3.55664 11.0757C3.33031 11.1727 3.14625 11.2985 3.01176 11.4614C2.85742 11.6482 2.6977 11.9734 2.81316 12.4616C3.0627 13.5171 3.77195 14.4027 4.86422 15.0226C5.00781 15.1041 5.15289 15.1777 5.29801 15.2445C4.88754 15.3088 4.52902 15.3809 4.21051 15.4641C3.75074 15.5837 3.36871 15.7259 3.04254 15.8986C2.6691 16.0974 2.39059 16.3279 2.19023 16.6037C1.96953 16.9056 1.85391 17.2689 1.85547 17.6545V17.6639V17.6654C1.85391 18.2155 2.05469 18.71 2.42109 19.0577C2.59219 19.2225 2.79297 19.3593 3.03434 19.4761C3.24957 19.58 3.49293 19.6659 3.77809 19.739C3.80973 19.7468 3.84215 19.7507 3.87457 19.7507C4.05309 19.7507 4.20895 19.6296 4.25266 19.4558C4.30539 19.2471 4.17883 19.0343 3.96984 18.9815C3.52219 18.869 3.17414 18.701 2.96359 18.4959C2.73742 18.2709 2.64289 18.0291 2.63668 17.6607C2.63668 17.6557 2.63668 17.6545 2.63668 17.6545C2.63824 17.4236 2.69566 17.2408 2.82301 17.0619C3.03473 16.7623 3.49719 16.4919 4.12453 16.3005C5.13648 15.9864 6.56617 15.8575 7.72262 15.7817C8.56465 15.7775 10.2487 15.7357 11.9321 15.501C12.2932 15.4618 12.6554 15.4419 13.0087 15.4419H13.0157C14.2348 15.4419 15.359 15.6774 16.1821 16.1056C16.5469 16.2943 16.8406 16.5173 17.0312 16.7505C17.2062 16.965 17.2914 17.1716 17.2918 17.3826C17.2918 17.4693 17.277 17.5541 17.2473 17.6413C17.2008 17.7764 17.1059 17.9026 16.957 18.0268C16.6852 18.2561 16.2063 18.4722 15.6086 18.6351C14.7946 18.8601 13.6923 19.0207 12.3321 19.1121C11.3345 19.1793 10.2212 19.2109 8.8291 19.2109C8.51777 19.2109 7.54555 19.2179 7.37133 19.2187C7.15609 19.2199 6.98148 19.3961 6.98266 19.6113C6.98383 19.8258 7.15922 20 7.37328 20H7.37523C7.55254 19.9992 8.52363 19.9918 8.8291 19.9918C10.2978 19.9918 12.4603 19.9609 14.2759 19.6984C15.2528 19.5562 16.0153 19.3672 16.6071 19.1203C16.9551 18.9746 17.2332 18.8132 17.457 18.6273C17.7152 18.4125 17.893 18.1663 17.9863 17.8948C18.0441 17.7268 18.073 17.5542 18.073 17.3827C18.0734 16.9928 17.9219 16.603 17.6352 16.2549C17.4352 16.0131 17.1762 15.7916 16.8645 15.5959C16.5613 15.4056 16.2059 15.238 15.8075 15.0982C15.4835 14.985 15.1361 14.8929 14.7721 14.8228C14.9145 14.7645 15.0463 14.7039 15.1662 14.641C15.8592 14.2775 16.2106 13.8207 16.2106 13.2834C16.2106 12.4102 15.6327 11.7748 14.4927 11.3915C14.6975 11.3601 14.8959 11.3263 15.0862 11.2898C16.7632 10.9675 17.8722 10.4586 18.4764 9.73387C18.9125 9.21082 19.0689 8.5916 18.9413 7.89348ZM4.45305 4.25805C4.45305 3.58773 5.06102 2.71477 6.00191 2.03406C7.11859 1.22621 8.50387 0.781289 9.90258 0.781289C11.552 0.781289 12.7928 0.985039 13.696 1.40422C14.6211 1.83355 15.1656 2.48699 15.3607 3.40195C15.4401 3.77453 15.3598 4.1027 15.115 4.40512C14.4 5.28875 12.354 5.85973 9.90258 5.85973C6.23559 5.85973 4.45305 5.33582 4.45305 4.25805ZM15.4294 13.2834C15.4294 13.7644 14.4577 14.2418 12.8301 14.5605C12.513 14.6226 12.1673 14.679 11.8009 14.7292C10.9966 14.8169 7.61117 15.0009 7.5684 15.0009C6.51828 15.0009 4.05441 14.3162 3.57344 12.2819C3.52313 12.0691 3.58688 11.9919 3.6141 11.9589C3.72785 11.8212 4.06207 11.6446 5.00836 11.5852C5.5702 11.55 6.23176 11.5617 6.94203 11.5872C7.69867 11.6396 9.80113 11.6831 9.97309 11.6831C13.6446 11.6831 15.4294 12.2066 15.4294 13.2834ZM17.8764 9.23355C17.243 9.99336 15.3591 10.8991 9.98164 10.8991C9.07535 10.8991 7.27199 10.8174 7.01613 10.8079C2.78195 10.5166 1.79688 9.57871 1.79688 8.77004C1.79688 8.12957 2.0468 7.34371 3.99563 6.94816C5.50902 6.64102 7.68156 6.64102 9.98164 6.64102C17.3459 6.64102 18.1131 7.70723 18.1728 8.03398C18.258 8.4998 18.161 8.89219 17.8764 9.23355Z" fill="black"/>
<path d="M5.61523 19.9738C5.83097 19.9738 6.00586 19.7989 6.00586 19.5831C6.00586 19.3674 5.83097 19.1925 5.61523 19.1925C5.3995 19.1925 5.22461 19.3674 5.22461 19.5831C5.22461 19.7989 5.3995 19.9738 5.61523 19.9738Z" fill="black"/>
</g>
<defs>
<clipPath id="clip0_2738:2210">
<rect width="20" height="20" fill="white"/>
</clipPath>
</defs>
</svg>
