<svg width="64" height="64" viewBox="0 0 64 64" fill="none" xmlns="http://www.w3.org/2000/svg">
<circle cx="32" cy="32" r="32" fill="#FEF6F7"/>
<path d="M24.5 29.125C22.9491 29.125 21.6875 30.3866 21.6875 31.9375V39.5625C21.6875 41.1134 22.9491 42.375 24.5 42.375C26.0509 42.375 27.3125 41.1134 27.3125 39.5625V31.9375C27.3125 30.3866 26.0509 29.125 24.5 29.125Z" fill="#AF1328"/>
<path d="M19.8125 31.9376C19.8125 31.6671 19.8482 31.4059 19.8924 31.1479C18.7625 31.5131 17.9375 32.5626 17.9375 33.8126V37.6876C17.9375 38.9375 18.7625 39.987 19.8924 40.3522C19.8482 40.0943 19.8125 39.833 19.8125 39.5626V31.9376Z" fill="#AF1328"/>
<path d="M39.5 29.125C37.9491 29.125 36.6875 30.3866 36.6875 31.9375V39.5625C36.6875 41.1134 37.9491 42.375 39.5 42.375C39.7819 42.375 40.0489 42.3208 40.3057 42.2432C39.9567 43.4001 38.8941 44.25 37.625 44.25H34.6398C34.2515 43.1611 33.2206 42.375 32 42.375C30.4491 42.375 29.1875 43.6366 29.1875 45.1875C29.1875 46.7384 30.4491 48 32 48C33.2206 48 34.2515 47.2139 34.6398 46.125H37.625C40.2096 46.125 42.3125 44.0221 42.3125 41.4375V39.5625V31.9375C42.3125 30.3866 41.0509 29.125 39.5 29.125Z" fill="#AF1328"/>
<path d="M44.1074 31.1479C44.1516 31.4059 44.1873 31.6671 44.1873 31.9376V39.5626C44.1873 39.833 44.1516 40.0943 44.1074 40.3522C45.2373 39.987 46.0623 38.9375 46.0623 37.6876V33.8126C46.0623 32.5626 45.2373 31.5131 44.1074 31.1479Z" fill="#AF1328"/>
<path d="M32 16C24.2455 16 17.9375 22.308 17.9375 30.0625V30.0864C18.4961 29.6636 19.1423 29.3541 19.8554 29.2156C20.2936 22.8907 25.5659 17.875 32 17.875C38.4341 17.875 43.7064 22.8907 44.1446 29.2155C44.8576 29.3541 45.5039 29.6636 46.0625 30.0864V30.0625C46.0625 22.308 39.7545 16 32 16Z" fill="#AF1328"/>
</svg>
