<svg width="56" height="56" viewBox="0 0 56 56" fill="none" xmlns="http://www.w3.org/2000/svg">
<path d="M40.6445 24.8387V25.4725C40.6445 26.2492 40.7698 27.0207 41.0153 27.7575L42.451 32.0644H45.1606V22.1289H43.3542C41.8577 22.129 40.6445 23.3421 40.6445 24.8387Z" fill="#5A4146"/>
<path d="M53.0119 26.7118L51.4835 32.0613L44.2576 25.7387C43.2599 25.7387 42.4512 24.9299 42.4512 23.9323C42.4512 22.4358 43.6644 21.2227 45.1608 21.2227H51.4834C52.4811 21.2227 53.2898 22.0315 53.2898 23.0291V24.7268C53.2899 25.398 53.1963 26.0661 53.0119 26.7118Z" fill="#694B4B"/>
<path d="M49.6752 34.7734H44.2559V38.771H49.6752V34.7734Z" fill="#E6AF78"/>
<path d="M44.2578 36.4365C45.0955 36.7768 46.009 36.9684 46.9675 36.9684C47.9259 36.9684 48.8394 36.7768 49.6771 36.4365V34.7773H44.2578V36.4365Z" fill="#D29B6E"/>
<path d="M54.0327 38.2099L49.6752 36.965L46.9658 38.763L44.2561 36.9648L39.8988 38.2099C38.7355 38.5423 37.9336 39.6055 37.9336 40.8153V47.4189C37.9336 47.9178 38.338 48.3221 38.8368 48.3221H55.0949C55.5937 48.3221 55.9981 47.9178 55.9981 47.4189V40.8153C55.9981 39.6054 55.196 38.5423 54.0327 38.2099Z" fill="#D5DCED"/>
<path d="M47.8728 48.3242H46.0664L46.518 38.7734H47.4212L47.8728 48.3242Z" fill="#AFB9D2"/>
<path d="M46.9681 35.6744C43.9751 35.6744 41.5488 33.2481 41.5488 30.2551V29.1969C41.5488 28.7179 41.7391 28.2584 42.0779 27.9195L43.7158 26.2816C44.0626 25.9348 44.5368 25.7354 45.0271 25.7508C47.9143 25.8419 50.47 26.4605 51.867 27.8249C52.2091 28.1589 52.3876 28.6262 52.3876 29.1042V30.2551C52.3876 33.2482 49.9612 35.6744 46.9681 35.6744Z" fill="#F0C087"/>
<path d="M44.2585 29.4249C44.2585 28.383 45.1335 27.5548 46.1733 27.6211C47.9967 27.7375 50.7024 28.0422 52.3624 28.8407C52.3083 28.4596 52.1445 28.0999 51.867 27.8288C50.47 26.4644 47.9143 25.8458 45.0271 25.7547L45.027 25.7548V25.7547C44.5368 25.7393 44.0625 25.9388 43.7158 26.2855L42.078 27.9233C41.7391 28.2621 41.5488 28.7215 41.5488 29.2007V30.2589C41.5488 32.7304 43.2049 34.8112 45.4666 35.4629C44.7138 34.5341 44.2586 33.355 44.2586 32.0654L44.2585 29.4249Z" fill="#E6AF78"/>
<path d="M52.3867 43.5066C52.3867 42.7879 52.6722 42.0988 53.1804 41.5906L55.5054 39.2656C55.8161 39.7098 55.9996 40.2445 55.9996 40.8154V47.419C55.9996 47.9178 55.5953 48.3222 55.0964 48.3222H52.3867V43.5066Z" fill="#C7CFE2"/>
<path d="M47.4212 40.5799H46.518C46.2686 40.5799 46.0664 40.3776 46.0664 40.1283V38.7734H47.8728V40.1283C47.8728 40.3776 47.6707 40.5799 47.4212 40.5799Z" fill="#959CB5"/>
<path d="M46.9683 38.7615L45.4374 39.9309C45.1737 40.1323 44.7924 40.0516 44.6331 39.7605L43.2598 37.2525L43.8125 36.4093C43.9352 36.2223 44.1965 36.1905 44.3604 36.3425L46.9683 38.7615Z" fill="#C7CFE2"/>
<path d="M46.9688 38.7615L48.4997 39.9309C48.7634 40.1324 49.1447 40.0516 49.304 39.7605L50.6773 37.2525L50.1245 36.4093C50.0019 36.2223 49.7406 36.1905 49.5767 36.3425L46.9688 38.7615Z" fill="#C7CFE2"/>
<path d="M16.1675 35.2996C15.3957 33.2545 14.7835 29.7389 14.6513 27.9085C14.3997 24.4253 11.7748 21.5859 8.22646 21.5859C4.67811 21.5859 2.05322 24.4254 1.80166 27.9085C1.66943 29.7387 1.05725 33.2545 0.285395 35.2996C0.115317 35.7504 0.311645 36.2475 0.755598 36.4488C1.58269 36.8236 3.34615 37.558 5.47294 37.844H10.9799C13.0967 37.5573 14.8725 36.8225 15.6972 36.4488C16.1413 36.2475 16.3376 35.7504 16.1675 35.2996Z" fill="#5A4146"/>
<path d="M15.6972 36.4488C16.141 36.2475 16.3375 35.7504 16.1673 35.2996C15.3955 33.2545 14.7833 29.7388 14.6511 27.9085C14.3997 24.4253 11.7747 21.5859 8.22645 21.5859C8.21748 21.5859 8.20862 21.5859 8.19965 21.586C5.47698 21.5971 4.51481 25.3103 6.85861 26.6957C6.99937 26.7789 7.08961 26.819 7.08961 26.819L9.14247 37.844H10.9799C13.0967 37.5571 14.8725 36.8224 15.6972 36.4488Z" fill="#694B4B"/>
<path d="M14.7602 39.6542L11.8372 38.1929C11.2252 37.8868 10.8385 37.2612 10.8386 36.577L10.8388 33.8672H5.41931V36.5771C5.41931 37.2613 5.03278 37.8867 4.42072 38.1928L1.49778 39.6542C0.579797 40.1132 0 41.0514 0 42.0776V47.4154C0 47.9141 0.404359 48.3186 0.903219 48.3186H15.3548C15.8537 48.3186 16.258 47.9141 16.258 47.4154V42.0777C16.258 41.0514 15.6781 40.1132 14.7602 39.6542Z" fill="#E6AF78"/>
<path d="M8.12964 37.484C9.1022 37.484 10.0337 37.2835 10.8877 36.9266C10.8653 36.8127 10.8392 36.6995 10.8392 36.5809L10.8394 33.8711H5.41987V36.581C5.41987 36.7003 5.39373 36.814 5.37109 36.9283C6.22564 37.2834 7.15675 37.484 8.12964 37.484Z" fill="#D29B6E"/>
<path d="M14.7602 39.6623L12.6779 38.6212C11.7123 40.1122 10.0377 41.1011 8.12908 41.1011C6.22048 41.1011 4.54573 40.1122 3.58017 38.6211L1.49789 39.6623C0.579906 40.1213 0 41.0595 0 42.0858V47.4235C0 47.9223 0.404359 48.3267 0.903219 48.3267H15.3548C15.8537 48.3267 16.258 47.9223 16.258 47.4235V42.0859C16.258 41.0595 15.6781 40.1213 14.7602 39.6623Z" fill="#D5DCED"/>
<path d="M8.12847 35.6771C5.3731 35.6771 3.0981 33.6208 2.75411 30.9592C2.70424 30.5735 2.88963 30.1954 3.23679 30.0203C3.65263 29.8105 4.25693 29.4568 4.83552 28.9405C5.47985 28.3657 5.85785 27.7594 6.07135 27.3144C6.25521 26.9311 6.67783 26.7143 7.08974 26.8194C10.2699 27.6306 12.435 29.2851 13.2205 29.9606C13.4314 30.1419 13.5529 30.4093 13.5313 30.6867C13.3124 33.4791 10.9771 35.6771 8.12847 35.6771Z" fill="#F0C087"/>
<path d="M13.2204 29.9645C12.435 29.289 10.2698 27.6345 7.0896 26.8233C6.67769 26.7182 6.25507 26.935 6.07121 27.3183C5.90955 27.6554 5.64235 28.0848 5.24587 28.5231C5.24576 28.5242 5.24543 28.5251 5.24532 28.5262C5.12227 28.6657 4.99124 28.8054 4.83549 28.9446C4.2569 29.4609 3.6526 29.8145 3.23676 30.0243C2.8896 30.1994 2.70432 30.5776 2.75409 30.9633C3.06307 33.3537 4.9336 35.2564 7.30682 35.6193C6.22543 34.8836 5.41879 33.8719 5.41879 32.0683V30.7803C5.62398 30.6288 5.83059 30.4778 6.03818 30.2925C6.54021 29.8445 6.97848 29.3264 7.3299 28.7686C9.76273 29.5277 11.4121 30.7922 12.0374 31.3299C12.2086 31.48 12.6334 31.8715 13.1304 32.3378C13.3442 31.8232 13.4856 31.2711 13.531 30.6908C13.5528 30.4134 13.4313 30.1459 13.2204 29.9645Z" fill="#E6AF78"/>
<path d="M0.550594 40.4531C0.202672 40.9149 0 41.4814 0 42.0813V47.419C0 47.9179 0.404359 48.3222 0.903219 48.3222H3.61288V43.7711C3.61288 43.2224 3.36339 42.7033 2.93486 42.3605L0.550594 40.4531Z" fill="#C7CFE2"/>
<path d="M40.9759 38.4278L33.4187 35.6797L27.9994 37.4862L22.58 35.6798L15.0228 38.428C13.595 38.9472 12.6445 40.3041 12.6445 41.8233V47.4218C12.6445 47.9205 13.0489 48.325 13.5478 48.325H42.451C42.9498 48.325 43.3542 47.9205 43.3542 47.4218V41.8233C43.3542 40.304 42.4038 38.947 40.9759 38.4278Z" fill="#FF507D"/>
<path d="M27.0536 39.2891L26.1934 48.3211H29.8063L28.946 39.2891H27.0536Z" fill="#707487"/>
<path d="M28.9488 40.5279H27.0522C26.703 40.5279 26.4199 40.2448 26.4199 39.8956V37.4805H29.581V39.8956C29.5811 40.2447 29.298 40.5279 28.9488 40.5279Z" fill="#5B5D6E"/>
<path d="M42.3807 39.3594C42.9905 40.014 43.3529 40.8858 43.3529 41.821V47.4194C43.3529 47.9183 42.9485 48.3227 42.4497 48.3227H37.9336V45.303C37.9336 44.3448 38.3142 43.4258 38.9918 42.7484L42.3807 39.3594Z" fill="#D23C69"/>
<path d="M37.9375 17.0527V9.48613C37.9375 8.48841 37.1286 7.67969 36.131 7.67969H25.2923C21.3016 7.67969 18.0664 10.9148 18.0664 14.9055V17.0527C18.0664 18.0235 18.2229 18.988 18.5299 19.9089L18.8306 20.8109C18.9227 21.0872 18.9696 21.3765 18.9696 21.6678V22.1313H37.0341V21.6678C37.0341 21.3765 37.0811 21.0872 37.1731 20.8109L37.4738 19.9089C37.7809 18.9879 37.9375 18.0234 37.9375 17.0527Z" fill="#5A4146"/>
<path d="M22.582 11.349C22.582 13.3755 24.2248 15.0183 26.2513 15.0183H26.7594L27.0046 22.1312H37.0335V21.6677C37.0335 21.3764 37.0805 21.0871 37.1725 20.8108L37.4732 19.9088C37.7802 18.9879 37.9368 18.0234 37.9368 17.0526V9.48612C37.9368 8.48841 37.1279 7.67969 36.1303 7.67969H26.2513C24.2248 7.67969 22.582 9.3225 22.582 11.349Z" fill="#694B4B"/>
<path d="M33.4211 29.3555H22.582V37.4842H33.4211V29.3555Z" fill="#E6AF78"/>
<path d="M22.5802 32.4097C24.1758 33.334 26.023 33.8716 27.9995 33.8716C29.976 33.8716 31.8234 33.334 33.4188 32.4097V29.3555H22.5801L22.5802 32.4097Z" fill="#D29B6E"/>
<path d="M28.0011 37.4861L25.1204 40.3668C24.7332 40.754 24.0933 40.7104 23.7623 40.2742L20.7754 36.3384L21.5567 34.692C21.7872 34.2062 22.3886 34.0281 22.8464 34.3103L28.0011 37.4861Z" fill="#D23C69"/>
<path d="M28 37.4861L30.8807 40.3668C31.2679 40.754 31.9079 40.7104 32.2388 40.2742L35.2257 36.3384L34.4445 34.692C34.2139 34.2062 33.6126 34.0281 33.1547 34.3103L28 37.4861Z" fill="#D23C69"/>
<path d="M27.9991 32.0643C23.0107 32.0643 18.9668 28.0203 18.9668 23.032V21.9738C18.9668 21.4947 19.1571 21.0352 19.4958 20.6964L20.2441 19.9482C20.5828 19.6094 20.7731 19.1499 20.7731 18.6708V16.5056C20.7731 16.0873 21.054 15.724 21.461 15.6278C23.5972 15.1233 30.2447 13.9282 34.7685 17.2553C35.0623 17.4714 35.2247 17.8263 35.2247 18.1909V18.6708C35.2247 19.1498 35.415 19.6093 35.7538 19.9482L36.502 20.6964C36.8407 21.0351 37.0311 21.4946 37.0311 21.9738V23.032C37.0314 28.0203 32.9875 32.0643 27.9991 32.0643Z" fill="#F0C087"/>
<path d="M34.7686 17.2538C31.5869 14.9138 27.3606 14.8125 24.3862 15.1328C23.1316 15.2679 22.0949 15.4767 21.4612 15.6263C21.0542 15.7225 20.7733 16.0858 20.7733 16.5041V18.6691C20.7733 19.1483 20.583 19.6078 20.2442 19.9466L19.496 20.6949C19.1571 21.0337 18.9668 21.4932 18.9668 21.9724V23.0305C18.9668 27.6487 22.4351 31.4507 26.9076 31.9905C25.3492 30.3674 24.3861 28.168 24.3861 25.7401V19.1381C24.3861 18.2228 25.0668 17.4578 25.9749 17.344C28.1425 17.0722 32.1126 16.9088 35.2247 18.6694V18.1894C35.225 17.8248 35.0622 17.4697 34.7686 17.2538Z" fill="#E6AF78"/>
<path d="M13.6168 39.3594C13.0069 40.014 12.6445 40.8858 12.6445 41.821V47.4194C12.6445 47.9183 13.0489 48.3227 13.5477 48.3227H18.0638V45.303C18.0638 44.3448 17.6832 43.4258 17.0056 42.7484L13.6168 39.3594Z" fill="#D23C69"/>
</svg>
