<svg width="17" height="16" viewBox="0 0 17 16" fill="none" xmlns="http://www.w3.org/2000/svg">
<g clip-path="url(#clip0_1900:6196)">
<path d="M10.5762 7H14.1196V10.5H10.5762V7Z" fill="#3397E8"/>
<path d="M12.3477 10.5H15.8911V14H12.3477V10.5Z" fill="#FFB632"/>
<path d="M12.3492 9.5C12.7685 9.5 13.1085 9.16421 13.1085 8.75C13.1085 8.33579 12.7685 8 12.3492 8C11.9298 8 11.5898 8.33579 11.5898 8.75C11.5898 9.16421 11.9298 9.5 12.3492 9.5Z" fill="#E9EEF2"/>
<path d="M8.80469 10.5H12.3482V14H8.80469V10.5Z" fill="#35A872"/>
<path d="M9.81641 11.5H11.335V13H9.81641V11.5Z" fill="#E9EEF2"/>
<path d="M14.1196 7H10.5762L12.3479 4.5L14.1196 7Z" fill="#EB423F"/>
<path d="M14.88 13H13.3613L14.1206 11.5L14.88 13Z" fill="#E9EEF2"/>
<path d="M1.97166 12C1.65066 12 1.34167 11.8794 1.10724 11.6629C0.872806 11.4463 0.730449 11.1498 0.708984 10.8334C0.712781 10.7163 0.720901 10.6019 0.733346 10.4903C0.997208 8.08563 3.1505 7 5.76825 7C8.38599 7 10.5393 8.08563 10.8032 10.4903C10.8155 10.6019 10.8236 10.7163 10.8275 10.8334C10.806 11.1498 10.6637 11.4463 10.4293 11.6629C10.1948 11.8794 9.88583 12 9.56483 12H1.97166Z" fill="#95573A"/>
<path d="M5.76738 14.75C7.16525 14.75 8.29844 13.183 8.29844 11.25C8.29844 9.317 7.16525 7.75 5.76738 7.75C4.36952 7.75 3.23633 9.317 3.23633 11.25C3.23633 13.183 4.36952 14.75 5.76738 14.75Z" fill="#A36F58"/>
<path d="M8.80574 3.75C9.64446 3.75 10.3244 3.07843 10.3244 2.25C10.3244 1.42157 9.64446 0.75 8.80574 0.75C7.96702 0.75 7.28711 1.42157 7.28711 2.25C7.28711 3.07843 7.96702 3.75 8.80574 3.75Z" fill="#95573A"/>
<path d="M2.72957 3.75C3.56829 3.75 4.2482 3.07843 4.2482 2.25C4.2482 1.42157 3.56829 0.75 2.72957 0.75C1.89085 0.75 1.21094 1.42157 1.21094 2.25C1.21094 3.07843 1.89085 3.75 2.72957 3.75Z" fill="#95573A"/>
<path d="M5.76729 8.5C7.86408 8.5 9.56387 6.933 9.56387 5C9.56387 3.067 7.86408 1.5 5.76729 1.5C3.67049 1.5 1.9707 3.067 1.9707 5C1.9707 6.933 3.67049 8.5 5.76729 8.5Z" fill="#AD6643"/>
<path d="M5.76703 7.5C4.65052 7.5 3.74219 6.77103 3.74219 5.875C3.74219 5.8087 3.76885 5.74511 3.81632 5.69822C3.86379 5.65134 3.92817 5.625 3.99529 5.625C4.06242 5.625 4.1268 5.65134 4.17427 5.69822C4.22173 5.74511 4.2484 5.8087 4.2484 5.875C4.2484 6.49534 4.92963 7 5.76703 7C6.60443 7 7.28567 6.49534 7.28567 5.875C7.28567 5.8087 7.31233 5.74511 7.3598 5.69822C7.40726 5.65134 7.47164 5.625 7.53877 5.625C7.6059 5.625 7.67028 5.65134 7.71774 5.69822C7.76521 5.74511 7.79188 5.8087 7.79188 5.875C7.79188 6.77103 6.88354 7.5 5.76703 7.5Z" fill="#7A4830"/>
<path d="M7.28631 4.75C7.42609 4.75 7.53941 4.63807 7.53941 4.5C7.53941 4.36193 7.42609 4.25 7.28631 4.25C7.14652 4.25 7.0332 4.36193 7.0332 4.5C7.0332 4.63807 7.14652 4.75 7.28631 4.75Z" fill="#7A4830"/>
<path d="M4.2492 4.75C4.38899 4.75 4.50231 4.63807 4.50231 4.5C4.50231 4.36193 4.38899 4.25 4.2492 4.25C4.10941 4.25 3.99609 4.36193 3.99609 4.5C3.99609 4.63807 4.10941 4.75 4.2492 4.75Z" fill="#7A4830"/>
<path d="M5.76678 7.25C5.69965 7.25 5.63527 7.22366 5.5878 7.17678C5.54034 7.12989 5.51367 7.0663 5.51367 7V5.5C5.51367 5.4337 5.54034 5.37011 5.5878 5.32322C5.63527 5.27634 5.69965 5.25 5.76678 5.25C5.83391 5.25 5.89828 5.27634 5.94575 5.32322C5.99322 5.37011 6.01988 5.4337 6.01988 5.5V7C6.01988 7.0663 5.99322 7.12989 5.94575 7.17678C5.89828 7.22366 5.83391 7.25 5.76678 7.25Z" fill="#7A4830"/>
<path d="M3.23658 15.25C4.21509 15.25 5.00832 14.3546 5.00832 13.25C5.00832 12.1454 4.21509 11.25 3.23658 11.25C2.25808 11.25 1.46484 12.1454 1.46484 13.25C1.46484 14.3546 2.25808 15.25 3.23658 15.25Z" fill="#7A4830"/>
<path d="M8.29908 15.25C9.27759 15.25 10.0708 14.3546 10.0708 13.25C10.0708 12.1454 9.27759 11.25 8.29908 11.25C7.32058 11.25 6.52734 12.1454 6.52734 13.25C6.52734 14.3546 7.32058 15.25 8.29908 15.25Z" fill="#7A4830"/>
<path d="M6.37963 5.63869L5.95005 5.94144C5.89685 5.97951 5.83284 6.00001 5.76715 6.00001C5.70145 6.00001 5.63744 5.97951 5.58425 5.94144L5.15466 5.63869C5.10867 5.60529 5.07138 5.56157 5.04585 5.51114C5.02032 5.46071 5.00729 5.40501 5.00783 5.34863C5.00783 5.15625 5.15545 5 5.33756 5H6.19673C6.37884 5 6.52646 5.15625 6.52646 5.34863C6.52701 5.40501 6.51398 5.46071 6.48845 5.51114C6.46292 5.56157 6.42562 5.60529 6.37963 5.63869Z" fill="#7A4830"/>
</g>
<defs>
<clipPath id="clip0_1900:6196">
<rect width="16.1988" height="16" fill="white" transform="translate(0.199219)"/>
</clipPath>
</defs>
</svg>
