<svg width="56" height="56" viewBox="0 0 56 56" fill="none" xmlns="http://www.w3.org/2000/svg">
<g clip-path="url(#clip0_3086_6549)">
<path d="M48.8809 19.1719H4.993C3.90953 19.1719 3.03125 20.0502 3.03125 21.1336V26.4033H50.8428V21.1336C50.8427 20.0503 49.9644 19.1719 48.8809 19.1719Z" fill="#FFB125"/>
<path d="M32.9478 8.27473L28.9733 48.51C28.8735 49.5207 27.9732 50.2591 26.9625 50.1592L6.82433 48.1699C5.81359 48.0701 5.0752 47.1698 5.17506 46.1591L9.14953 5.92394C9.24939 4.9132 10.1497 4.17481 11.1604 4.27467L31.2985 6.26398C32.3091 6.36373 33.0475 7.264 32.9478 8.27473Z" fill="#B6FA4C"/>
<path d="M31.2985 6.26398L11.1604 4.27467C10.1497 4.17481 9.24939 4.9132 9.14953 5.92394L8.79297 9.53375C9.09506 9.3803 9.44233 9.3069 9.80447 9.34267L29.9426 11.332C30.9533 11.4318 31.6917 12.3321 31.5919 13.3428L27.974 49.9684C28.5148 49.6936 28.9092 49.1587 28.9732 48.5102L32.9477 8.27495C33.0476 7.26411 32.3091 6.36384 31.2985 6.26398Z" fill="#A8E83A"/>
<path d="M11.2838 11.6285L8.38435 40.9812C8.34289 41.4013 8.54064 41.8108 8.89896 42.0341C9.88628 42.6497 10.6508 43.5731 11.0709 44.6574C11.222 45.0471 11.5827 45.3158 11.9985 45.3569L22.438 46.3881C22.8539 46.4292 23.2603 46.2362 23.4845 45.8836C24.1086 44.9026 25.0391 44.1465 26.1278 43.736C26.5229 43.587 26.797 43.2242 26.8384 42.8041L29.7378 13.4515C29.7793 13.0314 29.5815 12.6219 29.2232 12.3985C28.2359 11.783 27.4714 10.8595 27.0513 9.77528C26.9002 9.38569 26.5395 9.11684 26.1237 9.07572L15.6841 8.04453C15.2683 8.00341 14.8619 8.19645 14.6376 8.54908C14.0135 9.53006 13.0831 10.2862 11.9944 10.6967C11.5994 10.8456 11.3253 11.2084 11.2838 11.6285Z" fill="#77DD00"/>
<path d="M29.2218 12.3985C28.2345 11.783 27.47 10.8595 27.0498 9.77528C26.8988 9.38558 26.5381 9.11684 26.1222 9.07572L15.6827 8.04453C15.2669 8.00341 14.8604 8.19645 14.6361 8.54908C14.012 9.53006 13.0816 10.2862 11.9928 10.6967C11.5978 10.8456 11.3237 11.2084 11.2822 11.6285L11.1719 12.7459L24.6986 14.0404C25.1145 14.0815 25.4753 14.3502 25.6262 14.7399C26.0463 15.824 26.8109 16.7476 27.7982 17.3632C28.1565 17.5865 28.3543 17.996 28.3128 18.4161L25.798 43.8736C25.9059 43.8246 26.015 43.7781 26.1263 43.7361C26.5213 43.5871 26.7954 43.2243 26.8369 42.8042L29.7363 13.4516C29.7779 13.0314 29.58 12.6219 29.2218 12.3985Z" fill="#73CC00"/>
<path d="M50.0215 14.2706L27.253 47.6811C26.6811 48.5204 25.537 48.7371 24.6978 48.1652L7.97543 36.7693C7.13619 36.1974 6.91941 35.0534 7.49133 34.2141L30.2599 0.803554C30.8319 -0.0356808 31.9759 -0.252462 32.8151 0.31946L49.5375 11.7154C50.3767 12.2873 50.5934 13.4312 50.0215 14.2706Z" fill="#B6FA4C"/>
<path d="M49.5379 11.7154L32.8155 0.319489C31.9763 -0.252433 30.8322 -0.0357611 30.2603 0.803583L28.3128 3.66144C28.4818 3.71427 28.6461 3.79215 28.8001 3.89704L45.5224 15.2929C46.3616 15.8648 46.5784 17.0089 46.0065 17.8481L25.1855 48.401C25.938 48.6363 26.7865 48.3666 27.2535 47.6813L50.022 14.2706C50.5938 13.4313 50.3771 12.2873 49.5379 11.7154Z" fill="#A8E83A"/>
<path d="M29.4005 6.8335L12.7903 31.2074C12.5525 31.5563 12.53 32.0104 12.7374 32.3781C13.3091 33.3915 13.5376 34.5684 13.3867 35.7214C13.3326 36.1357 13.5204 36.5446 13.8657 36.7798L22.5345 42.6874C22.8798 42.9228 23.329 42.948 23.6949 42.746C24.7128 42.184 25.8917 41.9663 27.0439 42.1276C27.4621 42.1861 27.8765 41.9991 28.1143 41.6502L44.7245 17.2764C44.9623 16.9275 44.9848 16.4734 44.7774 16.1057C44.2056 15.0923 43.9772 13.9154 44.128 12.7625C44.1821 12.3482 43.9943 11.9393 43.649 11.7041L34.9802 5.7964C34.6349 5.56103 34.1857 5.53576 33.8198 5.73778C32.8019 6.29975 31.623 6.51751 30.4708 6.35618C30.0527 6.29745 29.6382 6.48459 29.4005 6.8335Z" fill="#77DD00"/>
<path d="M44.7785 16.1056C44.2068 15.0923 43.9785 13.9154 44.1292 12.7625C44.1833 12.3481 43.9955 11.9393 43.6502 11.7039L34.9814 5.79637C34.6361 5.5611 34.1869 5.53573 33.821 5.73774C32.8032 6.29971 31.6242 6.51748 30.4719 6.35604C30.0538 6.29752 29.6394 6.48455 29.4016 6.83346L28.7094 7.84923L39.5434 15.1522C39.8887 15.3876 40.0766 15.7963 40.0224 16.2106C39.8716 17.3635 40.1001 18.5404 40.6717 19.5538C40.8791 19.9215 40.8566 20.3757 40.6188 20.7245L26.0645 42.0821C26.3907 42.0677 26.719 42.082 27.0452 42.1277C27.4634 42.1863 27.8778 41.9992 28.1156 41.6503L44.7257 17.2764C44.9635 16.9275 44.986 16.4733 44.7785 16.1056Z" fill="#73CC00"/>
<path d="M31.3024 27.933C34.5879 27.933 37.2513 25.2696 37.2513 21.9841C37.2513 18.6986 34.5879 16.0352 31.3024 16.0352C28.0169 16.0352 25.3535 18.6986 25.3535 21.9841C25.3535 25.2696 28.0169 27.933 31.3024 27.933Z" fill="#B6FA4C"/>
<path d="M49.5612 56.0016H3.73166C2.16912 56.0016 0.902344 54.7349 0.902344 53.1723V25.1731C0.902344 23.6105 2.16902 22.3438 3.73166 22.3438H49.5612C51.1237 22.3438 52.3905 23.6104 52.3905 25.1731V53.1723C52.3905 54.7349 51.1238 56.0016 49.5612 56.0016Z" fill="#FFB125"/>
<path d="M49.5593 22.3438H44.4121C45.9746 22.3438 47.2414 23.6105 47.2414 25.1731V53.1723C47.2414 54.7348 45.9746 56.0016 44.4121 56.0016H49.5593C51.1218 56.0016 52.3886 54.7349 52.3886 53.1723V25.1731C52.3886 23.6105 51.1218 22.3438 49.5593 22.3438Z" fill="#FF901D"/>
<path d="M54.0728 33.7617H43.7579C40.771 33.7617 38.3496 36.1831 38.3496 39.17C38.3496 42.1569 40.771 44.5783 43.7579 44.5783H54.0728C54.6389 44.5783 55.0979 44.1193 55.0979 43.5532V34.7868C55.0979 34.2208 54.6389 33.7617 54.0728 33.7617Z" fill="#FF6D3A"/>
<path d="M54.0729 33.7617H48.9075C49.4736 33.7617 49.9325 34.2207 49.9325 34.7868V42.1708C49.9325 42.7745 49.4431 43.264 48.8393 43.264H43.7579C40.9935 43.264 38.7151 41.1896 38.3907 38.5128C38.3646 38.7283 38.3496 38.9473 38.3496 39.1699C38.3496 42.1568 40.771 44.5781 43.7579 44.5781H48.9074H54.0728C54.6389 44.5781 55.0979 44.1192 55.0979 43.5531V42.2389V34.7868C55.098 34.2208 54.639 33.7617 54.0729 33.7617Z" fill="#ED5729"/>
<path d="M49.5612 22.3438H3.73166C2.16912 22.3438 0.902344 23.6105 0.902344 25.1731V28.2736H52.3905V25.1731C52.3905 23.6105 51.1238 22.3438 49.5612 22.3438Z" fill="#FF6D3A"/>
<path d="M51.9052 23.5913C51.8035 23.4408 51.6876 23.3006 51.5597 23.1726C51.5581 23.1711 51.5566 23.1698 51.5551 23.1682C51.4283 23.042 51.2897 22.9276 51.1409 22.8271C51.1032 22.8017 51.065 22.7771 51.026 22.7535C50.9682 22.7184 50.9085 22.6859 50.8481 22.6548C50.8089 22.6347 50.7692 22.6155 50.729 22.5972C50.3723 22.4349 49.9763 22.3438 49.559 22.3438H44.4121C45.9745 22.3439 47.2411 23.6105 47.2411 25.1731V28.2735H52.3883V25.1731C52.3883 24.6847 52.2646 24.2253 52.0468 23.8245C52.0034 23.7444 51.956 23.6665 51.9052 23.5913Z" fill="#ED5729"/>
<path d="M3.73166 56.0002H49.5612C51.1237 56.0002 52.3905 54.7334 52.3905 53.1709V50.0703H0.902344V53.1709C0.902344 54.7334 2.16902 56.0002 3.73166 56.0002Z" fill="#FF6D3A"/>
<path d="M47.2433 50.0703V53.1709C47.2433 53.1725 47.2433 53.1742 47.2433 53.1757C47.2429 53.437 47.0241 53.6456 46.7628 53.6456H3.73166C2.16912 53.6456 0.902344 52.3788 0.902344 50.8163V53.1708C0.902344 54.7335 2.16902 56.0002 3.73166 56.0002H44.4141H49.5613C49.6172 56.0002 49.6725 55.9981 49.7276 55.9949C49.7447 55.994 49.7618 55.9923 49.7789 55.991C49.8172 55.988 49.8554 55.9845 49.8934 55.9801C49.9122 55.9779 49.931 55.9755 49.9498 55.973C49.9875 55.9678 50.025 55.9617 50.0621 55.9551C50.0787 55.9522 50.0953 55.9495 50.1117 55.9463C50.1643 55.9359 50.2166 55.9245 50.2681 55.9112C50.2681 55.9112 50.2682 55.9112 50.2683 55.9112C50.291 55.9054 50.313 55.8985 50.3355 55.8921C50.4474 55.8603 50.5567 55.8227 50.6626 55.7779C50.7049 55.76 50.7467 55.7412 50.788 55.7213C50.8292 55.7014 50.8699 55.6806 50.9099 55.6588L50.91 55.6587C50.9901 55.6152 51.0678 55.5679 51.1431 55.5172L51.1432 55.5171L51.1433 55.517C51.2074 55.4737 51.2691 55.4274 51.3291 55.3792C51.332 55.3769 51.3349 55.3747 51.3377 55.3724C51.3986 55.3232 51.4572 55.2713 51.5139 55.2173C51.5805 55.1536 51.644 55.0869 51.7042 55.0171V55.017C51.7982 54.9079 51.8843 54.7916 51.9611 54.6689C51.9632 54.6656 51.9654 54.6623 51.9675 54.659C51.9957 54.6134 52.023 54.5673 52.0487 54.52C52.0487 54.5199 52.0488 54.5198 52.0489 54.5196V54.5195C52.1173 54.3936 52.1761 54.2617 52.225 54.1251C52.2306 54.1095 52.2356 54.0937 52.241 54.078C52.2528 54.0431 52.2641 54.0079 52.2746 53.9725C52.2798 53.9544 52.285 53.9364 52.29 53.9182C52.2997 53.8826 52.3087 53.8466 52.317 53.8103C52.3208 53.7938 52.325 53.7772 52.3285 53.7606C52.3395 53.7085 52.3496 53.6558 52.3577 53.6027C52.3577 53.6024 52.3578 53.6021 52.3578 53.6018C52.3578 53.6017 52.3578 53.6015 52.3578 53.6014C52.3673 53.5392 52.374 53.4761 52.3794 53.4127C52.3807 53.3966 52.3819 53.3805 52.3831 53.3645C52.3875 53.3005 52.3904 53.2361 52.3904 53.1709V50.8164V50.0704L47.2433 50.0703Z" fill="#ED5729"/>
<path d="M43.9506 41.6824C45.3375 41.6824 46.4617 40.5582 46.4617 39.1713C46.4617 37.7844 45.3375 36.6602 43.9506 36.6602C42.5637 36.6602 41.4395 37.7844 41.4395 39.1713C41.4395 40.5582 42.5637 41.6824 43.9506 41.6824Z" fill="#F2F2F2"/>
</g>
<defs>
<clipPath id="clip0_3086_6549">
<rect width="56" height="56" fill="white"/>
</clipPath>
</defs>
</svg>
