<svg width="375" height="55" viewBox="0 0 375 55" fill="none" xmlns="http://www.w3.org/2000/svg">
<path fill-rule="evenodd" clip-rule="evenodd" d="M375 26.2125L359.333 31.0104C343.667 35.8083 312.333 45.4042 281 43.8049C249.667 42.2056 218.333 29.4111 187 18.216C155.667 7.02085 124.333 -2.57499 93 0.623624C61.6667 3.82223 30.3333 19.8153 14.6667 27.8118L-1 35.8083V55H14.6667C30.3333 55 61.6667 55 93 55C124.333 55 155.667 55 187 55C218.333 55 249.667 55 281 55C312.333 55 343.667 55 359.333 55H375V26.2125Z" fill="white"/>
<path fill-rule="evenodd" clip-rule="evenodd" d="M375 23.8267L359.582 28.1879C344.165 32.5491 313.329 41.2715 282.494 39.8178C251.658 38.3641 220.823 26.7342 189.987 16.558C159.152 6.38182 128.316 -2.34062 97.4808 0.566863C66.6453 3.47434 35.8099 18.0117 20.3922 25.2804L-0.903595 37.1726L4.9744 49.994H20.3922C35.8099 49.994 66.6453 49.994 97.4808 49.994C128.316 49.994 159.152 49.994 189.987 49.994C220.823 49.994 251.658 49.994 282.494 49.994C313.329 49.994 344.165 49.994 359.582 49.994H375V23.8267Z" fill="white" fill-opacity="0.5"/>
</svg>
