<svg width="1920" height="285" viewBox="0 0 1920 285" fill="none" xmlns="http://www.w3.org/2000/svg">
<path fill-rule="evenodd" clip-rule="evenodd" d="M1920 135.828L1840 160.69C1760 185.552 1600 235.276 1440 226.989C1280 218.702 1120 152.403 960 94.3919C800 36.3807 640 -13.3431 480 3.23151C320 19.8061 160 102.679 80 144.116L-2.86102e-05 185.552V285H80C160 285 320 285 480 285C640 285 800 285 960 285C1120 285 1280 285 1440 285C1600 285 1760 285 1840 285H1920V135.828Z" fill="white"/>
<path fill-rule="evenodd" clip-rule="evenodd" d="M1920 123.466L1841.27 146.065C1762.54 168.664 1605.08 213.862 1447.63 206.329C1290.17 198.796 1132.71 138.532 975.254 85.8005C817.796 33.0694 660.338 -12.1286 502.881 2.93738C345.423 18.0034 187.965 93.3335 109.236 130.999L0.492054 192.622L30.5074 259.06H109.236C187.965 259.06 345.423 259.06 502.881 259.06C660.338 259.06 817.796 259.06 975.254 259.06C1132.71 259.06 1290.17 259.06 1447.63 259.06C1605.08 259.06 1762.54 259.06 1841.27 259.06H1920V123.466Z" fill="white" fill-opacity="0.5"/>
</svg>
