<svg width="85" height="91" viewBox="0 0 85 91" fill="none" xmlns="http://www.w3.org/2000/svg">
<g filter="url(#filter0_b_7466_14048)">
<path d="M39.618 11.2611C41.0991 9.00962 44.4009 9.00962 45.882 11.2611C47.0954 13.1056 49.632 13.5073 51.356 12.1281C53.4603 10.4445 56.6006 11.4648 57.3134 14.0637C57.8974 16.1929 60.1858 17.3589 62.2516 16.5799C64.7732 15.629 67.4444 17.5697 67.3193 20.2618C67.2168 22.4672 69.0328 24.2832 71.2382 24.1807C73.9303 24.0556 75.871 26.7268 74.9201 29.2484C74.1411 31.3142 75.3071 33.6026 77.4363 34.1866C80.0352 34.8994 81.0555 38.0397 79.3719 40.144C77.9927 41.868 78.3944 44.4046 80.2389 45.618C82.4904 47.0991 82.4904 50.4009 80.2389 51.882C78.3944 53.0954 77.9927 55.632 79.3719 57.356C81.0555 59.4603 80.0352 62.6006 77.4363 63.3134C75.3071 63.8974 74.1411 66.1858 74.9201 68.2516C75.871 70.7732 73.9303 73.4444 71.2382 73.3193C69.0328 73.2168 67.2168 75.0328 67.3193 77.2383C67.4444 79.9303 64.7732 81.871 62.2516 80.9201C60.1858 80.1411 57.8974 81.3071 57.3134 83.4363C56.6006 86.0352 53.4603 87.0555 51.356 85.3719C49.632 83.9927 47.0954 84.3944 45.882 86.2389C44.4009 88.4904 41.0991 88.4904 39.618 86.2389C38.4046 84.3944 35.868 83.9927 34.144 85.3719C32.0397 87.0555 28.8994 86.0352 28.1866 83.4363C27.6026 81.3071 25.3142 80.1411 23.2484 80.9201C20.7268 81.871 18.0556 79.9303 18.1807 77.2383C18.2832 75.0328 16.4672 73.2168 14.2618 73.3193C11.5697 73.4444 9.62897 70.7732 10.5799 68.2516C11.3589 66.1858 10.1929 63.8974 8.06374 63.3134C5.46482 62.6006 4.44449 59.4603 6.12806 57.356C7.50734 55.632 7.10558 53.0954 5.26106 51.882C3.00962 50.4009 3.00962 47.0991 5.26106 45.618C7.10558 44.4046 7.50734 41.868 6.12806 40.144C4.44449 38.0397 5.46482 34.8994 8.06374 34.1866C10.1929 33.6026 11.3589 31.3142 10.5799 29.2484C9.62897 26.7268 11.5697 24.0556 14.2618 24.1807C16.4672 24.2832 18.2832 22.4672 18.1807 20.2618C18.0556 17.5697 20.7268 15.629 23.2484 16.5799C25.3142 17.3589 27.6026 16.1929 28.1866 14.0637C28.8994 11.4648 32.0397 10.4445 34.144 12.1281C35.868 13.5073 38.4046 13.1056 39.618 11.2611Z" fill="black" fill-opacity="0.2"/>
<path d="M42.7417 13.3159C42.7427 13.3144 42.7437 13.313 42.7446 13.3117C42.7462 13.3116 42.7481 13.3115 42.75 13.3115C42.7519 13.3115 42.7538 13.3116 42.7554 13.3117C42.7563 13.3129 42.7573 13.3144 42.7583 13.3159C45.1819 17.0001 50.2484 17.8026 53.6918 15.0476C53.6933 15.0465 53.6947 15.0454 53.6959 15.0445C53.6975 15.0449 53.6993 15.0454 53.7011 15.046C53.703 15.0466 53.7047 15.0472 53.7062 15.0478C53.7066 15.0493 53.7071 15.051 53.7076 15.0528L53.7131 15.0513L53.7076 15.0528C54.8741 19.3055 59.4447 21.6344 63.5709 20.0784C63.5727 20.0777 63.5743 20.0771 63.5757 20.0766C63.5771 20.0775 63.5787 20.0785 63.5802 20.0796C63.5818 20.0808 63.5832 20.0819 63.5845 20.083C63.5845 20.0845 63.5844 20.0862 63.5843 20.0881C63.3795 24.4932 67.0068 28.1205 71.4119 27.9157C71.4138 27.9156 71.4155 27.9155 71.417 27.9155C71.4181 27.9168 71.4192 27.9182 71.4204 27.9198C71.4215 27.9213 71.4225 27.9228 71.4234 27.9243C71.4229 27.9257 71.4223 27.9273 71.4216 27.9291C69.8656 32.0553 72.1945 36.6259 76.4472 37.7924C76.449 37.7929 76.4507 37.7934 76.4522 37.7938C76.4528 37.7953 76.4534 37.797 76.454 37.7989C76.4546 37.8007 76.4551 37.8025 76.4555 37.8041C76.4546 37.8053 76.4535 37.8067 76.4523 37.8082C73.6974 41.2516 74.4999 46.3181 78.1841 48.7417C78.1856 48.7427 78.187 48.7437 78.1883 48.7446C78.1884 48.7462 78.1885 48.7481 78.1885 48.75C78.1885 48.7519 78.1885 48.7538 78.1883 48.7554C78.1871 48.7563 78.1856 48.7573 78.1841 48.7583C74.4999 51.1819 73.6974 56.2484 76.4524 59.6918C76.4535 59.6933 76.4546 59.6947 76.4555 59.6959C76.4551 59.6975 76.4546 59.6993 76.454 59.7011C76.4534 59.703 76.4528 59.7047 76.4522 59.7062C76.4507 59.7066 76.4491 59.7071 76.4472 59.7076C72.1945 60.8741 69.8656 65.4447 71.4216 69.5709C71.4223 69.5727 71.4229 69.5743 71.4234 69.5757C71.4225 69.5771 71.4215 69.5787 71.4204 69.5802C71.4192 69.5818 71.4181 69.5832 71.417 69.5845C71.4155 69.5845 71.4138 69.5844 71.4119 69.5843C67.0068 69.3795 63.3795 73.0068 63.5843 77.4119C63.5844 77.4138 63.5845 77.4155 63.5845 77.417C63.5832 77.4181 63.5818 77.4192 63.5802 77.4204C63.5787 77.4215 63.5772 77.4225 63.5757 77.4234C63.5743 77.4229 63.5727 77.4223 63.5709 77.4216C59.4447 75.8656 54.8741 78.1945 53.7076 82.4472C53.7071 82.449 53.7066 82.4507 53.7062 82.4522C53.7047 82.4528 53.703 82.4534 53.7011 82.454C53.6993 82.4546 53.6975 82.4551 53.6959 82.4555C53.6947 82.4546 53.6933 82.4535 53.6918 82.4524C50.2484 79.6974 45.1819 80.4999 42.7583 84.1841C42.7573 84.1856 42.7563 84.187 42.7554 84.1883C42.7538 84.1884 42.7519 84.1885 42.75 84.1885C42.7481 84.1885 42.7462 84.1885 42.7446 84.1883C42.7437 84.1871 42.7427 84.1856 42.7417 84.1841C40.3181 80.4999 35.2516 79.6974 31.8082 82.4524C31.8067 82.4535 31.8053 82.4546 31.8041 82.4555C31.8025 82.4551 31.8007 82.4546 31.7989 82.454C31.797 82.4534 31.7953 82.4528 31.7938 82.4522C31.7934 82.4507 31.7929 82.449 31.7924 82.4472C30.6259 78.1945 26.0553 75.8656 21.9291 77.4216C21.9273 77.4223 21.9257 77.4229 21.9243 77.4234C21.9229 77.4225 21.9213 77.4215 21.9198 77.4204C21.9182 77.4192 21.9168 77.4181 21.9155 77.417C21.9155 77.4155 21.9156 77.4138 21.9157 77.4119C22.1205 73.0068 18.4932 69.3795 14.0881 69.5843C14.0862 69.5844 14.0845 69.5845 14.083 69.5845C14.0819 69.5832 14.0808 69.5818 14.0796 69.5802C14.0785 69.5787 14.0775 69.5772 14.0766 69.5758C14.0771 69.5743 14.0777 69.5727 14.0784 69.5709C15.6344 65.4447 13.3055 60.8741 9.05277 59.7076C9.05095 59.7071 9.04931 59.7066 9.04784 59.7062C9.0472 59.7047 9.04656 59.703 9.04596 59.7011C9.04536 59.6993 9.04487 59.6975 9.04449 59.6959C9.04542 59.6947 9.04647 59.6933 9.04765 59.6918C11.8026 56.2484 11.0001 51.1819 7.31594 48.7583C7.31436 48.7573 7.31295 48.7563 7.31169 48.7554C7.31156 48.7538 7.31147 48.7519 7.31147 48.75C7.31147 48.7481 7.31155 48.7462 7.31168 48.7446C7.31294 48.7437 7.31437 48.7427 7.31595 48.7417C11.0001 46.3181 11.8026 41.2516 9.04765 37.8082C9.04647 37.8067 9.04542 37.8053 9.04449 37.8041C9.04488 37.8025 9.04536 37.8007 9.04596 37.7989C9.04656 37.797 9.04719 37.7953 9.04782 37.7938C9.0493 37.7934 9.05095 37.7929 9.05277 37.7924C13.3055 36.6259 15.6344 32.0553 14.0784 27.9291C14.0777 27.9273 14.0771 27.9257 14.0766 27.9243C14.0775 27.9229 14.0785 27.9213 14.0796 27.9198C14.0808 27.9182 14.0819 27.9168 14.083 27.9155C14.0845 27.9155 14.0862 27.9156 14.0881 27.9157C18.4932 28.1205 22.1205 24.4932 21.9157 20.0881C21.9156 20.0862 21.9155 20.0845 21.9155 20.083C21.9168 20.0819 21.9182 20.0808 21.9198 20.0796C21.9213 20.0785 21.9228 20.0775 21.9242 20.0766C21.9257 20.0771 21.9273 20.0777 21.9291 20.0784C26.0553 21.6344 30.6259 19.3055 31.7924 15.0528C31.7929 15.051 31.7934 15.0493 31.7938 15.0478C31.7953 15.0472 31.797 15.0466 31.7989 15.046C31.8007 15.0454 31.8025 15.0449 31.8041 15.0445C31.8053 15.0454 31.8067 15.0465 31.8082 15.0476C35.2516 17.8026 40.3181 17.0001 42.7417 13.3159Z" stroke="url(#paint0_linear_7466_14048)" stroke-width="7.47798"/>
</g>
<g clip-path="url(#clip0_7466_14048)">
<path d="M35.656 23.5737L43.3876 58.7364L15.3034 78.8327L7.19043 46.5882L34.9128 24.1788C35.1573 23.9738 35.405 23.7754 35.656 23.5737Z" fill="url(#paint1_linear_7466_14048)"/>
<path d="M43.3866 58.7397L78.4266 63.0049L70.7243 29.8755L35.6582 23.5737L43.3866 58.7397Z" fill="url(#paint2_linear_7466_14048)"/>
<path d="M78.4279 63.0049L50.0145 81.1361L15.3037 78.8327L24.8998 71.968C24.8998 71.968 24.8998 71.968 24.8998 71.9517L43.3716 58.7364L57.2312 60.4249L78.4279 63.0049Z" fill="#E69718"/>
<path d="M9.11564 46.7444C8.86792 49.8221 14.2853 72.8009 16.2475 73.7313C18.2098 74.6618 39.3446 59.5725 39.5793 56.0621C39.814 52.5517 35.5244 29.4167 34.4912 28.4082C33.4579 27.3996 9.20365 45.7814 9.11564 46.7444Z" fill="url(#paint3_linear_7466_14048)"/>
<g style="mix-blend-mode:multiply" opacity="0.2">
<path d="M78.4279 63.0049L50.0145 81.1361L15.3037 78.8327L24.8998 71.968C23.1201 73.803 19.5933 77.0433 20.1995 77.629C21.2328 78.631 45.7185 80.3098 49.242 79.9063C52.7656 79.5029 69.4088 66.6325 70.0477 64.7487C70.4649 63.5157 62.6681 61.5994 57.2475 60.425L78.4279 63.0049Z" fill="#E69718"/>
</g>
<g style="mix-blend-mode:screen" opacity="0.4">
<path d="M10.7817 47.1186C9.26272 49.6302 15.4395 71.7306 16.7336 72.5114C18.0276 73.2922 38.5725 58.9805 38.9473 56.6868C39.3222 54.3932 33.9994 31.5185 32.2588 30.8483C30.5182 30.1781 11.7889 45.4593 10.7817 47.1186Z" fill="#FFC82E"/>
</g>
<g style="mix-blend-mode:multiply" opacity="0.1">
<path d="M35.6543 23.5737C35.6543 23.5737 67.3142 30.0805 69.2667 43.7448C71.2191 57.409 43.3859 58.7429 43.3859 58.7429L78.426 63.0114L70.7237 29.8755L35.6543 23.5737Z" fill="#E69718"/>
</g>
<g style="mix-blend-mode:screen" opacity="0.5">
<path d="M7.19043 46.5882C7.19043 46.5882 33.684 25.786 34.388 26.0918C35.0921 26.3976 43.3876 58.7429 43.3876 58.7429L35.656 23.5737L7.19043 46.5882Z" fill="#FFC82E"/>
</g>
<g style="mix-blend-mode:screen" opacity="0.4">
<path d="M34.9128 24.1788C19.3159 36.9809 10.3457 58.0955 15.3034 78.8359L7.19043 46.5915L34.9128 24.1788Z" fill="#FFC82E"/>
</g>
<g style="mix-blend-mode:multiply" opacity="0.2">
<path d="M15.3037 78.8327C15.3037 78.8327 44.4342 80.6253 50.6404 71.7695C56.8465 62.9138 43.3879 58.7364 43.3879 58.7364L78.4279 63.0049L50.0145 81.1361L15.3037 78.8327Z" fill="#E69718"/>
</g>
<path d="M23.1191 68.4315L24.2306 68.6821L25.0032 66.7105L26.307 67.3319L26.7861 65.0155L28.5886 65.5165L28.8168 63.8898C28.8168 63.8898 30.0978 64.83 30.1206 64.5112C30.1434 64.1924 30.4955 62.6372 30.4955 62.6372L31.7993 67.1302L65.3302 71.6622L59.727 75.6606C59.4011 75.6346 24.8956 71.968 24.8956 71.968L23.1191 68.4315Z" fill="#FFF44F"/>
<g style="mix-blend-mode:multiply">
<path d="M24.9014 71.9713L31.8214 67.1302L65.3522 71.6622L59.7295 75.6639L24.9014 71.9713Z" fill="#EDC749"/>
</g>
<g style="mix-blend-mode:screen">
<path d="M23.748 69.0627L24.928 71.2848L31.1537 66.9805L30.6094 64.1306L30.1987 65.0155L29.1263 64.4949L28.947 66.1086L27.0239 65.536L26.6686 67.7158L25.3615 67.3059L24.602 69.1148L23.748 69.0627Z" fill="#FFF44F"/>
</g>
<g style="mix-blend-mode:multiply">
<path d="M24.8994 71.968C24.8994 71.968 57.1884 75.4491 58.6389 73.6793C60.0894 71.9094 31.8227 67.1302 31.8227 67.1302L65.3536 71.6622L59.7276 75.6606L24.8994 71.968Z" fill="#F0E54A"/>
</g>
<path d="M16.6263 42.951C16.5904 42.8046 15.8994 39.151 15.8994 39.151L22.777 33.4315L23.8462 38.4027L22.073 37.7L21.7796 39.5902L20.3063 38.9981L19.8206 40.8037L18.4125 40.4068L17.9171 42.0595L16.9653 41.2332L16.6263 42.951Z" fill="#FFF44F"/>
<g style="mix-blend-mode:screen">
<path d="M16.6422 40.576C16.753 40.5467 17.594 41.2429 17.594 41.2429L18.1644 39.7301L19.4128 40.1693L19.9669 38.2661L21.3098 38.7606L21.7955 37.0721C21.7955 37.0721 22.9689 37.6837 22.9429 37.5731C22.9168 37.4625 22.3724 34.3002 22.3724 34.3002L16.4629 39.2063L16.6422 40.576Z" fill="#FFF44F"/>
</g>
<path d="M34.2678 81.0808C34.1752 81.1041 34.0775 81.0978 33.9886 81.0628C33.8997 81.0278 33.8241 80.9658 33.7724 80.8856C33.7375 80.8342 33.7133 80.7764 33.7013 80.7155C33.6892 80.6546 33.6896 80.5919 33.7024 80.5312C33.7152 80.4705 33.7401 80.4129 33.7756 80.362C33.8112 80.3111 33.8566 80.2679 33.9093 80.2349L63.6395 61.1179L60.1877 46.2889L60.9635 61.3619L32.2306 81.0808C32.1812 81.1201 32.1243 81.1488 32.0633 81.1652C32.0023 81.1815 31.9386 81.1852 31.8761 81.1759C31.8136 81.1666 31.7537 81.1445 31.7002 81.1111C31.6466 81.0776 31.6006 81.0335 31.5649 80.9815C31.5292 80.9295 31.5046 80.8707 31.4926 80.8088C31.4807 80.7469 31.4817 80.6832 31.4955 80.6217C31.5094 80.5602 31.5358 80.5022 31.5731 80.4513C31.6104 80.4004 31.6578 80.3577 31.7124 80.326L60.028 60.8966L59.0175 41.2298L55.8427 27.5883L32.9966 12.2973L33.4986 11.5328L59.2489 27.8388L59.9334 41.103L64.6891 61.5408L34.4047 81.0157C34.3642 81.0467 34.3175 81.0689 34.2678 81.0808ZM56.7195 27.3346L58.7502 36.0407L58.3558 28.3529L56.7195 27.3346Z" fill="#997623"/>
<path d="M60.5952 76.1811C60.5244 76.1974 60.4509 76.1974 60.3801 76.1811L49.9496 73.7346L24.4697 72.4007L23.6777 52.415L18.8242 35.6925L18.9253 35.5234L32.8663 11.6824L33.6779 12.1054L23.8309 33.1256L24.5903 52.2686L29.1309 67.9142L50.0799 72.8236L63.2191 73.5329C63.3402 73.5389 63.4538 73.5927 63.5351 73.6824C63.6164 73.7721 63.6587 73.8903 63.6527 74.0111C63.6466 74.1319 63.5927 74.2454 63.5029 74.3265C63.413 74.4077 63.2945 74.4499 63.1735 74.4438L55.1029 74.0241L60.5887 75.3255C60.6895 75.3484 60.7795 75.4048 60.844 75.4855C60.9085 75.5662 60.9436 75.6664 60.9436 75.7696C60.9436 75.8728 60.9085 75.9729 60.844 76.0536C60.7795 76.1343 60.6895 76.1907 60.5887 76.2137L60.5952 76.1811ZM25.3433 71.5353L44.9005 72.5568L28.3812 68.6853L24.724 56.0816L25.3433 71.5353ZM19.8021 35.8194L23.5147 48.6118L22.8954 32.9434L28.5702 20.8277L19.8021 35.8194Z" fill="#997623"/>
<path d="M35.4611 10.9798C35.5646 11.4049 35.5395 11.851 35.389 12.2619C35.2386 12.6728 34.9694 13.0299 34.6156 13.2881C34.2618 13.5463 33.8393 13.6941 33.4014 13.7126C32.9635 13.7312 32.5299 13.6198 32.1554 13.3924C31.781 13.1651 31.4825 12.832 31.2976 12.4354C31.1128 12.0387 31.0499 11.5963 31.1169 11.1639C31.1839 10.7316 31.3779 10.3289 31.6742 10.0065C31.9705 9.68421 32.356 9.45681 32.7817 9.35308C33.0647 9.28371 33.3586 9.27078 33.6466 9.31505C33.9346 9.35931 34.2109 9.4599 34.4599 9.61104C34.7088 9.76217 34.9254 9.96088 35.0972 10.1958C35.269 10.4306 35.3927 10.6971 35.4611 10.9798Z" fill="#997623"/>
<path d="M33.419 11.9525C33.3106 11.979 33.1962 11.9652 33.0972 11.9137C32.9983 11.8622 32.9215 11.7766 32.8811 11.6727L28.898 1.26182C28.8639 1.15054 28.8735 1.0305 28.9248 0.926003C28.9761 0.821509 29.0652 0.740369 29.1742 0.699015C29.2832 0.657662 29.4038 0.659186 29.5117 0.703275C29.6196 0.747364 29.7066 0.830723 29.7552 0.936478L33.7384 11.3474C33.781 11.4609 33.7773 11.5866 33.7279 11.6974C33.6785 11.8082 33.5874 11.8951 33.4744 11.9395L33.419 11.9525Z" fill="#997623"/>
<path d="M33.6093 11.972H33.5799C33.5206 11.9828 33.4598 11.9817 33.4009 11.9688C33.342 11.956 33.2862 11.9316 33.2368 11.8971C33.1874 11.8626 33.1453 11.8187 33.113 11.7679C33.0807 11.7171 33.0588 11.6604 33.0486 11.6011L31.1744 0.923456C31.1622 0.808017 31.1944 0.692272 31.2644 0.599555C31.3343 0.506838 31.4369 0.444043 31.5514 0.423824C31.6659 0.403605 31.7839 0.427465 31.8815 0.490599C31.979 0.553732 32.049 0.651445 32.0773 0.764037L33.9515 11.4417C33.9741 11.5571 33.951 11.6767 33.8873 11.7756C33.8235 11.8744 33.7239 11.9448 33.6093 11.972Z" fill="#997623"/>
</g>
<defs>
<filter id="filter0_b_7466_14048" x="-49.8419" y="-43.8416" width="185.184" height="185.183" filterUnits="userSpaceOnUse" color-interpolation-filters="sRGB">
<feFlood flood-opacity="0" result="BackgroundImageFix"/>
<feGaussianBlur in="BackgroundImageFix" stdDeviation="26.7071"/>
<feComposite in2="SourceAlpha" operator="in" result="effect1_backgroundBlur_7466_14048"/>
<feBlend mode="normal" in="SourceGraphic" in2="effect1_backgroundBlur_7466_14048" result="shape"/>
</filter>
<linearGradient id="paint0_linear_7466_14048" x1="42.75" y1="6.5" x2="42.75" y2="91" gradientUnits="userSpaceOnUse">
<stop stop-color="white"/>
<stop offset="1" stop-color="white" stop-opacity="0"/>
</linearGradient>
<linearGradient id="paint1_linear_7466_14048" x1="9.30989" y1="55.1813" x2="41.4977" y2="47.2424" gradientUnits="userSpaceOnUse">
<stop stop-color="#FFE02E"/>
<stop offset="1" stop-color="#FCB317"/>
</linearGradient>
<linearGradient id="paint2_linear_7466_14048" x1="40.5745" y1="47.3414" x2="73.0567" y2="39.3299" gradientUnits="userSpaceOnUse">
<stop stop-color="#FFB700"/>
<stop offset="1" stop-color="#E69718"/>
</linearGradient>
<linearGradient id="paint3_linear_7466_14048" x1="10.3125" y1="54.8006" x2="39.4531" y2="47.6133" gradientUnits="userSpaceOnUse">
<stop stop-color="#FFE02E"/>
<stop offset="1" stop-color="#FCB317"/>
</linearGradient>
<clipPath id="clip0_7466_14048">
<rect width="71.5" height="81.1622" fill="white" transform="translate(7)"/>
</clipPath>
</defs>
</svg>
