<svg width="85" height="85" viewBox="0 0 85 85" fill="none" xmlns="http://www.w3.org/2000/svg">
<g filter="url(#filter0_b_7466_14092)">
<path d="M39.118 5.26106C40.5991 3.00962 43.9009 3.00962 45.382 5.26106V5.26106C46.5954 7.10558 49.132 7.50734 50.856 6.12806V6.12806C52.9603 4.44449 56.1006 5.46482 56.8134 8.06374V8.06374C57.3974 10.1929 59.6858 11.3589 61.7516 10.5799V10.5799C64.2732 9.62897 66.9444 11.5697 66.8193 14.2618V14.2618C66.7168 16.4672 68.5328 18.2832 70.7382 18.1807V18.1807C73.4303 18.0556 75.371 20.7268 74.4201 23.2484V23.2484C73.6411 25.3142 74.8071 27.6026 76.9363 28.1866V28.1866C79.5352 28.8994 80.5555 32.0397 78.8719 34.144V34.144C77.4927 35.868 77.8944 38.4046 79.7389 39.618V39.618C81.9904 41.0991 81.9904 44.4009 79.7389 45.882V45.882C77.8944 47.0954 77.4927 49.632 78.8719 51.356V51.356C80.5555 53.4603 79.5352 56.6006 76.9363 57.3134V57.3134C74.8071 57.8974 73.6411 60.1858 74.4201 62.2516V62.2516C75.371 64.7732 73.4303 67.4444 70.7382 67.3193V67.3193C68.5328 67.2168 66.7168 69.0328 66.8193 71.2382V71.2382C66.9444 73.9303 64.2732 75.871 61.7516 74.9201V74.9201C59.6858 74.1411 57.3974 75.3071 56.8134 77.4363V77.4363C56.1006 80.0352 52.9603 81.0555 50.856 79.3719V79.3719C49.132 77.9927 46.5954 78.3944 45.382 80.2389V80.2389C43.9009 82.4904 40.5991 82.4904 39.118 80.2389V80.2389C37.9046 78.3944 35.368 77.9927 33.644 79.3719V79.3719C31.5397 81.0555 28.3994 80.0352 27.6866 77.4363V77.4363C27.1026 75.3071 24.8142 74.1411 22.7484 74.9201V74.9201C20.2268 75.871 17.5556 73.9303 17.6807 71.2382V71.2382C17.7832 69.0328 15.9672 67.2168 13.7618 67.3193V67.3193C11.0697 67.4444 9.12897 64.7732 10.0799 62.2516V62.2516C10.8589 60.1858 9.69294 57.8974 7.56374 57.3134V57.3134C4.96482 56.6006 3.94449 53.4603 5.62806 51.356V51.356C7.00734 49.632 6.60558 47.0954 4.76106 45.882V45.882C2.50962 44.4009 2.50962 41.0991 4.76106 39.618V39.618C6.60558 38.4046 7.00734 35.868 5.62806 34.144V34.144C3.94449 32.0397 4.96482 28.8994 7.56374 28.1866V28.1866C9.69294 27.6026 10.8589 25.3142 10.0799 23.2484V23.2484C9.12897 20.7268 11.0697 18.0556 13.7618 18.1807V18.1807C15.9672 18.2832 17.7832 16.4672 17.6807 14.2618V14.2618C17.5556 11.5697 20.2268 9.62897 22.7484 10.5799V10.5799C24.8142 11.3589 27.1026 10.1929 27.6866 8.06374V8.06374C28.3994 5.46482 31.5397 4.44449 33.644 6.12806V6.12806C35.368 7.50734 37.9046 7.10558 39.118 5.26106V5.26106Z" fill="black" fill-opacity="0.2"/>
<path d="M31.3082 9.04765C34.7516 11.8026 39.8181 11.0001 42.2417 7.31594C42.2427 7.31437 42.2437 7.31295 42.2446 7.31169C42.2462 7.31156 42.2481 7.31147 42.25 7.31147C42.2519 7.31147 42.2538 7.31155 42.2554 7.31168C42.2563 7.31294 42.2573 7.31437 42.2583 7.31594C44.6819 11.0001 49.7484 11.8026 53.1918 9.04765C53.1933 9.04647 53.1947 9.04542 53.1959 9.04449C53.1975 9.04487 53.1993 9.04536 53.2011 9.04596C53.203 9.04656 53.2047 9.04719 53.2062 9.04782C53.2066 9.0493 53.2071 9.05095 53.2076 9.05277C54.3741 13.3055 58.9447 15.6344 63.0709 14.0784C63.0727 14.0777 63.0743 14.0771 63.0757 14.0766C63.0771 14.0775 63.0787 14.0785 63.0802 14.0796C63.0818 14.0808 63.0832 14.0819 63.0845 14.083C63.0845 14.0845 63.0844 14.0862 63.0843 14.0881C62.8795 18.4932 66.5068 22.1205 70.9119 21.9157C70.9138 21.9156 70.9155 21.9155 70.917 21.9155C70.9181 21.9168 70.9192 21.9182 70.9204 21.9198C70.9215 21.9213 70.9225 21.9228 70.9234 21.9242C70.9229 21.9257 70.9223 21.9273 70.9216 21.9291C69.3656 26.0553 71.6945 30.6259 75.9472 31.7924C75.9491 31.7929 75.9507 31.7934 75.9522 31.7938C75.9528 31.7953 75.9534 31.797 75.954 31.7989C75.9546 31.8007 75.9551 31.8025 75.9555 31.8041C75.9546 31.8053 75.9535 31.8067 75.9524 31.8082C73.1974 35.2516 73.9999 40.3181 77.6841 42.7417C77.6856 42.7427 77.687 42.7437 77.6883 42.7446C77.6884 42.7462 77.6885 42.7481 77.6885 42.75C77.6885 42.7519 77.6885 42.7538 77.6883 42.7554C77.6871 42.7563 77.6856 42.7573 77.6841 42.7583C73.9999 45.1819 73.1974 50.2484 75.9524 53.6918C75.9535 53.6933 75.9546 53.6947 75.9555 53.6959C75.9551 53.6975 75.9546 53.6993 75.954 53.7011C75.9534 53.703 75.9528 53.7047 75.9522 53.7062C75.9507 53.7066 75.9491 53.7071 75.9472 53.7076C71.6945 54.8741 69.3656 59.4447 70.9216 63.5709C70.9223 63.5727 70.9229 63.5743 70.9234 63.5757C70.9225 63.5771 70.9215 63.5787 70.9204 63.5802C70.9192 63.5818 70.9181 63.5832 70.917 63.5845C70.9155 63.5845 70.9138 63.5844 70.9119 63.5843C66.5068 63.3795 62.8795 67.0068 63.0843 71.4119C63.0844 71.4138 63.0845 71.4155 63.0845 71.417C63.0832 71.4181 63.0818 71.4192 63.0802 71.4204C63.0787 71.4215 63.0772 71.4225 63.0757 71.4234C63.0743 71.4229 63.0727 71.4223 63.0709 71.4216C58.9447 69.8656 54.3741 72.1945 53.2076 76.4472C53.2071 76.4491 53.2066 76.4507 53.2062 76.4522C53.2047 76.4528 53.203 76.4534 53.2011 76.454C53.1993 76.4546 53.1975 76.4551 53.1959 76.4555C53.1947 76.4546 53.1933 76.4535 53.1918 76.4524C49.7484 73.6974 44.6819 74.4999 42.2583 78.1841C42.2573 78.1856 42.2563 78.187 42.2554 78.1883C42.2538 78.1884 42.2519 78.1885 42.25 78.1885C42.2481 78.1885 42.2462 78.1885 42.2446 78.1883C42.2437 78.1871 42.2427 78.1856 42.2417 78.1841C39.8181 74.4999 34.7516 73.6974 31.3082 76.4524C31.3067 76.4535 31.3053 76.4546 31.3041 76.4555C31.3025 76.4551 31.3007 76.4546 31.2989 76.454C31.297 76.4534 31.2953 76.4528 31.2938 76.4522C31.2934 76.4507 31.2929 76.4491 31.2924 76.4472C30.1259 72.1945 25.5553 69.8656 21.4291 71.4216C21.4273 71.4223 21.4257 71.4229 21.4243 71.4234C21.4229 71.4225 21.4213 71.4215 21.4198 71.4204C21.4182 71.4192 21.4168 71.4181 21.4155 71.417C21.4155 71.4155 21.4156 71.4138 21.4157 71.4119C21.6205 67.0068 17.9932 63.3795 13.5881 63.5843C13.5862 63.5844 13.5845 63.5845 13.583 63.5845C13.5819 63.5832 13.5808 63.5818 13.5796 63.5802C13.5785 63.5787 13.5775 63.5772 13.5766 63.5758C13.5771 63.5743 13.5777 63.5727 13.5784 63.5709C15.1344 59.4447 12.8055 54.8741 8.55277 53.7076C8.55095 53.7071 8.54931 53.7066 8.54783 53.7062C8.5472 53.7047 8.54656 53.703 8.54596 53.7011C8.54536 53.6993 8.54487 53.6975 8.54449 53.6959C8.54541 53.6947 8.54647 53.6933 8.54765 53.6918C11.3026 50.2484 10.5001 45.1819 6.81594 42.7583C6.81437 42.7573 6.81295 42.7563 6.81169 42.7554C6.81156 42.7538 6.81147 42.7519 6.81147 42.75C6.81147 42.7481 6.81155 42.7462 6.81168 42.7446C6.81294 42.7437 6.81437 42.7427 6.81594 42.7417C10.5001 40.3181 11.3026 35.2516 8.54765 31.8082C8.54647 31.8067 8.54542 31.8053 8.54449 31.8041C8.54488 31.8025 8.54536 31.8007 8.54596 31.7989C8.54656 31.797 8.54719 31.7953 8.54782 31.7938C8.5493 31.7934 8.55095 31.7929 8.55277 31.7924C12.8055 30.6259 15.1344 26.0553 13.5784 21.9291C13.5777 21.9273 13.5771 21.9257 13.5766 21.9243C13.5775 21.9229 13.5785 21.9213 13.5796 21.9198C13.5808 21.9182 13.5819 21.9168 13.583 21.9155C13.5845 21.9155 13.5862 21.9156 13.5881 21.9157C17.9932 22.1205 21.6205 18.4932 21.4157 14.0881C21.4156 14.0862 21.4155 14.0845 21.4155 14.083C21.4168 14.0819 21.4182 14.0808 21.4198 14.0796C21.4213 14.0785 21.4228 14.0775 21.4242 14.0766C21.4257 14.0771 21.4273 14.0777 21.4291 14.0784C25.5553 15.6344 30.1259 13.3055 31.2924 9.05277C31.2929 9.05095 31.2934 9.04931 31.2938 9.04783C31.2953 9.0472 31.297 9.04656 31.2989 9.04596C31.3007 9.04535 31.3025 9.04487 31.3041 9.04448C31.3053 9.04542 31.3067 9.04647 31.3082 9.04765ZM31.2966 9.03892C31.2964 9.03882 31.2961 9.03872 31.2959 9.03862C31.295 9.03823 31.2946 9.03799 31.2946 9.03799C31.2946 9.03799 31.2949 9.03817 31.2956 9.0386C31.2959 9.03877 31.2963 9.039 31.2967 9.03929C31.2968 9.0392 31.2968 9.03911 31.2968 9.03902L31.2966 9.03892Z" stroke="url(#paint0_linear_7466_14092)" stroke-width="7.47798"/>
</g>
<g clip-path="url(#clip0_7466_14092)">
<path d="M77.6032 38.4898L75.6107 44.8389C74.3895 48.676 73.1442 52.6513 66.8936 72.5196C66.8342 72.749 66.7024 72.9525 66.5182 73.0992C66.3341 73.246 66.1076 73.3279 65.8733 73.3325L19.7168 73.3325C19.467 73.335 19.224 73.2508 19.0281 73.094C18.8322 72.9373 18.6953 72.7173 18.6402 72.4708C13.2171 55.2283 11.6987 50.3588 10.1481 45.4323L8.00293 38.4898L77.6032 38.4898Z" fill="#26A9FF"/>
<path d="M77.6105 38.4898L76.7749 41.1725L8.82166 41.1725L7.99414 38.4898L77.6105 38.4898Z" fill="#FFF44F"/>
<path fill-rule="evenodd" clip-rule="evenodd" d="M5.72171 33.0837L79.9015 33.0837C80.0394 33.0898 80.17 33.1486 80.2669 33.2481C80.3637 33.3477 80.4198 33.4806 80.4237 33.6203L80.4237 37.9614C80.4216 38.1009 80.366 38.2341 80.2685 38.3327C80.171 38.4314 80.0394 38.4877 79.9015 38.4898L5.72171 38.4898C5.65253 38.4921 5.58362 38.4799 5.51925 38.4542C5.45488 38.4284 5.39642 38.3896 5.34748 38.3401C5.29853 38.2905 5.26014 38.2314 5.23469 38.1662C5.20924 38.1011 5.19725 38.0314 5.19948 37.9614L5.19948 33.6203C5.19842 33.5502 5.21114 33.4806 5.23691 33.4156C5.26268 33.3505 5.30097 33.2913 5.34957 33.2414C5.39817 33.1914 5.4561 33.1518 5.51999 33.1247C5.58388 33.0977 5.65245 33.0837 5.72171 33.0837V33.0837Z" fill="#26A9FF"/>
<path fill-rule="evenodd" clip-rule="evenodd" d="M30.9484 44.6438C31.4451 44.6501 31.9197 44.8526 32.2709 45.208C32.6221 45.5633 32.8222 46.0435 32.8284 46.5461L32.8284 53.6024C32.8222 54.105 32.6221 54.5852 32.2709 54.9405C31.9197 55.2959 31.4451 55.4984 30.9484 55.5047V55.5047C30.4511 55.5004 29.9754 55.2987 29.6237 54.9428C29.2721 54.587 29.0726 54.1056 29.0684 53.6024L29.0684 46.5461C29.0726 46.0429 29.2721 45.5615 29.6237 45.2057C29.9754 44.8498 30.4511 44.648 30.9484 44.6438V44.6438ZM30.9484 57.7403C31.4451 57.7466 31.9197 57.9491 32.2709 58.3044C32.6221 58.6598 32.8222 59.14 32.8284 59.6426L32.8284 66.6989C32.8222 67.2015 32.6221 67.6816 32.2709 68.037C31.9197 68.3924 31.4451 68.5949 30.9484 68.6012V68.6012C30.4511 68.5969 29.9754 68.3952 29.6237 68.0393C29.2721 67.6835 29.0726 67.2021 29.0684 66.6989L29.0684 59.6426C29.0726 59.1394 29.2721 58.658 29.6237 58.3021C29.9754 57.9463 30.4511 57.7445 30.9484 57.7403V57.7403ZM38.5327 44.6438C39.0294 44.6501 39.504 44.8526 39.8552 45.208C40.2064 45.5633 40.4065 46.0435 40.4127 46.5461L40.4127 53.6024C40.4065 54.105 40.2064 54.5852 39.8552 54.9405C39.504 55.2959 39.0294 55.4984 38.5327 55.5047V55.5047C38.0361 55.4984 37.5615 55.2959 37.2103 54.9405C36.8591 54.5852 36.659 54.105 36.6527 53.6024L36.6527 46.5461C36.659 46.0435 36.8591 45.5633 37.2103 45.208C37.5615 44.8526 38.0361 44.6501 38.5327 44.6438V44.6438ZM38.5327 57.7403C39.0294 57.7466 39.504 57.9491 39.8552 58.3044C40.2064 58.6598 40.4065 59.14 40.4127 59.6426L40.4127 66.6989C40.417 67.2085 40.2216 67.6991 39.8693 68.0632C39.5169 68.4273 39.0363 68.6354 38.5327 68.6418V68.6418C38.0361 68.6355 37.5615 68.4331 37.2103 68.0777C36.8591 67.7223 36.659 67.2421 36.6527 66.7396L36.6527 59.6832C36.659 59.1807 36.8591 58.7005 37.2103 58.3451C37.5615 57.9897 38.0361 57.7873 38.5327 57.7809L38.5327 57.7403ZM46.109 44.6438C46.6076 44.6438 47.0858 44.8442 47.4383 45.201C47.7909 45.5577 47.989 46.0416 47.989 46.5461L47.989 53.6024C47.989 54.1069 47.7909 54.5908 47.4383 54.9475C47.0858 55.3043 46.6076 55.5047 46.109 55.5047C45.6123 55.4984 45.1378 55.2959 44.7865 54.9405C44.4353 54.5852 44.2352 54.105 44.229 53.6024L44.229 46.5461C44.2352 46.0435 44.4353 45.5633 44.7865 45.208C45.1378 44.8526 45.6123 44.6501 46.109 44.6438V44.6438ZM46.109 57.7403C46.6076 57.7403 47.0858 57.9407 47.4383 58.2975C47.7909 58.6542 47.989 59.1381 47.989 59.6426L47.989 66.6989C47.989 67.2034 47.7909 67.6873 47.4383 68.044C47.0858 68.4008 46.6076 68.6012 46.109 68.6012C45.6123 68.5949 45.1378 68.3924 44.7865 68.037C44.4353 67.6816 44.2352 67.2015 44.229 66.6989L44.229 59.6426C44.2352 59.14 44.4353 58.6598 44.7865 58.3044C45.1378 57.9491 45.6123 57.7466 46.109 57.7403V57.7403ZM53.6852 44.6438C54.1846 44.6438 54.6636 44.8439 55.0174 45.2005C55.3713 45.557 55.5712 46.0408 55.5733 46.5461L55.5733 53.6024C55.5712 54.1077 55.3713 54.5915 55.0174 54.948C54.6636 55.3045 54.1846 55.5047 53.6852 55.5047C53.1886 55.4984 52.714 55.2959 52.3628 54.9405C52.0116 54.5852 51.8115 54.105 51.8052 53.6024L51.8052 46.5461C51.8115 46.0435 52.0116 45.5633 52.3628 45.208C52.714 44.8526 53.1886 44.6501 53.6852 44.6438V44.6438ZM53.6852 57.7403C54.1846 57.7403 54.6636 57.9404 55.0174 58.297C55.3713 58.6535 55.5712 59.1373 55.5733 59.6426L55.5733 66.6989C55.5712 67.2042 55.3713 67.688 55.0174 68.0445C54.6636 68.401 54.1846 68.6012 53.6852 68.6012C53.1886 68.5949 52.714 68.3924 52.3628 68.037C52.0116 67.6816 51.8115 67.2015 51.8052 66.6989L51.8052 59.6426C51.8115 59.14 52.0116 58.6598 52.3628 58.3044C52.714 57.9491 53.1886 57.7466 53.6852 57.7403V57.7403ZM61.2695 44.6438C61.7681 44.6438 62.2463 44.8442 62.5989 45.201C62.9515 45.5577 63.1495 46.0416 63.1495 46.5461L63.1495 53.6024C63.1495 54.1069 62.9515 54.5908 62.5989 54.9475C62.2463 55.3043 61.7681 55.5047 61.2695 55.5047C60.7778 55.4921 60.3102 55.2866 59.9654 54.9316C59.6206 54.5767 59.4257 54.1001 59.4217 53.6024L59.4217 46.5461C59.4259 46.0429 59.6253 45.5615 59.9769 45.2057C60.3286 44.8498 60.8043 44.648 61.3017 44.6438L61.2695 44.6438ZM61.2695 57.7403C61.7681 57.7403 62.2463 57.9407 62.5989 58.2975C62.9515 58.6542 63.1495 59.1381 63.1495 59.6426L63.1495 66.6989C63.1495 67.2034 62.9515 67.6873 62.5989 68.044C62.2463 68.4008 61.7681 68.6012 61.2695 68.6012C60.7722 68.5969 60.2965 68.3952 59.9448 68.0393C59.5931 67.6835 59.3937 67.2021 59.3895 66.6989L59.3895 59.6426C59.3937 59.1394 59.5931 58.658 59.9448 58.3021C60.2965 57.9463 60.7722 57.7445 61.2695 57.7403V57.7403ZM23.3722 44.6438C23.8695 44.648 24.3453 44.8498 24.6969 45.2057C25.0486 45.5615 25.248 46.0429 25.2522 46.5461L25.2522 53.6024C25.248 54.1056 25.0486 54.587 24.6969 54.9428C24.3453 55.2987 23.8695 55.5004 23.3722 55.5047V55.5047C22.8742 55.5026 22.3973 55.3015 22.0452 54.9452C21.6931 54.5889 21.4943 54.1063 21.4922 53.6024L21.4922 46.5461C21.4943 46.0422 21.6931 45.5596 22.0452 45.2033C22.3973 44.847 22.8742 44.6459 23.3722 44.6438ZM23.3722 57.7403C23.8695 57.7445 24.3453 57.9463 24.6969 58.3021C25.0486 58.658 25.248 59.1394 25.2522 59.6426L25.2522 66.6989C25.248 67.2021 25.0486 67.6835 24.6969 68.0393C24.3453 68.3952 23.8695 68.5969 23.3722 68.6012V68.6012C22.8742 68.5991 22.3973 68.3979 22.0452 68.0417C21.6931 67.6854 21.4943 67.2028 21.4922 66.6989L21.4922 59.6426C21.4943 59.1387 21.6931 58.6561 22.0452 58.2998C22.3973 57.9435 22.8742 57.7424 23.3722 57.7403V57.7403Z" fill="#58AFC4"/>
<path fill-rule="evenodd" clip-rule="evenodd" d="M30.9487 44.6438C31.4453 44.6501 31.9199 44.8526 32.2711 45.208C32.6223 45.5633 32.8224 46.0435 32.8287 46.5461L32.8287 46.9932L32.8287 47.107L32.8287 47.2208L32.8287 47.3346L32.8287 47.4484L32.8287 47.5541L32.8287 47.6679L32.8287 47.7817L32.8287 47.8956L32.8287 48.0012L32.8287 48.6516L32.8287 48.7573L32.8287 48.8711L32.8287 48.9849L32.8287 49.1312L32.8287 49.2369L32.8287 49.3507L32.8287 49.4645L32.8287 49.5784L32.8287 49.684L32.8287 50.2206L32.8287 50.3344L32.8287 50.4401L32.8287 50.5539L32.8287 50.6677L32.8287 50.7571L32.8287 50.8709L32.8287 50.9766L32.8287 51.0904L32.8287 51.2042L32.8287 51.7326L32.8287 51.8465L32.8287 51.9603L32.8287 52.0741L32.8287 52.1798L32.8287 52.2936L32.8287 52.383L32.8287 52.4968C32.8224 52.9994 32.6223 53.4796 32.2711 53.8349C31.9199 54.1903 31.4453 54.3928 30.9487 54.3991V54.3991C30.4514 54.3949 29.9756 54.1931 29.6239 53.8372C29.2723 53.4814 29.0729 53 29.0687 52.4968V52.4968L29.0687 52.383L29.0687 52.2692L29.0687 52.1554L29.0687 52.0497L29.0687 51.9359L29.0687 51.8221L29.0687 51.7083L29.0687 51.1798L29.0687 51.066L29.0687 50.9522L29.0687 50.8465L29.0687 50.7571L29.0687 50.6433L29.0687 50.5295L29.0687 50.4157L29.0687 50.31L29.0687 50.1962L29.0687 49.6596L29.0687 49.554L29.0687 49.4402L29.0687 49.3263L29.0687 49.2125L29.0687 49.1312L29.0687 49.0174L29.0687 48.9036L29.0687 48.7898L29.0687 48.6841L29.0687 48.0338L29.0687 47.9281L29.0687 47.8143L29.0687 47.7005L29.0687 47.5866L29.0687 47.481L29.0687 47.3672L29.0687 47.2533L29.0687 47.1395L29.0687 47.0257L29.0687 46.5786C29.0729 46.0754 29.2723 45.594 29.6239 45.2382C29.9756 44.8823 30.4514 44.6806 30.9487 44.6763L30.9487 44.6438ZM32.8287 65.6096C32.8224 66.1121 32.6223 66.5923 32.2711 66.9477C31.9199 67.3031 31.4453 67.5055 30.9487 67.5119V67.5119C30.4514 67.5076 29.9756 67.3058 29.6239 66.95C29.2723 66.5942 29.0729 66.1128 29.0687 65.6096L29.0687 65.3901L29.0687 65.2763L29.0687 65.1706L29.0687 65.0568L29.0687 64.943L29.0687 64.8291L29.0687 64.7235L29.0687 64.5771L29.0687 64.4633L29.0687 64.3495L29.0687 63.8211L29.0687 63.7642L29.0687 63.6504L29.0687 63.5447L29.0687 63.4309L29.0687 63.3171L29.0687 63.2033L29.0687 63.0894L29.0687 62.9512L29.0687 62.8374L29.0687 62.309L29.0687 62.1952L29.0687 62.0814L29.0687 61.9676L29.0687 61.8538L29.0687 61.7481L29.0687 61.6343L29.0687 61.5205L29.0687 61.4067L29.0687 61.3254L29.0687 60.7888L29.0687 60.675L29.0687 60.5124L29.0687 60.3986L29.0687 60.2848L29.0687 60.171L29.0687 60.0653L29.0687 59.9515L29.0687 59.8377L29.0687 59.7239L29.0687 59.6101C29.0729 59.1069 29.2723 58.6255 29.6239 58.2696C29.9756 57.9138 30.4514 57.712 30.9487 57.7078V57.7078C31.4453 57.7141 31.9199 57.9165 32.2711 58.2719C32.6223 58.6273 32.8224 59.1075 32.8287 59.6101L32.8287 59.7239L32.8287 59.8377L32.8287 59.9515L32.8287 60.0653L32.8287 60.171L32.8287 60.2848L32.8287 60.3986L32.8287 60.5124L32.8287 60.6181L32.8287 60.7319L32.8287 61.3254L32.8287 61.431L32.8287 61.5449L32.8287 61.6587L32.8287 61.7725L32.8287 61.8782L32.8287 61.992L32.8287 62.1058L32.8287 62.2196L32.8287 62.3334L32.8287 62.8618L32.8287 62.9512L32.8287 63.0569L32.8287 63.1707L32.8287 63.2846L32.8287 63.3984L32.8287 63.5122L32.8287 63.6179L32.8287 63.7642L32.8287 63.878L32.8287 64.4064L32.8287 64.5202L32.8287 64.5771L32.8287 64.6909L32.8287 64.7966L32.8287 64.9104L32.8287 65.0243L32.8287 65.1381L32.8287 65.2437L32.8287 65.3901L32.8287 65.6177L32.8287 65.6096ZM40.4049 52.5131C40.3987 53.0142 40.1998 53.4932 39.8503 53.8484C39.5007 54.2036 39.0282 54.4069 38.533 54.4154V54.4154C38.0363 54.409 37.5617 54.2066 37.2105 53.8512C36.8593 53.4958 36.6592 53.0156 36.653 52.5131V52.5131L36.653 52.383L36.653 52.2692L36.653 52.1554L36.653 52.0497L36.653 51.9359L36.653 51.8221L36.653 51.7083L36.653 51.1798L36.653 51.066L36.653 50.9522L36.653 50.8465L36.653 50.7571L36.653 50.6433L36.653 50.5295L36.653 50.4157L36.653 50.31L36.653 50.1962L36.653 49.6596L36.653 49.554L36.653 49.4402L36.653 49.3263L36.653 49.2125L36.653 49.1312L36.653 49.0174L36.653 48.9036L36.653 48.7898L36.653 48.6841L36.653 48.0338L36.653 47.9281L36.653 47.8143L36.653 47.7005L36.653 47.5866L36.653 47.481L36.653 47.3672L36.653 47.2533L36.653 47.1395L36.653 47.0257L36.653 46.5786C36.6592 46.076 36.8593 45.5959 37.2105 45.2405C37.5617 44.8851 38.0363 44.6826 38.533 44.6763V44.6763C39.0296 44.6826 39.5042 44.8851 39.8554 45.2405C40.2066 45.5959 40.4067 46.076 40.413 46.5786L40.413 47.0257L40.413 47.1395L40.413 47.2533L40.413 47.3672L40.413 47.481L40.413 47.5866L40.413 47.7005L40.413 47.8143L40.413 47.9281L40.413 48.0338L40.413 48.6841L40.413 48.7898L40.413 48.9036L40.413 49.0174L40.413 49.1312L40.413 49.2369L40.413 49.3507L40.413 49.4645L40.413 49.5784L40.413 49.684L40.413 50.2206L40.413 50.3344L40.413 50.4401L40.413 50.5539L40.413 50.6677L40.413 50.7571L40.413 50.8709L40.413 50.9766L40.413 51.0904L40.413 51.2042L40.413 51.7326L40.413 51.8465L40.413 51.9603L40.413 52.0741L40.413 52.1798L40.413 52.2936L40.413 52.383L40.413 52.4968L40.4049 52.5131ZM40.4049 65.6096C40.3987 66.1121 40.1986 66.5923 39.8474 66.9477C39.4961 67.3031 39.0216 67.5055 38.5249 67.5119V67.5119C38.0283 67.5055 37.5537 67.3031 37.2025 66.9477C36.8512 66.5923 36.6512 66.1121 36.6449 65.6096L36.6449 65.3901L36.6449 65.2763L36.6449 65.1706L36.6449 65.0568L36.6449 64.943L36.6449 64.8291L36.6449 64.7235L36.6449 64.5771L36.6449 64.4633L36.6449 64.3495L36.6449 63.8211L36.6449 63.7642L36.6449 63.6504L36.6449 63.5447L36.6449 63.4309L36.6449 63.3171L36.6449 63.2033L36.6449 63.0894L36.6449 62.9512L36.6449 62.8374L36.6449 62.309L36.6449 62.1952L36.6449 62.0814L36.6449 61.9676L36.6449 61.8538L36.6449 61.7481L36.6449 61.6343L36.6449 61.5205L36.6449 61.4067L36.6449 61.3254L36.6449 60.7888L36.6449 60.675L36.6449 60.5124L36.6449 60.3986L36.6449 60.2848L36.6449 60.171L36.6449 60.0653L36.6449 59.9515L36.6449 59.8377L36.6449 59.7239L36.6449 59.6101C36.6512 59.1075 36.8512 58.6273 37.2025 58.2719C37.5537 57.9165 38.0283 57.7141 38.5249 57.7078V57.7078C39.0216 57.7141 39.4961 57.9165 39.8474 58.2719C40.1986 58.6273 40.3987 59.1075 40.4049 59.6101L40.4049 59.7239L40.4049 59.8377L40.4049 59.9515L40.4049 60.0653L40.4049 60.171L40.4049 60.2848L40.4049 60.3986L40.4049 60.5124L40.4049 60.6181L40.4049 60.7319L40.4049 61.3254L40.4049 61.431L40.4049 61.5449L40.4049 61.6587L40.4049 61.7725L40.4049 61.8782L40.4049 61.992L40.4049 62.1058L40.4049 62.2196L40.4049 62.3334L40.4049 62.8618L40.4049 62.9512L40.4049 63.0569L40.4049 63.1707L40.4049 63.2846L40.4049 63.3984L40.4049 63.5122L40.4049 63.6179L40.4049 63.7642L40.4049 63.878L40.4049 64.4064L40.4049 64.5202L40.4049 64.5771L40.4049 64.6909L40.4049 64.7966L40.4049 64.9104L40.4049 65.0243L40.4049 65.1381L40.4049 65.2437L40.4049 65.3901L40.4049 65.6177L40.4049 65.6096ZM47.9812 52.5131C47.9812 53.0176 47.7831 53.5014 47.4305 53.8582C47.078 54.2149 46.5998 54.4154 46.1012 54.4154C45.6045 54.409 45.1299 54.2066 44.7787 53.8512C44.4275 53.4958 44.2274 53.0156 44.2212 52.5131V52.5131L44.2212 52.383L44.2212 52.2692L44.2212 52.1554L44.2212 52.0497L44.2212 51.9359L44.2212 51.8221L44.2212 51.7083L44.2212 51.1798L44.2212 51.066L44.2212 50.9522L44.2212 50.8465L44.2212 50.7571L44.2212 50.6433L44.2212 50.5295L44.2212 50.4157L44.2212 50.31L44.2212 50.1962L44.2212 49.6596L44.2212 49.554L44.2212 49.4402L44.2212 49.3263L44.2212 49.2125L44.2212 49.1312L44.2212 49.0174L44.2212 48.9036L44.2212 48.7898L44.2212 48.6841L44.2212 48.0338L44.2212 47.9281L44.2212 47.8143L44.2212 47.7005L44.2212 47.5866L44.2212 47.481L44.2212 47.3672L44.2212 47.2533L44.2212 47.1395L44.2212 47.0257L44.2212 46.5786C44.2274 46.076 44.4275 45.5959 44.7787 45.2405C45.1299 44.8851 45.6045 44.6826 46.1012 44.6763V44.6763C46.5998 44.6763 47.078 44.8767 47.4305 45.2335C47.7831 45.5902 47.9812 46.0741 47.9812 46.5786L47.9812 47.0257L47.9812 47.1395L47.9812 47.2533L47.9812 47.3672L47.9812 47.481L47.9812 47.5866L47.9812 47.7005L47.9812 47.8143L47.9812 47.9281L47.9812 48.0338L47.9812 48.6841L47.9812 48.7898L47.9812 48.9036L47.9812 49.0174L47.9812 49.1312L47.9812 49.2369L47.9812 49.3507L47.9812 49.4645L47.9812 49.5784L47.9812 49.684L47.9812 50.2206L47.9812 50.3344L47.9812 50.4401L47.9812 50.5539L47.9812 50.6677L47.9812 50.7571L47.9812 50.8709L47.9812 50.9766L47.9812 51.0904L47.9812 51.2042L47.9812 51.7326L47.9812 51.8465L47.9812 51.9603L47.9812 52.0741L47.9812 52.1798L47.9812 52.2936L47.9812 52.383L47.9812 52.4968L47.9812 52.5131ZM47.9812 65.6096C47.9812 66.1141 47.7831 66.5979 47.4305 66.9547C47.078 67.3114 46.5998 67.5119 46.1012 67.5119C45.6045 67.5055 45.1299 67.3031 44.7787 66.9477C44.4275 66.5923 44.2274 66.1121 44.2212 65.6096L44.2212 65.3901L44.2212 65.2763L44.2212 65.1706L44.2212 65.0568L44.2212 64.943L44.2212 64.8291L44.2212 64.7235L44.2212 64.5771L44.2212 64.4633L44.2212 64.3495L44.2212 63.8211L44.2212 63.7642L44.2212 63.6504L44.2212 63.5447L44.2212 63.4309L44.2212 63.3171L44.2212 63.2033L44.2212 63.0894L44.2212 62.9512L44.2212 62.8374L44.2212 62.309L44.2212 62.1952L44.2212 62.0814L44.2212 61.9676L44.2212 61.8538L44.2212 61.7481L44.2212 61.6343L44.2212 61.5205L44.2212 61.4067L44.2212 61.3254L44.2212 60.7888L44.2212 60.675L44.2212 60.5124L44.2212 60.3986L44.2212 60.2848L44.2212 60.171L44.2212 60.0653L44.2212 59.9515L44.2212 59.8377L44.2212 59.7239L44.2212 59.6101C44.2274 59.1075 44.4275 58.6273 44.7787 58.2719C45.1299 57.9165 45.6045 57.7141 46.1012 57.7078V57.7078C46.5998 57.7078 47.078 57.9082 47.4305 58.2649C47.7831 58.6217 47.9812 59.1055 47.9812 59.6101L47.9812 59.7239L47.9812 59.8377L47.9812 59.9515L47.9812 60.0653L47.9812 60.171L47.9812 60.2848L47.9812 60.3986L47.9812 60.5124L47.9812 60.6181L47.9812 60.7319L47.9812 61.3254L47.9812 61.431L47.9812 61.5449L47.9812 61.6587L47.9812 61.7725L47.9812 61.8782L47.9812 61.992L47.9812 62.1058L47.9812 62.2196L47.9812 62.3334L47.9812 62.8618L47.9812 62.9512L47.9812 63.0569L47.9812 63.1707L47.9812 63.2846L47.9812 63.3984L47.9812 63.5122L47.9812 63.6179L47.9812 63.7642L47.9812 63.878L47.9812 64.4064L47.9812 64.5202L47.9812 64.5771L47.9812 64.6909L47.9812 64.7966L47.9812 64.9104L47.9812 65.0243L47.9812 65.1381L47.9812 65.2437L47.9812 65.3901L47.9812 65.6177L47.9812 65.6096ZM55.5655 52.5131C55.5633 53.0183 55.3635 53.5022 55.0096 53.8587C54.6558 54.2152 54.1768 54.4154 53.6774 54.4154V54.4154C53.1808 54.409 52.7062 54.2066 52.355 53.8512C52.0037 53.4958 51.8037 53.0156 51.7974 52.5131V52.5131L51.7974 52.383L51.7974 52.2692L51.7974 52.1554L51.7974 52.0497L51.7974 51.9359L51.7974 51.8221L51.7974 51.7083L51.7974 51.1798L51.7974 51.066L51.7974 50.9522L51.7974 50.8465L51.7974 50.7571L51.7974 50.6433L51.7974 50.5295L51.7974 50.4157L51.7974 50.31L51.7974 50.1962L51.7974 49.6596L51.7974 49.554L51.7974 49.4402L51.7974 49.3263L51.7974 49.2125L51.7974 49.1312L51.7974 49.0174L51.7974 48.9036L51.7974 48.7898L51.7974 48.6841L51.7974 48.0338L51.7974 47.9281L51.7974 47.8143L51.7974 47.7005L51.7974 47.5866L51.7974 47.481L51.7974 47.3672L51.7974 47.2533L51.7974 47.1395L51.7974 47.0257L51.7974 46.5786C51.8037 46.076 52.0037 45.5959 52.355 45.2405C52.7062 44.8851 53.1808 44.6826 53.6774 44.6763V44.6763C54.1768 44.6763 54.6558 44.8765 55.0096 45.233C55.3635 45.5895 55.5633 46.0733 55.5655 46.5786L55.5655 47.0257L55.5655 47.1395L55.5655 47.2533L55.5655 47.3672L55.5655 47.481L55.5655 47.5866L55.5655 47.7005L55.5655 47.8143L55.5655 47.9281L55.5655 48.0338L55.5655 48.6841L55.5655 48.7898L55.5655 48.9036L55.5655 49.0174L55.5655 49.1312L55.5655 49.2369L55.5655 49.3507L55.5655 49.4645L55.5655 49.5784L55.5655 49.684L55.5655 50.2206L55.5655 50.3344L55.5655 50.4401L55.5655 50.5539L55.5655 50.6677L55.5655 50.7571L55.5655 50.8709L55.5655 50.9766L55.5655 51.0904L55.5655 51.2042L55.5655 51.7326L55.5655 51.8465L55.5655 51.9603L55.5655 52.0741L55.5655 52.1798L55.5655 52.2936L55.5655 52.383L55.5655 52.4968L55.5655 52.5131ZM55.5655 65.6096C55.5633 66.1148 55.3635 66.5987 55.0096 66.9552C54.6558 67.3117 54.1768 67.5119 53.6774 67.5119V67.5119C53.1808 67.5055 52.7062 67.3031 52.355 66.9477C52.0037 66.5923 51.8037 66.1121 51.7974 65.6096L51.7974 65.3901L51.7974 65.2763L51.7974 65.1706L51.7974 65.0568L51.7974 64.943L51.7974 64.8291L51.7974 64.7235L51.7974 64.5771L51.7974 64.4633L51.7974 64.3495L51.7974 63.8211L51.7974 63.7642L51.7974 63.6504L51.7974 63.5447L51.7974 63.4309L51.7974 63.3171L51.7974 63.2033L51.7974 63.0894L51.7974 62.9512L51.7974 62.8374L51.7974 62.309L51.7974 62.1952L51.7974 62.0814L51.7974 61.9676L51.7974 61.8538L51.7974 61.7481L51.7974 61.6343L51.7974 61.5205L51.7974 61.4067L51.7974 61.3254L51.7974 60.7888L51.7974 60.675L51.7974 60.5124L51.7974 60.3986L51.7974 60.2848L51.7974 60.171L51.7974 60.0653L51.7974 59.9515L51.7974 59.8377L51.7974 59.7239L51.7974 59.6101C51.8037 59.1075 52.0037 58.6273 52.355 58.2719C52.7062 57.9165 53.1808 57.7141 53.6774 57.7078V57.7078C54.1768 57.7078 54.6558 57.9079 55.0096 58.2644C55.3635 58.621 55.5633 59.1048 55.5655 59.6101L55.5655 59.7239L55.5655 59.8377L55.5655 59.9515L55.5655 60.0653L55.5655 60.171L55.5655 60.2848L55.5655 60.3986L55.5655 60.5124L55.5655 60.6181L55.5655 60.7319L55.5655 61.3254L55.5655 61.431L55.5655 61.5449L55.5655 61.6587L55.5655 61.7725L55.5655 61.8782L55.5655 61.992L55.5655 62.1058L55.5655 62.2196L55.5655 62.3334L55.5655 62.8618L55.5655 62.9512L55.5655 63.0569L55.5655 63.1707L55.5655 63.2846L55.5655 63.3984L55.5655 63.5122L55.5655 63.6179L55.5655 63.7642L55.5655 63.878L55.5655 64.4064L55.5655 64.5202L55.5655 64.5771L55.5655 64.6909L55.5655 64.7966L55.5655 64.9104L55.5655 65.0243L55.5655 65.1381L55.5655 65.2437L55.5655 65.3901L55.5655 65.6177L55.5655 65.6096ZM63.1417 52.5131C63.1417 53.0176 62.9436 53.5014 62.5911 53.8582C62.2385 54.2149 61.7603 54.4154 61.2617 54.4154V54.4154C60.7644 54.4111 60.2886 54.2093 59.937 53.8535C59.5853 53.4977 59.3859 53.0163 59.3817 52.5131L59.3817 46.5461C59.3859 46.0429 59.5853 45.5615 59.937 45.2057C60.2886 44.8498 60.7644 44.648 61.2617 44.6438V44.6438C61.7603 44.6438 62.2385 44.8442 62.5911 45.201C62.9436 45.5577 63.1417 46.0416 63.1417 46.5461L63.1417 52.5131ZM63.1417 65.6096C63.1417 66.1141 62.9436 66.5979 62.5911 66.9547C62.2385 67.3114 61.7603 67.5119 61.2617 67.5119V67.5119C60.7644 67.5076 60.2886 67.3058 59.937 66.95C59.5853 66.5942 59.3859 66.1128 59.3817 65.6096L59.3817 59.6426C59.3859 59.1394 59.5853 58.658 59.937 58.3021C60.2886 57.9463 60.7644 57.7445 61.2617 57.7403V57.7403C61.7603 57.7403 62.2385 57.9407 62.5911 58.2975C62.9436 58.6542 63.1417 59.1381 63.1417 59.6426L63.1417 65.6096ZM25.2444 52.5131C25.2402 53.0163 25.0408 53.4977 24.6891 53.8535C24.3374 54.2093 23.8617 54.4111 23.3644 54.4154V54.4154C22.8664 54.4132 22.3895 54.2121 22.0374 53.8558C21.6852 53.4995 21.4865 53.0169 21.4844 52.5131L21.4844 46.5461C21.4865 46.0422 21.6852 45.5596 22.0374 45.2033C22.3895 44.847 22.8664 44.6459 23.3644 44.6438V44.6438C23.8617 44.648 24.3374 44.8498 24.6891 45.2057C25.0408 45.5615 25.2402 46.0429 25.2444 46.5461L25.2444 52.5131ZM25.2444 65.6096C25.2402 66.1128 25.0408 66.5942 24.6891 66.95C24.3374 67.3058 23.8617 67.5076 23.3644 67.5119V67.5119C22.8664 67.5097 22.3895 67.3086 22.0374 66.9523C21.6852 66.596 21.4865 66.1134 21.4844 65.6096L21.4844 59.6426C21.4865 59.1387 21.6852 58.6561 22.0374 58.2998C22.3895 57.9435 22.8664 57.7424 23.3644 57.7403V57.7403C23.8617 57.7445 24.3374 57.9463 24.6891 58.3021C25.0408 58.658 25.2402 59.1394 25.2444 59.6426L25.2444 65.6096Z" fill="#5D8086"/>
<path fill-rule="evenodd" clip-rule="evenodd" d="M23.4755 37.5956C23.9679 37.7939 24.5178 37.7872 25.0054 37.5771C25.493 37.367 25.8787 36.9704 26.0786 36.4737L34.1771 16.2965C34.3757 15.7995 34.3714 15.243 34.1651 14.7492C33.9587 14.2554 33.5672 13.8646 33.0764 13.6626V13.6626C32.8315 13.5583 32.5684 13.5047 32.3027 13.5049C32.037 13.505 31.774 13.559 31.5292 13.6635C31.2845 13.768 31.0628 13.9211 30.8773 14.1136C30.6918 14.3061 30.5463 14.5341 30.4492 14.7844L22.3668 34.9372C22.172 35.4391 22.179 35.9981 22.3862 36.4949C22.5933 36.9916 22.9843 37.3866 23.4755 37.5956V37.5956Z" fill="#4E4D44"/>
<path fill-rule="evenodd" clip-rule="evenodd" d="M24.641 34.6853C24.855 34.7805 25.0254 34.9542 25.1178 35.1714C25.2102 35.3886 25.2179 35.6332 25.1392 35.8559C25.0454 36.074 24.8709 36.2462 24.6532 36.3359C24.4355 36.4255 24.1918 36.4254 23.9742 36.3356C23.8651 36.2961 23.7651 36.2346 23.6804 36.1547C23.5956 36.0748 23.5278 35.9782 23.4812 35.871C23.4346 35.7637 23.4101 35.6479 23.4092 35.5307C23.4083 35.4135 23.4311 35.2973 23.4761 35.1893C23.5185 35.0778 23.5826 34.976 23.6646 34.8899C23.7466 34.8039 23.8448 34.7354 23.9534 34.6884C24.062 34.6414 24.1788 34.6169 24.2969 34.6164C24.415 34.6158 24.532 34.6393 24.641 34.6853V34.6853Z" fill="#58AFC4"/>
<path fill-rule="evenodd" clip-rule="evenodd" d="M62.1127 37.5956C61.6214 37.7936 61.0726 37.7867 60.5863 37.5765C60.1 37.3663 59.7158 36.9698 59.5176 36.4737L51.387 16.2965C51.2889 16.0499 51.2397 15.7861 51.2423 15.5203C51.2449 15.2545 51.2992 14.9918 51.4022 14.7472C51.5051 14.5026 51.6547 14.2809 51.8423 14.0948C52.03 13.9087 52.252 13.7618 52.4957 13.6626V13.6626C52.7381 13.5565 52.9992 13.5015 53.2633 13.5009C53.5273 13.5003 53.7887 13.5541 54.0316 13.6591C54.2744 13.764 54.4935 13.9179 54.6756 14.1114C54.8577 14.3049 54.999 14.5339 55.0908 14.7844L63.1973 34.9373C63.3964 35.4387 63.3915 35.9995 63.1839 36.4974C62.9762 36.9953 62.5825 37.39 62.0886 37.5956L62.1127 37.5956Z" fill="#4E4D44"/>
<path fill-rule="evenodd" clip-rule="evenodd" d="M60.9552 34.6852C60.8347 34.7175 60.7225 34.7754 60.6259 34.8551C60.5294 34.9348 60.4507 35.0344 60.3953 35.1473C60.3398 35.2602 60.3088 35.3838 60.3043 35.5098C60.2998 35.6358 60.3219 35.7613 60.3692 35.8779C60.4164 35.9946 60.4878 36.0997 60.5784 36.1862C60.669 36.2728 60.7768 36.3387 60.8946 36.3797C61.0125 36.4207 61.1376 36.4358 61.2616 36.424C61.3857 36.4122 61.5058 36.3737 61.614 36.3111C61.7276 36.2784 61.8328 36.2206 61.9218 36.1421C62.0109 36.0635 62.0818 35.966 62.1294 35.8565C62.1769 35.747 62.2001 35.6283 62.1971 35.5087C62.1941 35.3892 62.1651 35.2718 62.1121 35.1649C62.0705 35.0536 62.0072 34.952 61.926 34.866C61.8448 34.7801 61.7473 34.7115 61.6393 34.6645C61.5314 34.6175 61.4151 34.5929 61.2976 34.5923C61.1801 34.5916 61.0636 34.615 60.9552 34.6608L60.9552 34.6852Z" fill="#58AFC4"/>
</g>
<defs>
<filter id="filter0_b_7466_14092" x="-50.3419" y="-49.8416" width="185.184" height="185.183" filterUnits="userSpaceOnUse" color-interpolation-filters="sRGB">
<feFlood flood-opacity="0" result="BackgroundImageFix"/>
<feGaussianBlur in="BackgroundImageFix" stdDeviation="26.7071"/>
<feComposite in2="SourceAlpha" operator="in" result="effect1_backgroundBlur_7466_14092"/>
<feBlend mode="normal" in="SourceGraphic" in2="effect1_backgroundBlur_7466_14092" result="shape"/>
</filter>
<linearGradient id="paint0_linear_7466_14092" x1="42.25" y1="0.5" x2="42.25" y2="85" gradientUnits="userSpaceOnUse">
<stop stop-color="white"/>
<stop offset="1" stop-color="white" stop-opacity="0"/>
</linearGradient>
<clipPath id="clip0_7466_14092">
<rect width="75.2323" height="59.8" fill="white" transform="translate(5.19922 13.5)"/>
</clipPath>
</defs>
</svg>
