<svg width="85" height="85" viewBox="0 0 85 85" fill="none" xmlns="http://www.w3.org/2000/svg">
<g filter="url(#filter0_b_7466_14074)">
<path d="M39.618 5.26106C41.0991 3.00962 44.4009 3.00962 45.882 5.26106C47.0954 7.10558 49.632 7.50734 51.356 6.12806C53.4603 4.44449 56.6006 5.46482 57.3134 8.06374C57.8974 10.1929 60.1858 11.3589 62.2516 10.5799C64.7732 9.62897 67.4444 11.5697 67.3193 14.2618C67.2168 16.4672 69.0328 18.2832 71.2382 18.1807C73.9303 18.0556 75.871 20.7268 74.9201 23.2484C74.1411 25.3142 75.3071 27.6026 77.4363 28.1866C80.0352 28.8994 81.0555 32.0397 79.3719 34.144C77.9927 35.868 78.3944 38.4046 80.2389 39.618C82.4904 41.0991 82.4904 44.4009 80.2389 45.882C78.3944 47.0954 77.9927 49.632 79.3719 51.356C81.0555 53.4603 80.0352 56.6006 77.4363 57.3134C75.3071 57.8974 74.1411 60.1858 74.9201 62.2516C75.871 64.7732 73.9303 67.4444 71.2382 67.3193C69.0328 67.2168 67.2168 69.0328 67.3193 71.2383C67.4444 73.9303 64.7732 75.871 62.2516 74.9201C60.1858 74.1411 57.8974 75.3071 57.3134 77.4363C56.6006 80.0352 53.4603 81.0555 51.356 79.3719C49.632 77.9927 47.0954 78.3944 45.882 80.2389C44.4009 82.4904 41.0991 82.4904 39.618 80.2389C38.4046 78.3944 35.868 77.9927 34.144 79.3719C32.0397 81.0555 28.8994 80.0352 28.1866 77.4363C27.6026 75.3071 25.3142 74.1411 23.2484 74.9201C20.7268 75.871 18.0556 73.9303 18.1807 71.2383C18.2832 69.0328 16.4672 67.2168 14.2618 67.3193C11.5697 67.4444 9.62897 64.7732 10.5799 62.2516C11.3589 60.1858 10.1929 57.8974 8.06374 57.3134C5.46482 56.6006 4.44449 53.4603 6.12806 51.356C7.50734 49.632 7.10558 47.0954 5.26106 45.882C3.00962 44.4009 3.00962 41.0991 5.26106 39.618C7.10558 38.4046 7.50734 35.868 6.12806 34.144C4.44449 32.0397 5.46482 28.8994 8.06374 28.1866C10.1929 27.6026 11.3589 25.3142 10.5799 23.2484C9.62897 20.7268 11.5697 18.0556 14.2618 18.1807C16.4672 18.2832 18.2832 16.4672 18.1807 14.2618C18.0556 11.5697 20.7268 9.62897 23.2484 10.5799C25.3142 11.3589 27.6026 10.1929 28.1866 8.06374C28.8994 5.46482 32.0397 4.44449 34.144 6.12806C35.868 7.50734 38.4046 7.10558 39.618 5.26106Z" fill="black" fill-opacity="0.2"/>
<path d="M42.7417 7.31595C42.7427 7.31437 42.7437 7.31295 42.7446 7.31169C42.7462 7.31156 42.7481 7.31147 42.75 7.31147C42.7519 7.31147 42.7538 7.31155 42.7554 7.31168C42.7563 7.31294 42.7573 7.31437 42.7583 7.31595C45.1819 11.0001 50.2484 11.8026 53.6918 9.04765C53.6933 9.04646 53.6947 9.04542 53.6959 9.04448C53.6975 9.04487 53.6993 9.04536 53.7011 9.04596C53.703 9.04656 53.7047 9.04719 53.7062 9.04782C53.7066 9.0493 53.7071 9.05095 53.7076 9.05277L53.7131 9.05126L53.7076 9.05277C54.8741 13.3055 59.4447 15.6344 63.5709 14.0784C63.5727 14.0777 63.5743 14.0771 63.5757 14.0766C63.5771 14.0775 63.5787 14.0785 63.5802 14.0796C63.5818 14.0808 63.5832 14.0819 63.5845 14.083C63.5845 14.0845 63.5844 14.0862 63.5843 14.0881C63.3795 18.4932 67.0068 22.1205 71.4119 21.9157C71.4138 21.9156 71.4155 21.9155 71.417 21.9155C71.4181 21.9168 71.4192 21.9182 71.4204 21.9198C71.4215 21.9213 71.4225 21.9228 71.4234 21.9243C71.4229 21.9257 71.4223 21.9273 71.4216 21.9291C69.8656 26.0553 72.1945 30.6259 76.4472 31.7924C76.449 31.7929 76.4507 31.7934 76.4522 31.7938C76.4528 31.7953 76.4534 31.797 76.454 31.7989C76.4546 31.8007 76.4551 31.8025 76.4555 31.8041C76.4546 31.8053 76.4535 31.8067 76.4523 31.8082C73.6974 35.2516 74.4999 40.3181 78.1841 42.7417C78.1856 42.7427 78.187 42.7437 78.1883 42.7446C78.1884 42.7462 78.1885 42.7481 78.1885 42.75C78.1885 42.7519 78.1885 42.7538 78.1883 42.7554C78.1871 42.7563 78.1856 42.7573 78.1841 42.7583C74.4999 45.1819 73.6974 50.2484 76.4524 53.6918C76.4535 53.6933 76.4546 53.6947 76.4555 53.6959C76.4551 53.6975 76.4546 53.6993 76.454 53.7011C76.4534 53.703 76.4528 53.7047 76.4522 53.7062C76.4507 53.7066 76.4491 53.7071 76.4472 53.7076C72.1945 54.8741 69.8656 59.4447 71.4216 63.5709C71.4223 63.5727 71.4229 63.5743 71.4234 63.5757C71.4225 63.5771 71.4215 63.5787 71.4204 63.5802C71.4192 63.5818 71.4181 63.5832 71.417 63.5845C71.4155 63.5845 71.4138 63.5844 71.4119 63.5843C67.0068 63.3795 63.3795 67.0068 63.5843 71.4119C63.5844 71.4138 63.5845 71.4155 63.5845 71.417C63.5832 71.4181 63.5818 71.4192 63.5802 71.4204C63.5787 71.4215 63.5772 71.4225 63.5757 71.4234C63.5743 71.4229 63.5727 71.4223 63.5709 71.4216C59.4447 69.8656 54.8741 72.1945 53.7076 76.4472C53.7071 76.449 53.7066 76.4507 53.7062 76.4522C53.7047 76.4528 53.703 76.4534 53.7011 76.454C53.6993 76.4546 53.6975 76.4551 53.6959 76.4555C53.6947 76.4546 53.6933 76.4535 53.6918 76.4524C50.2484 73.6974 45.1819 74.4999 42.7583 78.1841C42.7573 78.1856 42.7563 78.187 42.7554 78.1883C42.7538 78.1884 42.7519 78.1885 42.75 78.1885C42.7481 78.1885 42.7462 78.1885 42.7446 78.1883C42.7437 78.1871 42.7427 78.1856 42.7417 78.1841C40.3181 74.4999 35.2516 73.6974 31.8082 76.4524C31.8067 76.4535 31.8053 76.4546 31.8041 76.4555C31.8025 76.4551 31.8007 76.4546 31.7989 76.454C31.797 76.4534 31.7953 76.4528 31.7938 76.4522C31.7934 76.4507 31.7929 76.449 31.7924 76.4472C30.6259 72.1945 26.0553 69.8656 21.9291 71.4216C21.9273 71.4223 21.9257 71.4229 21.9243 71.4234C21.9229 71.4225 21.9213 71.4215 21.9198 71.4204C21.9182 71.4192 21.9168 71.4181 21.9155 71.417C21.9155 71.4155 21.9156 71.4138 21.9157 71.4119C22.1205 67.0068 18.4932 63.3795 14.0881 63.5843C14.0862 63.5844 14.0845 63.5845 14.083 63.5845C14.0819 63.5832 14.0808 63.5818 14.0796 63.5802C14.0785 63.5787 14.0775 63.5772 14.0766 63.5758C14.0771 63.5743 14.0777 63.5727 14.0784 63.5709C15.6344 59.4447 13.3055 54.8741 9.05277 53.7076C9.05095 53.7071 9.04931 53.7066 9.04784 53.7062C9.0472 53.7047 9.04656 53.703 9.04596 53.7011C9.04536 53.6993 9.04487 53.6975 9.04449 53.6959C9.04542 53.6947 9.04647 53.6933 9.04765 53.6918C11.8026 50.2484 11.0001 45.1819 7.31594 42.7583C7.31436 42.7573 7.31295 42.7563 7.31169 42.7554C7.31156 42.7538 7.31147 42.7519 7.31147 42.75C7.31147 42.7481 7.31155 42.7462 7.31168 42.7446C7.31294 42.7437 7.31437 42.7427 7.31595 42.7417C11.0001 40.3181 11.8026 35.2516 9.04765 31.8082C9.04647 31.8067 9.04542 31.8053 9.04449 31.8041C9.04488 31.8025 9.04536 31.8007 9.04596 31.7989C9.04656 31.797 9.04719 31.7953 9.04782 31.7938C9.0493 31.7934 9.05095 31.7929 9.05277 31.7924C13.3055 30.6259 15.6344 26.0553 14.0784 21.9291C14.0777 21.9273 14.0771 21.9257 14.0766 21.9243C14.0775 21.9229 14.0785 21.9213 14.0796 21.9198C14.0808 21.9182 14.0819 21.9168 14.083 21.9155C14.0845 21.9155 14.0862 21.9156 14.0881 21.9157C18.4932 22.1205 22.1205 18.4932 21.9157 14.0881C21.9156 14.0862 21.9155 14.0845 21.9155 14.083C21.9168 14.0819 21.9182 14.0808 21.9198 14.0796C21.9213 14.0785 21.9228 14.0775 21.9242 14.0766C21.9257 14.0771 21.9273 14.0777 21.9291 14.0784C26.0553 15.6344 30.6259 13.3055 31.7924 9.05277C31.7929 9.05095 31.7934 9.04931 31.7938 9.04783C31.7953 9.0472 31.797 9.04656 31.7989 9.04596C31.8007 9.04536 31.8025 9.04487 31.8041 9.04449C31.8053 9.04541 31.8067 9.04647 31.8082 9.04765C35.2516 11.8026 40.3181 11.0001 42.7417 7.31595Z" stroke="url(#paint0_linear_7466_14074)" stroke-width="7.47798"/>
</g>
<rect x="21.2998" y="21.3" width="44.2" height="44.2" rx="22.1" fill="#009D19"/>
<g clip-path="url(#clip0_7466_14074)">
<path d="M32.3496 44.1055L39.9176 51.6879L54.4496 37.1703L52.3633 35.1129L39.9176 47.5441L34.407 42.0335L32.3496 44.1055Z" fill="white"/>
</g>
<defs>
<filter id="filter0_b_7466_14074" x="-49.8419" y="-49.8416" width="185.184" height="185.183" filterUnits="userSpaceOnUse" color-interpolation-filters="sRGB">
<feFlood flood-opacity="0" result="BackgroundImageFix"/>
<feGaussianBlur in="BackgroundImageFix" stdDeviation="26.7071"/>
<feComposite in2="SourceAlpha" operator="in" result="effect1_backgroundBlur_7466_14074"/>
<feBlend mode="normal" in="SourceGraphic" in2="effect1_backgroundBlur_7466_14074" result="shape"/>
</filter>
<linearGradient id="paint0_linear_7466_14074" x1="42.75" y1="0.5" x2="42.75" y2="85" gradientUnits="userSpaceOnUse">
<stop stop-color="white"/>
<stop offset="1" stop-color="white" stop-opacity="0"/>
</linearGradient>
<clipPath id="clip0_7466_14074">
<rect width="22.1" height="22.1" fill="white" transform="translate(32.3496 32.35)"/>
</clipPath>
</defs>
</svg>
