<svg width="85" height="85" viewBox="0 0 85 85" fill="none" xmlns="http://www.w3.org/2000/svg">
<g filter="url(#filter0_b_7466_14080)">
<path d="M39.118 4.76106C40.5991 2.50962 43.9009 2.50962 45.382 4.76106C46.5954 6.60558 49.132 7.00734 50.856 5.62806C52.9603 3.94449 56.1006 4.96482 56.8134 7.56374C57.3974 9.69294 59.6858 10.8589 61.7516 10.0799C64.2732 9.12897 66.9444 11.0697 66.8193 13.7618C66.7168 15.9672 68.5328 17.7832 70.7382 17.6807C73.4303 17.5556 75.371 20.2268 74.4201 22.7484C73.6411 24.8142 74.8071 27.1026 76.9363 27.6866C79.5352 28.3994 80.5555 31.5397 78.8719 33.644C77.4927 35.368 77.8944 37.9046 79.7389 39.118C81.9904 40.5991 81.9904 43.9009 79.7389 45.382C77.8944 46.5954 77.4927 49.132 78.8719 50.856C80.5555 52.9603 79.5352 56.1006 76.9363 56.8134C74.8071 57.3974 73.6411 59.6858 74.4201 61.7516C75.371 64.2732 73.4303 66.9444 70.7382 66.8193C68.5328 66.7168 66.7168 68.5328 66.8193 70.7383C66.9444 73.4303 64.2732 75.371 61.7516 74.4201C59.6858 73.6411 57.3974 74.8071 56.8134 76.9363C56.1006 79.5352 52.9603 80.5555 50.856 78.8719C49.132 77.4927 46.5954 77.8944 45.382 79.7389C43.9009 81.9904 40.5991 81.9904 39.118 79.7389C37.9046 77.8944 35.368 77.4927 33.644 78.8719C31.5397 80.5555 28.3994 79.5352 27.6866 76.9363C27.1026 74.8071 24.8142 73.6411 22.7484 74.4201C20.2268 75.371 17.5556 73.4303 17.6807 70.7383C17.7832 68.5328 15.9672 66.7168 13.7618 66.8193C11.0697 66.9444 9.12897 64.2732 10.0799 61.7516C10.8589 59.6858 9.69294 57.3974 7.56374 56.8134C4.96482 56.1006 3.94449 52.9603 5.62806 50.856C7.00734 49.132 6.60558 46.5954 4.76106 45.382C2.50962 43.9009 2.50962 40.5991 4.76106 39.118C6.60558 37.9046 7.00734 35.368 5.62806 33.644C3.94449 31.5397 4.96482 28.3994 7.56374 27.6866C9.69294 27.1026 10.8589 24.8142 10.0799 22.7484C9.12897 20.2268 11.0697 17.5556 13.7618 17.6807C15.9672 17.7832 17.7832 15.9672 17.6807 13.7618C17.5556 11.0697 20.2268 9.12897 22.7484 10.0799C24.8142 10.8589 27.1026 9.69294 27.6866 7.56374C28.3994 4.96482 31.5397 3.94449 33.644 5.62806C35.368 7.00734 37.9046 6.60558 39.118 4.76106Z" fill="black" fill-opacity="0.2"/>
<path d="M42.2417 6.81595C42.2427 6.81437 42.2437 6.81295 42.2446 6.81169C42.2462 6.81156 42.2481 6.81147 42.25 6.81147C42.2519 6.81147 42.2538 6.81155 42.2554 6.81168C42.2563 6.81294 42.2573 6.81437 42.2583 6.81595C44.6819 10.5001 49.7484 11.3026 53.1918 8.54765C53.1933 8.54646 53.1947 8.54542 53.1959 8.54448C53.1975 8.54487 53.1993 8.54536 53.2011 8.54596C53.203 8.54656 53.2047 8.54719 53.2062 8.54782C53.2066 8.5493 53.2071 8.55095 53.2076 8.55277L53.2131 8.55126L53.2076 8.55277C54.3741 12.8055 58.9447 15.1344 63.0709 13.5784C63.0727 13.5777 63.0743 13.5771 63.0757 13.5766C63.0771 13.5775 63.0787 13.5785 63.0802 13.5796C63.0818 13.5808 63.0832 13.5819 63.0845 13.583C63.0845 13.5845 63.0844 13.5862 63.0843 13.5881C62.8795 17.9932 66.5068 21.6205 70.9119 21.4157C70.9138 21.4156 70.9155 21.4155 70.917 21.4155C70.9181 21.4168 70.9192 21.4182 70.9204 21.4198C70.9215 21.4213 70.9225 21.4228 70.9234 21.4243C70.9229 21.4257 70.9223 21.4273 70.9216 21.4291C69.3656 25.5553 71.6945 30.1259 75.9472 31.2924C75.949 31.2929 75.9507 31.2934 75.9522 31.2938C75.9528 31.2953 75.9534 31.297 75.954 31.2989C75.9546 31.3007 75.9551 31.3025 75.9555 31.3041C75.9546 31.3053 75.9535 31.3067 75.9523 31.3082C73.1974 34.7516 73.9999 39.8181 77.6841 42.2417C77.6856 42.2427 77.687 42.2437 77.6883 42.2446C77.6884 42.2462 77.6885 42.2481 77.6885 42.25C77.6885 42.2519 77.6885 42.2538 77.6883 42.2554C77.6871 42.2563 77.6856 42.2573 77.6841 42.2583C73.9999 44.6819 73.1974 49.7484 75.9524 53.1918C75.9535 53.1933 75.9546 53.1947 75.9555 53.1959C75.9551 53.1975 75.9546 53.1993 75.954 53.2011C75.9534 53.203 75.9528 53.2047 75.9522 53.2062C75.9507 53.2066 75.9491 53.2071 75.9472 53.2076C71.6945 54.3741 69.3656 58.9447 70.9216 63.0709C70.9223 63.0727 70.9229 63.0743 70.9234 63.0757C70.9225 63.0771 70.9215 63.0787 70.9204 63.0802C70.9192 63.0818 70.9181 63.0832 70.917 63.0845C70.9155 63.0845 70.9138 63.0844 70.9119 63.0843C66.5068 62.8795 62.8795 66.5068 63.0843 70.9119C63.0844 70.9138 63.0845 70.9155 63.0845 70.917C63.0832 70.9181 63.0818 70.9192 63.0802 70.9204C63.0787 70.9215 63.0772 70.9225 63.0757 70.9234C63.0743 70.9229 63.0727 70.9223 63.0709 70.9216C58.9447 69.3656 54.3741 71.6945 53.2076 75.9472C53.2071 75.949 53.2066 75.9507 53.2062 75.9522C53.2047 75.9528 53.203 75.9534 53.2011 75.954C53.1993 75.9546 53.1975 75.9551 53.1959 75.9555C53.1947 75.9546 53.1933 75.9535 53.1918 75.9524C49.7484 73.1974 44.6819 73.9999 42.2583 77.6841C42.2573 77.6856 42.2563 77.687 42.2554 77.6883C42.2538 77.6884 42.2519 77.6885 42.25 77.6885C42.2481 77.6885 42.2462 77.6885 42.2446 77.6883C42.2437 77.6871 42.2427 77.6856 42.2417 77.6841C39.8181 73.9999 34.7516 73.1974 31.3082 75.9524C31.3067 75.9535 31.3053 75.9546 31.3041 75.9555C31.3025 75.9551 31.3007 75.9546 31.2989 75.954C31.297 75.9534 31.2953 75.9528 31.2938 75.9522C31.2934 75.9507 31.2929 75.949 31.2924 75.9472C30.1259 71.6945 25.5553 69.3656 21.4291 70.9216C21.4273 70.9223 21.4257 70.9229 21.4243 70.9234C21.4229 70.9225 21.4213 70.9215 21.4198 70.9204C21.4182 70.9192 21.4168 70.9181 21.4155 70.917C21.4155 70.9155 21.4156 70.9138 21.4157 70.9119C21.6205 66.5068 17.9932 62.8795 13.5881 63.0843C13.5862 63.0844 13.5845 63.0845 13.583 63.0845C13.5819 63.0832 13.5808 63.0818 13.5796 63.0802C13.5785 63.0787 13.5775 63.0772 13.5766 63.0758C13.5771 63.0743 13.5777 63.0727 13.5784 63.0709C15.1344 58.9447 12.8055 54.3741 8.55277 53.2076C8.55095 53.2071 8.54931 53.2066 8.54784 53.2062C8.5472 53.2047 8.54656 53.203 8.54596 53.2011C8.54536 53.1993 8.54487 53.1975 8.54449 53.1959C8.54542 53.1947 8.54647 53.1933 8.54765 53.1918C11.3026 49.7484 10.5001 44.6819 6.81594 42.2583C6.81436 42.2573 6.81295 42.2563 6.81169 42.2554C6.81156 42.2538 6.81147 42.2519 6.81147 42.25C6.81147 42.2481 6.81155 42.2462 6.81168 42.2446C6.81294 42.2437 6.81437 42.2427 6.81595 42.2417C10.5001 39.8181 11.3026 34.7516 8.54765 31.3082C8.54647 31.3067 8.54542 31.3053 8.54449 31.3041C8.54488 31.3025 8.54536 31.3007 8.54596 31.2989C8.54656 31.297 8.54719 31.2953 8.54782 31.2938C8.5493 31.2934 8.55095 31.2929 8.55277 31.2924C12.8055 30.1259 15.1344 25.5553 13.5784 21.4291C13.5777 21.4273 13.5771 21.4257 13.5766 21.4243C13.5775 21.4229 13.5785 21.4213 13.5796 21.4198C13.5808 21.4182 13.5819 21.4168 13.583 21.4155C13.5845 21.4155 13.5862 21.4156 13.5881 21.4157C17.9932 21.6205 21.6205 17.9932 21.4157 13.5881C21.4156 13.5862 21.4155 13.5845 21.4155 13.583C21.4168 13.5819 21.4182 13.5808 21.4198 13.5796C21.4213 13.5785 21.4228 13.5775 21.4242 13.5766C21.4257 13.5771 21.4273 13.5777 21.4291 13.5784C25.5553 15.1344 30.1259 12.8055 31.2924 8.55277C31.2929 8.55095 31.2934 8.54931 31.2938 8.54783C31.2953 8.5472 31.297 8.54656 31.2989 8.54596C31.3007 8.54536 31.3025 8.54487 31.3041 8.54449C31.3053 8.54541 31.3067 8.54647 31.3082 8.54765C34.7516 11.3026 39.8181 10.5001 42.2417 6.81595Z" stroke="url(#paint0_linear_7466_14080)" stroke-width="7.47798"/>
</g>
<path d="M73.5583 63.1401L65.5476 58.5415C65.413 58.4643 65.2637 58.4161 65.1094 58.4001C64.9551 58.384 64.7991 58.4004 64.6515 58.4481C64.5038 58.4959 64.3678 58.574 64.2522 58.6775C64.1365 58.7809 64.0437 58.9074 63.9799 59.0488C60.5755 66.6032 60.7276 65.8598 60.7276 67.3263C60.7289 68.3359 60.9446 69.3337 61.3605 70.2537C61.7763 71.1737 62.3828 71.9948 63.1398 72.6629C64.1059 73.5173 65.2846 74.0953 66.5516 74.336C67.8186 74.5768 69.1272 74.4714 70.3393 74.0309C71.5515 73.5904 72.6224 72.8312 73.4393 71.8332C74.2562 70.8351 74.7888 69.6353 74.981 68.36C75.3364 65.8509 74.241 63.5315 73.5583 63.1401Z" fill="#676767"/>
<path d="M26.6094 23.0751H10.9688C9.11773 23.0751 7.61719 24.5757 7.61719 26.4267V38.7158C7.61719 40.5668 9.11773 42.0673 10.9688 42.0673H26.6094C28.4604 42.0673 29.9609 40.5668 29.9609 38.7158V26.4267C29.9609 24.5757 28.4604 23.0751 26.6094 23.0751Z" fill="#FA9735"/>
<path d="M43.3672 18.6064C46.4522 18.6064 48.9531 16.1055 48.9531 13.0204C48.9531 9.93542 46.4522 7.43451 43.3672 7.43451C40.2822 7.43451 37.7812 9.93542 37.7812 13.0204C37.7812 16.1055 40.2822 18.6064 43.3672 18.6064Z" fill="#E69E45"/>
<path d="M36.6283 63.1831H24.5263C24.3803 63.1831 24.2357 63.2118 24.1007 63.2676C23.9658 63.3235 23.8432 63.4054 23.7399 63.5086C23.6366 63.6118 23.5547 63.7344 23.4988 63.8693C23.4429 64.0042 23.4141 64.1488 23.4141 64.2949V66.9575C23.4219 68.8521 24.1801 70.6665 25.5226 72.0035C26.8651 73.3405 28.6826 74.0911 30.5773 74.0911C32.472 74.0911 34.2895 73.3405 35.632 72.0035C36.9746 70.6665 37.7327 68.8521 37.7406 66.9575V64.2949C37.7406 64.1488 37.7118 64.0042 37.6559 63.8693C37.5999 63.7344 37.518 63.6118 37.4147 63.5086C37.3114 63.4054 37.1888 63.3235 37.0539 63.2676C36.9189 63.2118 36.7743 63.1831 36.6283 63.1831Z" fill="#676767"/>
<path d="M71.2282 57.0735C67.9155 55.1703 64.2034 55.8785 63.6501 56.5869L57.8313 64.0417C57.1384 64.9266 57.934 67.689 58.4957 68.8656C58.5797 69.0412 58.7083 69.1916 58.8686 69.3019C59.029 69.4123 59.2155 69.4786 59.4094 69.4943C59.6034 69.5101 59.7982 69.4747 59.9742 69.3916C60.1502 69.3086 60.3014 69.1808 60.4126 69.0211C63.2016 65.0083 69.7963 63.2632 74.1707 65.3417C74.348 65.4256 74.5443 65.4612 74.7398 65.4448C74.9352 65.4285 75.1229 65.3607 75.2838 65.2485C75.4446 65.1362 75.573 64.9835 75.6558 64.8056C75.7386 64.6278 75.773 64.4313 75.7554 64.2359C75.6437 62.763 75.1727 61.3398 74.3834 60.0911C73.5942 58.8425 72.5108 57.8063 71.2282 57.0735Z" fill="#26A9FF"/>
<path d="M53.6497 29.7548C47.744 28.0759 45.5552 26.2301 43.8732 24.3478C43.9892 23.4914 43.8342 22.6201 43.4299 21.8561C43.0257 21.0922 42.3925 20.4739 41.6192 20.088C41.0671 19.8245 40.4626 19.6889 39.8509 19.6914C39.2391 19.694 38.6358 19.8345 38.0858 20.1026C37.5359 20.3707 37.0536 20.7594 36.6748 21.2398C36.296 21.7202 36.0304 22.2799 35.898 22.8771L32.6926 38.1932C32.5982 38.6482 32.5999 39.1178 32.6977 39.572C32.7955 40.0263 32.9873 40.455 33.2606 40.8307C33.534 41.2065 33.8829 41.5209 34.2849 41.7538C34.687 41.9866 35.1333 42.1329 35.5952 42.183L41.0873 42.7907C41.3704 42.8207 41.6312 42.9583 41.8157 43.175C42.0003 43.3918 42.0946 43.6711 42.0791 43.9553L41.0885 60.711C41.0796 60.8623 41.1017 61.0138 41.1535 61.1562C41.2052 61.2986 41.2856 61.429 41.3895 61.5393C41.4935 61.6496 41.6188 61.7374 41.758 61.7975C41.8971 61.8576 42.047 61.8887 42.1986 61.8887H46.6575C46.9322 61.8887 47.1972 61.7869 47.4014 61.6031C47.6055 61.4193 47.7344 61.1664 47.7632 60.8932L49.8121 41.5224C49.8888 40.7876 49.7191 40.0482 49.3296 39.4205C48.9402 38.7927 48.353 38.3122 47.6606 38.0547L42.1865 36.0118C41.9349 35.9184 41.7258 35.7368 41.598 35.5008C41.4702 35.2649 41.4323 34.9905 41.4916 34.7287L42.3245 31.1372C45.4665 33.6486 49.3266 35.0944 53.3453 35.265C53.6403 35.2649 53.9232 35.1478 54.1318 34.9392C54.3404 34.7306 54.4576 34.4477 54.4576 34.1527V30.8246C54.4576 30.5827 54.3787 30.3474 54.2329 30.1544C54.0871 29.9613 53.8824 29.8211 53.6497 29.7548Z" fill="#2A93D5"/>
<path d="M63.4746 48.4884C61.0755 46.8972 59.2819 42.8501 59.0108 38.5931H61.1502C62.0348 38.5934 62.8834 38.2429 63.5099 37.6183C64.1364 36.9938 64.4896 36.1463 64.492 35.2617V33.0431C64.4896 32.1586 64.1364 31.3111 63.5099 30.6867C62.8834 30.0622 62.0348 29.7118 61.1503 29.7123H53.3474C53.0524 29.7123 52.7695 29.8295 52.5609 30.0381C52.3523 30.2467 52.2352 30.5296 52.2351 30.8246V59.6642H42.8754C42.6974 59.6663 42.5229 59.6148 42.3746 59.5163C40.2319 58.068 38.0592 55.4556 39.8779 51.2324C39.9508 51.0632 39.9805 50.8786 39.9644 50.6951C39.9483 50.5116 39.8869 50.335 39.7856 50.1811C39.6844 50.0273 39.5465 49.9009 39.3844 49.8136C39.2222 49.7262 39.0409 49.6804 38.8567 49.6804H24.6655C24.4861 49.6805 24.3095 49.7239 24.1506 49.807C23.9916 49.8902 23.8552 50.0105 23.7529 50.1578C23.0993 51.0971 17.4136 59.4755 18.9726 64.3392C19.2394 65.1947 19.7599 65.9491 20.4651 66.5021C21.1704 67.0552 22.027 67.3809 22.9215 67.436L56.8637 67.4353C57.9812 67.4353 66.5049 59.7804 66.4389 53.878C66.4179 52.8068 66.1372 51.7567 65.6208 50.818C65.1045 49.8792 64.368 49.0798 63.4746 48.4884Z" fill="#1489C8"/>
<path d="M38.8566 44.1337H21.0215C20.7258 44.135 20.4428 44.2535 20.2344 44.4631C20.0259 44.6727 19.909 44.9564 19.9092 45.252C19.9112 47.0158 20.6127 48.7069 21.86 49.9541C23.1072 51.2013 24.7982 51.9029 26.5621 51.9049H38.8566C39.1516 51.9049 39.4345 51.7877 39.6431 51.5791C39.8517 51.3705 39.9689 51.0876 39.9689 50.7926V45.2459C39.9689 44.951 39.8517 44.6681 39.6431 44.4595C39.4345 44.2509 39.1516 44.1337 38.8566 44.1337Z" fill="white"/>
<defs>
<filter id="filter0_b_7466_14080" x="-50.3419" y="-50.3416" width="185.184" height="185.183" filterUnits="userSpaceOnUse" color-interpolation-filters="sRGB">
<feFlood flood-opacity="0" result="BackgroundImageFix"/>
<feGaussianBlur in="BackgroundImageFix" stdDeviation="26.7071"/>
<feComposite in2="SourceAlpha" operator="in" result="effect1_backgroundBlur_7466_14080"/>
<feBlend mode="normal" in="SourceGraphic" in2="effect1_backgroundBlur_7466_14080" result="shape"/>
</filter>
<linearGradient id="paint0_linear_7466_14080" x1="42.25" y1="0" x2="42.25" y2="84.5" gradientUnits="userSpaceOnUse">
<stop stop-color="white"/>
<stop offset="1" stop-color="white" stop-opacity="0"/>
</linearGradient>
</defs>
</svg>
